  0
SECTION
  2
HEADER
  9
$ACADVER
  1
AC1027
  9
$ACADMAINTVER
 70
105
  9
$DWGCODEPAGE
  3
ANSI_1252
  9
$LASTSAVEDBY
  1
ezdxf
  9
$REQUIREDVERSIONS
160
0
  9
$INSBASE
 10
0.0
 20
0.0
 30
0.0
  9
$EXTMIN
 10
1e+20
 20
1e+20
 30
1e+20
  9
$EXTMAX
 10
-1e+20
 20
-1e+20
 30
-1e+20
  9
$LIMMIN
 10
0.0
 20
0.0
  9
$LIMMAX
 10
420.0
 20
297.0
  9
$ORTHOMODE
 70
0
  9
$REGENMODE
 70
1
  9
$FILLMODE
 70
1
  9
$QTEXTMODE
 70
0
  9
$MIRRTEXT
 70
1
  9
$LTSCALE
 40
1.0
  9
$ATTMODE
 70
1
  9
$TEXTSIZE
 40
2.5
  9
$TRACEWID
 40
1.0
  9
$TEXTSTYLE
  7
Standard
  9
$CLAYER
  8
0
  9
$CELTYPE
  6
ByLayer
  9
$CECOLOR
 62
256
  9
$CELTSCALE
 40
1.0
  9
$DISPSILH
 70
0
  9
$DIMSCALE
 40
1.0
  9
$DIMASZ
 40
2.5
  9
$DIMEXO
 40
0.625
  9
$DIMDLI
 40
3.75
  9
$DIMRND
 40
0.0
  9
$DIMDLE
 40
0.0
  9
$DIMEXE
 40
1.25
  9
$DIMTP
 40
0.0
  9
$DIMTM
 40
0.0
  9
$DIMTXT
 40
2.5
  9
$DIMCEN
 40
2.5
  9
$DIMTSZ
 40
0.0
  9
$DIMTOL
 70
0
  9
$DIMLIM
 70
0
  9
$DIMTIH
 70
0
  9
$DIMTOH
 70
0
  9
$DIMSE1
 70
0
  9
$DIMSE2
 70
0
  9
$DIMTAD
 70
1
  9
$DIMZIN
 70
8
  9
$DIMBLK
  1

  9
$DIMASO
 70
1
  9
$DIMSHO
 70
1
  9
$DIMPOST
  1

  9
$DIMAPOST
  1

  9
$DIMALT
 70
0
  9
$DIMALTD
 70
3
  9
$DIMALTF
 40
0.03937007874
  9
$DIMLFAC
 40
1.0
  9
$DIMTOFL
 70
1
  9
$DIMTVP
 40
0.0
  9
$DIMTIX
 70
0
  9
$DIMSOXD
 70
0
  9
$DIMSAH
 70
0
  9
$DIMBLK1
  1

  9
$DIMBLK2
  1

  9
$DIMSTYLE
  2
ISO-25
  9
$DIMCLRD
 70
0
  9
$DIMCLRE
 70
0
  9
$DIMCLRT
 70
0
  9
$DIMTFAC
 40
1.0
  9
$DIMGAP
 40
0.625
  9
$DIMJUST
 70
0
  9
$DIMSD1
 70
0
  9
$DIMSD2
 70
0
  9
$DIMTOLJ
 70
0
  9
$DIMTZIN
 70
8
  9
$DIMALTZ
 70
0
  9
$DIMALTTZ
 70
0
  9
$DIMUPT
 70
0
  9
$DIMDEC
 70
2
  9
$DIMTDEC
 70
2
  9
$DIMALTU
 70
2
  9
$DIMALTTD
 70
3
  9
$DIMTXSTY
  7
Standard
  9
$DIMAUNIT
 70
0
  9
$DIMADEC
 70
0
  9
$DIMALTRND
 40
0.0
  9
$DIMAZIN
 70
0
  9
$DIMDSEP
 70
44
  9
$DIMATFIT
 70
3
  9
$DIMFRAC
 70
0
  9
$DIMLDRBLK
  1

  9
$DIMLUNIT
 70
2
  9
$DIMLWD
 70
-2
  9
$DIMLWE
 70
-2
  9
$DIMTMOVE
 70
0
  9
$DIMFXL
 40
1.0
  9
$DIMFXLON
 70
0
  9
$DIMJOGANG
 40
0.785398163397
  9
$DIMTFILL
 70
0
  9
$DIMTFILLCLR
 70
0
  9
$DIMARCSYM
 70
0
  9
$DIMLTYPE
  6

  9
$DIMLTEX1
  6

  9
$DIMLTEX2
  6

  9
$DIMTXTDIRECTION
 70
0
  9
$LUNITS
 70
2
  9
$LUPREC
 70
4
  9
$SKETCHINC
 40
1.0
  9
$FILLETRAD
 40
10.0
  9
$AUNITS
 70
0
  9
$AUPREC
 70
2
  9
$MENU
  1
.
  9
$ELEVATION
 40
0.0
  9
$PELEVATION
 40
0.0
  9
$THICKNESS
 40
0.0
  9
$LIMCHECK
 70
0
  9
$CHAMFERA
 40
0.0
  9
$CHAMFERB
 40
0.0
  9
$CHAMFERC
 40
0.0
  9
$CHAMFERD
 40
0.0
  9
$SKPOLY
 70
0
  9
$TDCREATE
 40
2460561.728136574
  9
$TDUCREATE
 40
2458532.153996898
  9
$TDUPDATE
 40
2460561.728136574
  9
$TDUUPDATE
 40
2458532.1544311
  9
$TDINDWG
 40
0.0
  9
$TDUSRTIMER
 40
0.0
  9
$USRTIMER
 70
1
  9
$ANGBASE
 50
0.0
  9
$ANGDIR
 70
0
  9
$PDMODE
 70
0
  9
$PDSIZE
 40
0.0
  9
$PLINEWID
 40
0.0
  9
$SPLFRAME
 70
0
  9
$SPLINETYPE
 70
6
  9
$SPLINESEGS
 70
8
  9
$HANDSEED
  5
31D
  9
$SURFTAB1
 70
6
  9
$SURFTAB2
 70
6
  9
$SURFTYPE
 70
6
  9
$SURFU
 70
6
  9
$SURFV
 70
6
  9
$UCSBASE
  2

  9
$UCSNAME
  2

  9
$UCSORG
 10
0.0
 20
0.0
 30
0.0
  9
$UCSXDIR
 10
1.0
 20
0.0
 30
0.0
  9
$UCSYDIR
 10
0.0
 20
1.0
 30
0.0
  9
$UCSORTHOREF
  2

  9
$UCSORTHOVIEW
 70
0
  9
$UCSORGTOP
 10
0.0
 20
0.0
 30
0.0
  9
$UCSORGBOTTOM
 10
0.0
 20
0.0
 30
0.0
  9
$UCSORGLEFT
 10
0.0
 20
0.0
 30
0.0
  9
$UCSORGRIGHT
 10
0.0
 20
0.0
 30
0.0
  9
$UCSORGFRONT
 10
0.0
 20
0.0
 30
0.0
  9
$UCSORGBACK
 10
0.0
 20
0.0
 30
0.0
  9
$PUCSBASE
  2

  9
$PUCSNAME
  2

  9
$PUCSORG
 10
0.0
 20
0.0
 30
0.0
  9
$PUCSXDIR
 10
1.0
 20
0.0
 30
0.0
  9
$PUCSYDIR
 10
0.0
 20
1.0
 30
0.0
  9
$PUCSORTHOREF
  2

  9
$PUCSORTHOVIEW
 70
0
  9
$PUCSORGTOP
 10
0.0
 20
0.0
 30
0.0
  9
$PUCSORGBOTTOM
 10
0.0
 20
0.0
 30
0.0
  9
$PUCSORGLEFT
 10
0.0
 20
0.0
 30
0.0
  9
$PUCSORGRIGHT
 10
0.0
 20
0.0
 30
0.0
  9
$PUCSORGFRONT
 10
0.0
 20
0.0
 30
0.0
  9
$PUCSORGBACK
 10
0.0
 20
0.0
 30
0.0
  9
$USERI1
 70
0
  9
$USERI2
 70
0
  9
$USERI3
 70
0
  9
$USERI4
 70
0
  9
$USERI5
 70
0
  9
$USERR1
 40
0.0
  9
$USERR2
 40
0.0
  9
$USERR3
 40
0.0
  9
$USERR4
 40
0.0
  9
$USERR5
 40
0.0
  9
$WORLDVIEW
 70
1
  9
$SHADEDGE
 70
3
  9
$SHADEDIF
 70
70
  9
$TILEMODE
 70
1
  9
$MAXACTVP
 70
64
  9
$PINSBASE
 10
0.0
 20
0.0
 30
0.0
  9
$PLIMCHECK
 70
0
  9
$PEXTMIN
 10
1e+20
 20
1e+20
 30
1e+20
  9
$PEXTMAX
 10
-1e+20
 20
-1e+20
 30
-1e+20
  9
$PLIMMIN
 10
0.0
 20
0.0
  9
$PLIMMAX
 10
420.0
 20
297.0
  9
$UNITMODE
 70
0
  9
$VISRETAIN
 70
1
  9
$PLINEGEN
 70
0
  9
$PSLTSCALE
 70
1
  9
$TREEDEPTH
 70
3020
  9
$CMLSTYLE
  2
Standard
  9
$CMLJUST
 70
0
  9
$CMLSCALE
 40
20.0
  9
$PROXYGRAPHICS
 70
1
  9
$MEASUREMENT
 70
1
  9
$CELWEIGHT
370
-1
  9
$ENDCAPS
280
0
  9
$JOINSTYLE
280
0
  9
$LWDISPLAY
290
0
  9
$INSUNITS
 70
4
  9
$HYPERLINKBASE
  1

  9
$STYLESHEET
  1

  9
$XEDIT
290
1
  9
$CEPSNTYPE
380
0
  9
$PSTYLEMODE
290
1
  9
$FINGERPRINTGUID
  2
{2A875CB2-576F-41DB-A883-5C07B0E82D59}
  9
$VERSIONGUID
  2
{B39A83E5-12E9-44FA-AC84-17DE3954F8F1}
  9
$EXTNAMES
290
1
  9
$PSVPSCALE
 40
0.0
  9
$OLESTARTUP
290
0
  9
$SORTENTS
280
127
  9
$INDEXCTL
280
0
  9
$HIDETEXT
280
1
  9
$XCLIPFRAME
280
1
  9
$HALOGAP
280
0
  9
$OBSCOLOR
 70
257
  9
$OBSLTYPE
280
0
  9
$INTERSECTIONDISPLAY
280
0
  9
$INTERSECTIONCOLOR
 70
257
  9
$DIMASSOC
280
2
  9
$PROJECTNAME
  1

  9
$CAMERADISPLAY
290
0
  9
$LENSLENGTH
 40
50.0
  9
$CAMERAHEIGHT
 40
0.0
  9
$STEPSPERSEC
 40
24.0
  9
$STEPSIZE
 40
100.0
  9
$3DDWFPREC
 40
2.0
  9
$PSOLWIDTH
 40
0.005
  9
$PSOLHEIGHT
 40
0.08
  9
$LOFTANG1
 40
1.570796326795
  9
$LOFTANG2
 40
1.570796326795
  9
$LOFTMAG1
 40
0.0
  9
$LOFTMAG2
 40
0.0
  9
$LOFTPARAM
 70
7
  9
$LOFTNORMALS
280
1
  9
$LATITUDE
 40
37.795
  9
$LONGITUDE
 40
-122.394
  9
$NORTHDIRECTION
 40
0.0
  9
$TIMEZONE
 70
-8000
  9
$LIGHTGLYPHDISPLAY
280
1
  9
$TILEMODELIGHTSYNCH
280
1
  9
$CMATERIAL
347
20
  9
$SOLIDHIST
280
0
  9
$SHOWHIST
280
1
  9
$DWFFRAME
280
2
  9
$DGNFRAME
280
2
  9
$REALWORLDSCALE
290
1
  9
$INTERFERECOLOR
 62
256
  9
$CSHADOW
280
0
  9
$SHADOWPLANELOCATION
 40
0.0
  0
ENDSEC
  0
SECTION
  2
CLASSES
  0
CLASS
  1
ACDBDICTIONARYWDFLT
  2
AcDbDictionaryWithDefault
  3
ObjectDBX Classes
 90
0
 91
0
280
0
281
0
  0
CLASS
  1
SUN
  2
AcDbSun
  3
SCENEOE
 90
1153
 91
0
280
0
281
0
  0
CLASS
  1
VISUALSTYLE
  2
AcDbVisualStyle
  3
ObjectDBX Classes
 90
4095
 91
0
280
0
281
0
  0
CLASS
  1
MATERIAL
  2
AcDbMaterial
  3
ObjectDBX Classes
 90
1153
 91
0
280
0
281
0
  0
CLASS
  1
SCALE
  2
AcDbScale
  3
ObjectDBX Classes
 90
1153
 91
0
280
0
281
0
  0
CLASS
  1
TABLESTYLE
  2
AcDbTableStyle
  3
ObjectDBX Classes
 90
4095
 91
0
280
0
281
0
  0
CLASS
  1
MLEADERSTYLE
  2
AcDbMLeaderStyle
  3
ACDB_MLEADERSTYLE_CLASS
 90
4095
 91
0
280
0
281
0
  0
CLASS
  1
DICTIONARYVAR
  2
AcDbDictionaryVar
  3
ObjectDBX Classes
 90
0
 91
0
280
0
281
0
  0
CLASS
  1
CELLSTYLEMAP
  2
AcDbCellStyleMap
  3
ObjectDBX Classes
 90
1152
 91
0
280
0
281
0
  0
CLASS
  1
MENTALRAYRENDERSETTINGS
  2
AcDbMentalRayRenderSettings
  3
SCENEOE
 90
1024
 91
0
280
0
281
0
  0
CLASS
  1
ACDBDETAILVIEWSTYLE
  2
AcDbDetailViewStyle
  3
ObjectDBX Classes
 90
1025
 91
0
280
0
281
0
  0
CLASS
  1
ACDBSECTIONVIEWSTYLE
  2
AcDbSectionViewStyle
  3
ObjectDBX Classes
 90
1025
 91
0
280
0
281
0
  0
CLASS
  1
RASTERVARIABLES
  2
AcDbRasterVariables
  3
ISM
 90
0
 91
0
280
0
281
0
  0
CLASS
  1
ACDBPLACEHOLDER
  2
AcDbPlaceHolder
  3
ObjectDBX Classes
 90
0
 91
0
280
0
281
0
  0
CLASS
  1
LAYOUT
  2
AcDbLayout
  3
ObjectDBX Classes
 90
0
 91
0
280
0
281
0
  0
ENDSEC
  0
SECTION
  2
TABLES
  0
TABLE
  2
VPORT
  5
8
330
0
100
AcDbSymbolTable
 70
1
  0
VPORT
  5
23
330
8
100
AcDbSymbolTableRecord
100
AcDbViewportTableRecord
  2
*Active
 70
0
 10
0.0
 20
0.0
 11
1.0
 21
1.0
 12
0.0
 22
0.0
 13
0.0
 23
0.0
 14
0.5
 24
0.5
 15
0.5
 25
0.5
 16
0.0
 26
0.0
 36
1.0
 17
0.0
 27
0.0
 37
0.0
 40
1000.0
 41
1.34
 42
50.0
 43
0.0
 44
0.0
 50
0.0
 51
0.0
 71
0
 72
1000
 73
1
 74
3
 75
0
 76
0
 77
0
 78
0
281
0
 65
0
146
0.0
  0
ENDTAB
  0
TABLE
  2
LTYPE
  5
2
330
0
100
AcDbSymbolTable
 70
3
  0
LTYPE
  5
24
330
2
100
AcDbSymbolTableRecord
100
AcDbLinetypeTableRecord
  2
ByBlock
 70
0
  3

 72
65
 73
0
 40
0.0
  0
LTYPE
  5
25
330
2
100
AcDbSymbolTableRecord
100
AcDbLinetypeTableRecord
  2
ByLayer
 70
0
  3

 72
65
 73
0
 40
0.0
  0
LTYPE
  5
26
330
2
100
AcDbSymbolTableRecord
100
AcDbLinetypeTableRecord
  2
Continuous
 70
0
  3

 72
65
 73
0
 40
0.0
  0
ENDTAB
  0
TABLE
  2
LAYER
  5
1
330
0
100
AcDbSymbolTable
 70
33
  0
LAYER
  5
27
330
1
100
AcDbSymbolTableRecord
100
AcDbLayerTableRecord
  2
0
 70
0
 62
7
  6
Continuous
370
-3
390
13
347
21
  0
LAYER
  5
28
330
1
100
AcDbSymbolTableRecord
100
AcDbLayerTableRecord
  2
Defpoints
 70
0
 62
7
  6
Continuous
290
0
370
-3
390
13
347
21
  0
LAYER
  5
2F
330
1
100
AcDbSymbolTableRecord
100
AcDbLayerTableRecord
  2
side-a_1
 70
0
 62
7
  6
Continuous
370
-3
390
13
347
21
  0
LAYER
  5
5C
330
1
100
AcDbSymbolTableRecord
100
AcDbLayerTableRecord
  2
side-a_2
 70
0
 62
7
  6
Continuous
370
-3
390
13
347
21
  0
LAYER
  5
89
330
1
100
AcDbSymbolTableRecord
100
AcDbLayerTableRecord
  2
side-a_3
 70
0
 62
7
  6
Continuous
370
-3
390
13
347
21
  0
LAYER
  5
B6
330
1
100
AcDbSymbolTableRecord
100
AcDbLayerTableRecord
  2
side-a_4
 70
0
 62
7
  6
Continuous
370
-3
390
13
347
21
  0
LAYER
  5
E3
330
1
100
AcDbSymbolTableRecord
100
AcDbLayerTableRecord
  2
side-a_5
 70
0
 62
7
  6
Continuous
370
-3
390
13
347
21
  0
LAYER
  5
110
330
1
100
AcDbSymbolTableRecord
100
AcDbLayerTableRecord
  2
side-a_6
 70
0
 62
7
  6
Continuous
370
-3
390
13
347
21
  0
LAYER
  5
13D
330
1
100
AcDbSymbolTableRecord
100
AcDbLayerTableRecord
  2
foot_1
 70
0
 62
7
  6
Continuous
370
-3
390
13
347
21
  0
LAYER
  5
14A
330
1
100
AcDbSymbolTableRecord
100
AcDbLayerTableRecord
  2
foot_2
 70
0
 62
7
  6
Continuous
370
-3
390
13
347
21
  0
LAYER
  5
157
330
1
100
AcDbSymbolTableRecord
100
AcDbLayerTableRecord
  2
foot_3
 70
0
 62
7
  6
Continuous
370
-3
390
13
347
21
  0
LAYER
  5
164
330
1
100
AcDbSymbolTableRecord
100
AcDbLayerTableRecord
  2
foot_4
 70
0
 62
7
  6
Continuous
370
-3
390
13
347
21
  0
LAYER
  5
171
330
1
100
AcDbSymbolTableRecord
100
AcDbLayerTableRecord
  2
foot_5
 70
0
 62
7
  6
Continuous
370
-3
390
13
347
21
  0
LAYER
  5
17E
330
1
100
AcDbSymbolTableRecord
100
AcDbLayerTableRecord
  2
foot_6
 70
0
 62
7
  6
Continuous
370
-3
390
13
347
21
  0
LAYER
  5
18B
330
1
100
AcDbSymbolTableRecord
100
AcDbLayerTableRecord
  2
foot_7
 70
0
 62
7
  6
Continuous
370
-3
390
13
347
21
  0
LAYER
  5
198
330
1
100
AcDbSymbolTableRecord
100
AcDbLayerTableRecord
  2
foot_8
 70
0
 62
7
  6
Continuous
370
-3
390
13
347
21
  0
LAYER
  5
1A5
330
1
100
AcDbSymbolTableRecord
100
AcDbLayerTableRecord
  2
foot_9
 70
0
 62
7
  6
Continuous
370
-3
390
13
347
21
  0
LAYER
  5
1B2
330
1
100
AcDbSymbolTableRecord
100
AcDbLayerTableRecord
  2
foot_10
 70
0
 62
7
  6
Continuous
370
-3
390
13
347
21
  0
LAYER
  5
1BF
330
1
100
AcDbSymbolTableRecord
100
AcDbLayerTableRecord
  2
foot_11
 70
0
 62
7
  6
Continuous
370
-3
390
13
347
21
  0
LAYER
  5
1CC
330
1
100
AcDbSymbolTableRecord
100
AcDbLayerTableRecord
  2
foot_12
 70
0
 62
7
  6
Continuous
370
-3
390
13
347
21
  0
LAYER
  5
1D9
330
1
100
AcDbSymbolTableRecord
100
AcDbLayerTableRecord
  2
foot_13
 70
0
 62
7
  6
Continuous
370
-3
390
13
347
21
  0
LAYER
  5
1E6
330
1
100
AcDbSymbolTableRecord
100
AcDbLayerTableRecord
  2
foot_14
 70
0
 62
7
  6
Continuous
370
-3
390
13
347
21
  0
LAYER
  5
1F3
330
1
100
AcDbSymbolTableRecord
100
AcDbLayerTableRecord
  2
foot_15
 70
0
 62
7
  6
Continuous
370
-3
390
13
347
21
  0
LAYER
  5
200
330
1
100
AcDbSymbolTableRecord
100
AcDbLayerTableRecord
  2
foot_16
 70
0
 62
7
  6
Continuous
370
-3
390
13
347
21
  0
LAYER
  5
20D
330
1
100
AcDbSymbolTableRecord
100
AcDbLayerTableRecord
  2
foot_17
 70
0
 62
7
  6
Continuous
370
-3
390
13
347
21
  0
LAYER
  5
21A
330
1
100
AcDbSymbolTableRecord
100
AcDbLayerTableRecord
  2
foot_18
 70
0
 62
7
  6
Continuous
370
-3
390
13
347
21
  0
LAYER
  5
227
330
1
100
AcDbSymbolTableRecord
100
AcDbLayerTableRecord
  2
foot_19
 70
0
 62
7
  6
Continuous
370
-3
390
13
347
21
  0
LAYER
  5
234
330
1
100
AcDbSymbolTableRecord
100
AcDbLayerTableRecord
  2
foot_20
 70
0
 62
7
  6
Continuous
370
-3
390
13
347
21
  0
LAYER
  5
241
330
1
100
AcDbSymbolTableRecord
100
AcDbLayerTableRecord
  2
foot_21
 70
0
 62
7
  6
Continuous
370
-3
390
13
347
21
  0
LAYER
  5
24E
330
1
100
AcDbSymbolTableRecord
100
AcDbLayerTableRecord
  2
foot_22
 70
0
 62
7
  6
Continuous
370
-3
390
13
347
21
  0
LAYER
  5
25B
330
1
100
AcDbSymbolTableRecord
100
AcDbLayerTableRecord
  2
bottom_1
 70
0
 62
7
  6
Continuous
370
-3
390
13
347
21
  0
LAYER
  5
2C0
330
1
100
AcDbSymbolTableRecord
100
AcDbLayerTableRecord
  2
side-b_1
 70
0
 62
7
  6
Continuous
370
-3
390
13
347
21
  0
LAYER
  5
2ED
330
1
100
AcDbSymbolTableRecord
100
AcDbLayerTableRecord
  2
side-b_2
 70
0
 62
7
  6
Continuous
370
-3
390
13
347
21
  0
ENDTAB
  0
TABLE
  2
STYLE
  5
5
330
0
100
AcDbSymbolTable
 70
1
  0
STYLE
  5
29
330
5
100
AcDbSymbolTableRecord
100
AcDbTextStyleTableRecord
  2
Standard
 70
0
 40
0.0
 41
1.0
 50
0.0
 71
0
 42
2.5
  3
txt
  4

  0
ENDTAB
  0
TABLE
  2
VIEW
  5
7
330
0
100
AcDbSymbolTable
 70
0
  0
ENDTAB
  0
TABLE
  2
UCS
  5
6
330
0
100
AcDbSymbolTable
 70
0
  0
ENDTAB
  0
TABLE
  2
APPID
  5
3
330
0
100
AcDbSymbolTable
 70
3
  0
APPID
  5
2A
330
3
100
AcDbSymbolTableRecord
100
AcDbRegAppTableRecord
  2
ACAD
 70
0
  0
APPID
  5
31A
330
3
100
AcDbSymbolTableRecord
100
AcDbRegAppTableRecord
  2
HATCHBACKGROUNDCOLOR
 70
0
  0
APPID
  5
31B
330
3
100
AcDbSymbolTableRecord
100
AcDbRegAppTableRecord
  2
EZDXF
 70
0
  0
ENDTAB
  0
TABLE
  2
DIMSTYLE
  5
4
330
0
100
AcDbSymbolTable
 70
1
100
AcDbDimStyleTable
  0
DIMSTYLE
105
2B
330
4
100
AcDbSymbolTableRecord
100
AcDbDimStyleTableRecord
  2
Standard
 70
0
 40
1.0
 41
2.5
 42
0.625
 43
3.75
 44
1.25
 45
0.0
 46
0.0
 47
0.0
 48
0.0
 49
2.5
140
2.5
141
2.5
142
0.0
143
0.03937007874
144
1.0
145
0.0
146
1.0
147
0.625
148
0.0
 69
0
 70
0
 71
0
 72
0
 73
0
 74
0
 75
0
 76
0
 77
1
 78
8
 79
3
170
0
171
3
172
1
173
0
174
0
175
0
176
0
177
0
178
0
179
2
271
2
272
2
273
2
274
3
275
0
276
0
277
2
278
44
279
0
280
0
281
0
282
0
283
0
284
8
285
0
286
0
288
0
289
3
290
0
371
-2
372
-2
  0
ENDTAB
  0
TABLE
  2
BLOCK_RECORD
  5
9
330
0
100
AcDbSymbolTable
 70
2
  0
BLOCK_RECORD
  5
17
330
9
100
AcDbSymbolTableRecord
100
AcDbBlockTableRecord
  2
*Model_Space
340
1A
 70
0
280
1
281
0
  0
BLOCK_RECORD
  5
1B
330
9
100
AcDbSymbolTableRecord
100
AcDbBlockTableRecord
  2
*Paper_Space
340
1E
 70
0
280
1
281
0
  0
ENDTAB
  0
ENDSEC
  0
SECTION
  2
BLOCKS
  0
BLOCK
  5
18
330
17
100
AcDbEntity
  8
0
100
AcDbBlockBegin
  2
*Model_Space
 70
0
 10
0.0
 20
0.0
 30
0.0
  3
*Model_Space
  1

  0
ENDBLK
  5
19
330
17
100
AcDbEntity
  8
0
100
AcDbBlockEnd
  0
BLOCK
  5
1C
330
1B
100
AcDbEntity
  8
0
100
AcDbBlockBegin
  2
*Paper_Space
 70
0
 10
0.0
 20
0.0
 30
0.0
  3
*Paper_Space
  1

  0
ENDBLK
  5
1D
330
1B
100
AcDbEntity
  8
0
100
AcDbBlockEnd
  0
ENDSEC
  0
SECTION
  2
ENTITIES
  0
LINE
  5
30
330
17
100
AcDbEntity
  8
side-a_1
100
AcDbLine
 10
20.75
 20
2.7500000000001137
 30
0.0
 11
20.75
 21
0.0
 31
0.0
  0
LINE
  5
31
330
17
100
AcDbEntity
  8
side-a_1
100
AcDbLine
 10
20.75
 20
2.7500000000001137
 30
0.0
 11
26.75
 21
2.7500000000001137
 31
0.0
  0
LINE
  5
32
330
17
100
AcDbEntity
  8
side-a_1
100
AcDbLine
 10
26.75
 20
2.7500000000001137
 30
0.0
 11
26.75
 21
0.0
 31
0.0
  0
LINE
  5
33
330
17
100
AcDbEntity
  8
side-a_1
100
AcDbLine
 10
32.75
 20
0.0
 30
0.0
 11
26.75
 21
0.0
 31
0.0
  0
LINE
  5
34
330
17
100
AcDbEntity
  8
side-a_1
100
AcDbLine
 10
32.75
 20
122.75000000000011
 30
0.0
 11
32.75
 21
0.0
 31
0.0
  0
LINE
  5
35
330
17
100
AcDbEntity
  8
side-a_1
100
AcDbLine
 10
32.75
 20
122.75000000000011
 30
0.0
 11
26.75
 21
122.75000000000011
 31
0.0
  0
LINE
  5
36
330
17
100
AcDbEntity
  8
side-a_1
100
AcDbLine
 10
26.75
 20
122.75000000000011
 30
0.0
 11
26.75
 21
125.50000000000011
 31
0.0
  0
LINE
  5
37
330
17
100
AcDbEntity
  8
side-a_1
100
AcDbLine
 10
26.75
 20
125.50000000000011
 30
0.0
 11
20.75
 21
125.50000000000011
 31
0.0
  0
LINE
  5
38
330
17
100
AcDbEntity
  8
side-a_1
100
AcDbLine
 10
20.75
 20
122.75000000000011
 30
0.0
 11
20.75
 21
125.50000000000011
 31
0.0
  0
LINE
  5
39
330
17
100
AcDbEntity
  8
side-a_1
100
AcDbLine
 10
20.75
 20
122.75000000000011
 30
0.0
 11
14.75
 21
122.75000000000011
 31
0.0
  0
LINE
  5
3A
330
17
100
AcDbEntity
  8
side-a_1
100
AcDbLine
 10
14.75
 20
122.75000000000011
 30
0.0
 11
14.75
 21
125.50000000000011
 31
0.0
  0
LINE
  5
3B
330
17
100
AcDbEntity
  8
side-a_1
100
AcDbLine
 10
14.75
 20
125.50000000000011
 30
0.0
 11
8.750000000000002
 21
125.50000000000011
 31
0.0
  0
LINE
  5
3C
330
17
100
AcDbEntity
  8
side-a_1
100
AcDbLine
 10
8.750000000000002
 20
122.75000000000011
 30
0.0
 11
8.750000000000002
 21
125.50000000000011
 31
0.0
  0
LINE
  5
3D
330
17
100
AcDbEntity
  8
side-a_1
100
AcDbLine
 10
8.750000000000002
 20
122.75000000000011
 30
0.0
 11
2.749999999999999
 21
122.75000000000011
 31
0.0
  0
LINE
  5
3E
330
17
100
AcDbEntity
  8
side-a_1
100
AcDbLine
 10
2.749999999999999
 20
115.8461538461539
 30
0.0
 11
2.749999999999999
 21
122.75000000000011
 31
0.0
  0
LINE
  5
3F
330
17
100
AcDbEntity
  8
side-a_1
100
AcDbLine
 10
0.0
 20
115.8461538461539
 30
0.0
 11
2.749999999999999
 21
115.8461538461539
 31
0.0
  0
LINE
  5
40
330
17
100
AcDbEntity
  8
side-a_1
100
AcDbLine
 10
0.0
 20
115.8461538461539
 30
0.0
 11
0.0
 21
106.19230769230779
 31
0.0
  0
LINE
  5
41
330
17
100
AcDbEntity
  8
side-a_1
100
AcDbLine
 10
0.0
 20
106.19230769230779
 30
0.0
 11
2.749999999999999
 21
106.19230769230779
 31
0.0
  0
LINE
  5
42
330
17
100
AcDbEntity
  8
side-a_1
100
AcDbLine
 10
2.749999999999999
 20
96.5384615384616
 30
0.0
 11
2.749999999999999
 21
106.19230769230779
 31
0.0
  0
LINE
  5
43
330
17
100
AcDbEntity
  8
side-a_1
100
AcDbLine
 10
0.0
 20
96.5384615384616
 30
0.0
 11
2.749999999999999
 21
96.5384615384616
 31
0.0
  0
LINE
  5
44
330
17
100
AcDbEntity
  8
side-a_1
100
AcDbLine
 10
0.0
 20
96.5384615384616
 30
0.0
 11
0.0
 21
86.88461538461539
 31
0.0
  0
LINE
  5
45
330
17
100
AcDbEntity
  8
side-a_1
100
AcDbLine
 10
0.0
 20
86.88461538461539
 30
0.0
 11
2.749999999999999
 21
86.88461538461539
 31
0.0
  0
LINE
  5
46
330
17
100
AcDbEntity
  8
side-a_1
100
AcDbLine
 10
2.749999999999999
 20
77.23076923076931
 30
0.0
 11
2.749999999999999
 21
86.88461538461539
 31
0.0
  0
LINE
  5
47
330
17
100
AcDbEntity
  8
side-a_1
100
AcDbLine
 10
0.0
 20
77.23076923076931
 30
0.0
 11
2.749999999999999
 21
77.23076923076931
 31
0.0
  0
LINE
  5
48
330
17
100
AcDbEntity
  8
side-a_1
100
AcDbLine
 10
0.0
 20
77.23076923076931
 30
0.0
 11
0.0
 21
67.57692307692321
 31
0.0
  0
LINE
  5
49
330
17
100
AcDbEntity
  8
side-a_1
100
AcDbLine
 10
0.0
 20
67.57692307692321
 30
0.0
 11
2.749999999999999
 21
67.57692307692321
 31
0.0
  0
LINE
  5
4A
330
17
100
AcDbEntity
  8
side-a_1
100
AcDbLine
 10
2.749999999999999
 20
57.92307692307699
 30
0.0
 11
2.749999999999999
 21
67.57692307692321
 31
0.0
  0
LINE
  5
4B
330
17
100
AcDbEntity
  8
side-a_1
100
AcDbLine
 10
0.0
 20
57.92307692307699
 30
0.0
 11
2.749999999999999
 21
57.92307692307699
 31
0.0
  0
LINE
  5
4C
330
17
100
AcDbEntity
  8
side-a_1
100
AcDbLine
 10
0.0
 20
57.92307692307699
 30
0.0
 11
0.0
 21
48.2692307692308
 31
0.0
  0
LINE
  5
4D
330
17
100
AcDbEntity
  8
side-a_1
100
AcDbLine
 10
0.0
 20
48.2692307692308
 30
0.0
 11
2.749999999999999
 21
48.2692307692308
 31
0.0
  0
LINE
  5
4E
330
17
100
AcDbEntity
  8
side-a_1
100
AcDbLine
 10
2.749999999999999
 20
38.6153846153847
 30
0.0
 11
2.749999999999999
 21
48.2692307692308
 31
0.0
  0
LINE
  5
4F
330
17
100
AcDbEntity
  8
side-a_1
100
AcDbLine
 10
0.0
 20
38.6153846153847
 30
0.0
 11
2.749999999999999
 21
38.6153846153847
 31
0.0
  0
LINE
  5
50
330
17
100
AcDbEntity
  8
side-a_1
100
AcDbLine
 10
0.0
 20
38.6153846153847
 30
0.0
 11
0.0
 21
28.96153846153851
 31
0.0
  0
LINE
  5
51
330
17
100
AcDbEntity
  8
side-a_1
100
AcDbLine
 10
0.0
 20
28.96153846153851
 30
0.0
 11
2.749999999999999
 21
28.96153846153851
 31
0.0
  0
LINE
  5
52
330
17
100
AcDbEntity
  8
side-a_1
100
AcDbLine
 10
2.749999999999999
 20
19.307692307692292
 30
0.0
 11
2.749999999999999
 21
28.96153846153851
 31
0.0
  0
LINE
  5
53
330
17
100
AcDbEntity
  8
side-a_1
100
AcDbLine
 10
0.0
 20
19.307692307692292
 30
0.0
 11
2.749999999999999
 21
19.307692307692292
 31
0.0
  0
LINE
  5
54
330
17
100
AcDbEntity
  8
side-a_1
100
AcDbLine
 10
0.0
 20
19.307692307692292
 30
0.0
 11
0.0
 21
9.653846153846189
 31
0.0
  0
LINE
  5
55
330
17
100
AcDbEntity
  8
side-a_1
100
AcDbLine
 10
0.0
 20
9.653846153846189
 30
0.0
 11
2.749999999999999
 21
9.653846153846189
 31
0.0
  0
LINE
  5
56
330
17
100
AcDbEntity
  8
side-a_1
100
AcDbLine
 10
2.749999999999999
 20
0.0
 30
0.0
 11
2.749999999999999
 21
9.653846153846189
 31
0.0
  0
LINE
  5
57
330
17
100
AcDbEntity
  8
side-a_1
100
AcDbLine
 10
8.75
 20
0.0
 30
0.0
 11
2.749999999999999
 21
0.0
 31
0.0
  0
LINE
  5
58
330
17
100
AcDbEntity
  8
side-a_1
100
AcDbLine
 10
8.75
 20
2.7500000000001137
 30
0.0
 11
8.75
 21
0.0
 31
0.0
  0
LINE
  5
59
330
17
100
AcDbEntity
  8
side-a_1
100
AcDbLine
 10
8.75
 20
2.7500000000001137
 30
0.0
 11
14.75
 21
2.7500000000001137
 31
0.0
  0
LINE
  5
5A
330
17
100
AcDbEntity
  8
side-a_1
100
AcDbLine
 10
14.75
 20
2.7500000000001137
 30
0.0
 11
14.75
 21
0.0
 31
0.0
  0
LINE
  5
5B
330
17
100
AcDbEntity
  8
side-a_1
100
AcDbLine
 10
20.75
 20
0.0
 30
0.0
 11
14.75
 21
0.0
 31
0.0
  0
LINE
  5
5D
330
17
100
AcDbEntity
  8
side-a_2
100
AcDbLine
 10
20.75
 20
128.25000000000023
 30
0.0
 11
20.75
 21
125.50000000000011
 31
0.0
  0
LINE
  5
5E
330
17
100
AcDbEntity
  8
side-a_2
100
AcDbLine
 10
20.75
 20
128.25000000000023
 30
0.0
 11
26.75
 21
128.25000000000023
 31
0.0
  0
LINE
  5
5F
330
17
100
AcDbEntity
  8
side-a_2
100
AcDbLine
 10
26.75
 20
128.25000000000023
 30
0.0
 11
26.75
 21
125.50000000000011
 31
0.0
  0
LINE
  5
60
330
17
100
AcDbEntity
  8
side-a_2
100
AcDbLine
 10
32.75
 20
125.50000000000011
 30
0.0
 11
26.75
 21
125.50000000000011
 31
0.0
  0
LINE
  5
61
330
17
100
AcDbEntity
  8
side-a_2
100
AcDbLine
 10
32.75
 20
248.25000000000023
 30
0.0
 11
32.75
 21
125.50000000000011
 31
0.0
  0
LINE
  5
62
330
17
100
AcDbEntity
  8
side-a_2
100
AcDbLine
 10
32.75
 20
248.25000000000023
 30
0.0
 11
26.75
 21
248.25000000000023
 31
0.0
  0
LINE
  5
63
330
17
100
AcDbEntity
  8
side-a_2
100
AcDbLine
 10
26.75
 20
248.25000000000023
 30
0.0
 11
26.75
 21
251.00000000000023
 31
0.0
  0
LINE
  5
64
330
17
100
AcDbEntity
  8
side-a_2
100
AcDbLine
 10
26.75
 20
251.00000000000023
 30
0.0
 11
20.75
 21
251.00000000000023
 31
0.0
  0
LINE
  5
65
330
17
100
AcDbEntity
  8
side-a_2
100
AcDbLine
 10
20.75
 20
248.25000000000023
 30
0.0
 11
20.75
 21
251.00000000000023
 31
0.0
  0
LINE
  5
66
330
17
100
AcDbEntity
  8
side-a_2
100
AcDbLine
 10
20.75
 20
248.25000000000023
 30
0.0
 11
14.75
 21
248.25000000000023
 31
0.0
  0
LINE
  5
67
330
17
100
AcDbEntity
  8
side-a_2
100
AcDbLine
 10
14.75
 20
248.25000000000023
 30
0.0
 11
14.75
 21
251.00000000000023
 31
0.0
  0
LINE
  5
68
330
17
100
AcDbEntity
  8
side-a_2
100
AcDbLine
 10
14.75
 20
251.00000000000023
 30
0.0
 11
8.750000000000002
 21
251.00000000000023
 31
0.0
  0
LINE
  5
69
330
17
100
AcDbEntity
  8
side-a_2
100
AcDbLine
 10
8.750000000000002
 20
248.25000000000023
 30
0.0
 11
8.750000000000002
 21
251.00000000000023
 31
0.0
  0
LINE
  5
6A
330
17
100
AcDbEntity
  8
side-a_2
100
AcDbLine
 10
8.750000000000002
 20
248.25000000000023
 30
0.0
 11
2.749999999999999
 21
248.25000000000023
 31
0.0
  0
LINE
  5
6B
330
17
100
AcDbEntity
  8
side-a_2
100
AcDbLine
 10
2.749999999999999
 20
241.346153846154
 30
0.0
 11
2.749999999999999
 21
248.25000000000023
 31
0.0
  0
LINE
  5
6C
330
17
100
AcDbEntity
  8
side-a_2
100
AcDbLine
 10
0.0
 20
241.346153846154
 30
0.0
 11
2.749999999999999
 21
241.346153846154
 31
0.0
  0
LINE
  5
6D
330
17
100
AcDbEntity
  8
side-a_2
100
AcDbLine
 10
0.0
 20
241.346153846154
 30
0.0
 11
0.0
 21
231.6923076923079
 31
0.0
  0
LINE
  5
6E
330
17
100
AcDbEntity
  8
side-a_2
100
AcDbLine
 10
0.0
 20
231.6923076923079
 30
0.0
 11
2.749999999999999
 21
231.6923076923079
 31
0.0
  0
LINE
  5
6F
330
17
100
AcDbEntity
  8
side-a_2
100
AcDbLine
 10
2.749999999999999
 20
222.03846153846172
 30
0.0
 11
2.749999999999999
 21
231.6923076923079
 31
0.0
  0
LINE
  5
70
330
17
100
AcDbEntity
  8
side-a_2
100
AcDbLine
 10
0.0
 20
222.03846153846172
 30
0.0
 11
2.749999999999999
 21
222.03846153846172
 31
0.0
  0
LINE
  5
71
330
17
100
AcDbEntity
  8
side-a_2
100
AcDbLine
 10
0.0
 20
222.03846153846172
 30
0.0
 11
0.0
 21
212.3846153846155
 31
0.0
  0
LINE
  5
72
330
17
100
AcDbEntity
  8
side-a_2
100
AcDbLine
 10
0.0
 20
212.3846153846155
 30
0.0
 11
2.749999999999999
 21
212.3846153846155
 31
0.0
  0
LINE
  5
73
330
17
100
AcDbEntity
  8
side-a_2
100
AcDbLine
 10
2.749999999999999
 20
202.73076923076943
 30
0.0
 11
2.749999999999999
 21
212.3846153846155
 31
0.0
  0
LINE
  5
74
330
17
100
AcDbEntity
  8
side-a_2
100
AcDbLine
 10
0.0
 20
202.73076923076943
 30
0.0
 11
2.749999999999999
 21
202.73076923076943
 31
0.0
  0
LINE
  5
75
330
17
100
AcDbEntity
  8
side-a_2
100
AcDbLine
 10
0.0
 20
202.73076923076943
 30
0.0
 11
0.0
 21
193.07692307692332
 31
0.0
  0
LINE
  5
76
330
17
100
AcDbEntity
  8
side-a_2
100
AcDbLine
 10
0.0
 20
193.07692307692332
 30
0.0
 11
2.749999999999999
 21
193.07692307692332
 31
0.0
  0
LINE
  5
77
330
17
100
AcDbEntity
  8
side-a_2
100
AcDbLine
 10
2.749999999999999
 20
183.4230769230771
 30
0.0
 11
2.749999999999999
 21
193.07692307692332
 31
0.0
  0
LINE
  5
78
330
17
100
AcDbEntity
  8
side-a_2
100
AcDbLine
 10
0.0
 20
183.4230769230771
 30
0.0
 11
2.749999999999999
 21
183.4230769230771
 31
0.0
  0
LINE
  5
79
330
17
100
AcDbEntity
  8
side-a_2
100
AcDbLine
 10
0.0
 20
183.4230769230771
 30
0.0
 11
0.0
 21
173.76923076923092
 31
0.0
  0
LINE
  5
7A
330
17
100
AcDbEntity
  8
side-a_2
100
AcDbLine
 10
0.0
 20
173.76923076923092
 30
0.0
 11
2.749999999999999
 21
173.76923076923092
 31
0.0
  0
LINE
  5
7B
330
17
100
AcDbEntity
  8
side-a_2
100
AcDbLine
 10
2.749999999999999
 20
164.1153846153848
 30
0.0
 11
2.749999999999999
 21
173.76923076923092
 31
0.0
  0
LINE
  5
7C
330
17
100
AcDbEntity
  8
side-a_2
100
AcDbLine
 10
0.0
 20
164.1153846153848
 30
0.0
 11
2.749999999999999
 21
164.1153846153848
 31
0.0
  0
LINE
  5
7D
330
17
100
AcDbEntity
  8
side-a_2
100
AcDbLine
 10
0.0
 20
164.1153846153848
 30
0.0
 11
0.0
 21
154.46153846153862
 31
0.0
  0
LINE
  5
7E
330
17
100
AcDbEntity
  8
side-a_2
100
AcDbLine
 10
0.0
 20
154.46153846153862
 30
0.0
 11
2.749999999999999
 21
154.46153846153862
 31
0.0
  0
LINE
  5
7F
330
17
100
AcDbEntity
  8
side-a_2
100
AcDbLine
 10
2.749999999999999
 20
144.8076923076924
 30
0.0
 11
2.749999999999999
 21
154.46153846153862
 31
0.0
  0
LINE
  5
80
330
17
100
AcDbEntity
  8
side-a_2
100
AcDbLine
 10
0.0
 20
144.8076923076924
 30
0.0
 11
2.749999999999999
 21
144.8076923076924
 31
0.0
  0
LINE
  5
81
330
17
100
AcDbEntity
  8
side-a_2
100
AcDbLine
 10
0.0
 20
144.8076923076924
 30
0.0
 11
0.0
 21
135.1538461538463
 31
0.0
  0
LINE
  5
82
330
17
100
AcDbEntity
  8
side-a_2
100
AcDbLine
 10
0.0
 20
135.1538461538463
 30
0.0
 11
2.749999999999999
 21
135.1538461538463
 31
0.0
  0
LINE
  5
83
330
17
100
AcDbEntity
  8
side-a_2
100
AcDbLine
 10
2.749999999999999
 20
125.50000000000011
 30
0.0
 11
2.749999999999999
 21
135.1538461538463
 31
0.0
  0
LINE
  5
84
330
17
100
AcDbEntity
  8
side-a_2
100
AcDbLine
 10
8.75
 20
125.50000000000011
 30
0.0
 11
2.749999999999999
 21
125.50000000000011
 31
0.0
  0
LINE
  5
85
330
17
100
AcDbEntity
  8
side-a_2
100
AcDbLine
 10
8.75
 20
128.25000000000023
 30
0.0
 11
8.75
 21
125.50000000000011
 31
0.0
  0
LINE
  5
86
330
17
100
AcDbEntity
  8
side-a_2
100
AcDbLine
 10
8.75
 20
128.25000000000023
 30
0.0
 11
14.75
 21
128.25000000000023
 31
0.0
  0
LINE
  5
87
330
17
100
AcDbEntity
  8
side-a_2
100
AcDbLine
 10
14.75
 20
128.25000000000023
 30
0.0
 11
14.75
 21
125.50000000000011
 31
0.0
  0
LINE
  5
88
330
17
100
AcDbEntity
  8
side-a_2
100
AcDbLine
 10
20.75
 20
125.50000000000011
 30
0.0
 11
14.75
 21
125.50000000000011
 31
0.0
  0
LINE
  5
8A
330
17
100
AcDbEntity
  8
side-a_3
100
AcDbLine
 10
53.5
 20
2.7500000000001137
 30
0.0
 11
53.5
 21
0.0
 31
0.0
  0
LINE
  5
8B
330
17
100
AcDbEntity
  8
side-a_3
100
AcDbLine
 10
53.5
 20
2.7500000000001137
 30
0.0
 11
59.5
 21
2.7500000000001137
 31
0.0
  0
LINE
  5
8C
330
17
100
AcDbEntity
  8
side-a_3
100
AcDbLine
 10
59.5
 20
2.7500000000001137
 30
0.0
 11
59.5
 21
0.0
 31
0.0
  0
LINE
  5
8D
330
17
100
AcDbEntity
  8
side-a_3
100
AcDbLine
 10
65.5
 20
0.0
 30
0.0
 11
59.5
 21
0.0
 31
0.0
  0
LINE
  5
8E
330
17
100
AcDbEntity
  8
side-a_3
100
AcDbLine
 10
65.5
 20
122.75000000000011
 30
0.0
 11
65.5
 21
0.0
 31
0.0
  0
LINE
  5
8F
330
17
100
AcDbEntity
  8
side-a_3
100
AcDbLine
 10
65.5
 20
122.75000000000011
 30
0.0
 11
59.5
 21
122.75000000000011
 31
0.0
  0
LINE
  5
90
330
17
100
AcDbEntity
  8
side-a_3
100
AcDbLine
 10
59.5
 20
122.75000000000011
 30
0.0
 11
59.5
 21
125.50000000000011
 31
0.0
  0
LINE
  5
91
330
17
100
AcDbEntity
  8
side-a_3
100
AcDbLine
 10
59.5
 20
125.50000000000011
 30
0.0
 11
53.5
 21
125.50000000000011
 31
0.0
  0
LINE
  5
92
330
17
100
AcDbEntity
  8
side-a_3
100
AcDbLine
 10
53.5
 20
122.75000000000011
 30
0.0
 11
53.5
 21
125.50000000000011
 31
0.0
  0
LINE
  5
93
330
17
100
AcDbEntity
  8
side-a_3
100
AcDbLine
 10
53.5
 20
122.75000000000011
 30
0.0
 11
47.5
 21
122.75000000000011
 31
0.0
  0
LINE
  5
94
330
17
100
AcDbEntity
  8
side-a_3
100
AcDbLine
 10
47.5
 20
122.75000000000011
 30
0.0
 11
47.5
 21
125.50000000000011
 31
0.0
  0
LINE
  5
95
330
17
100
AcDbEntity
  8
side-a_3
100
AcDbLine
 10
47.5
 20
125.50000000000011
 30
0.0
 11
41.5
 21
125.50000000000011
 31
0.0
  0
LINE
  5
96
330
17
100
AcDbEntity
  8
side-a_3
100
AcDbLine
 10
41.5
 20
122.75000000000011
 30
0.0
 11
41.5
 21
125.50000000000011
 31
0.0
  0
LINE
  5
97
330
17
100
AcDbEntity
  8
side-a_3
100
AcDbLine
 10
41.5
 20
122.75000000000011
 30
0.0
 11
35.5
 21
122.75000000000011
 31
0.0
  0
LINE
  5
98
330
17
100
AcDbEntity
  8
side-a_3
100
AcDbLine
 10
35.5
 20
115.8461538461539
 30
0.0
 11
35.5
 21
122.75000000000011
 31
0.0
  0
LINE
  5
99
330
17
100
AcDbEntity
  8
side-a_3
100
AcDbLine
 10
32.75
 20
115.8461538461539
 30
0.0
 11
35.5
 21
115.8461538461539
 31
0.0
  0
LINE
  5
9A
330
17
100
AcDbEntity
  8
side-a_3
100
AcDbLine
 10
32.75
 20
115.8461538461539
 30
0.0
 11
32.75
 21
106.19230769230779
 31
0.0
  0
LINE
  5
9B
330
17
100
AcDbEntity
  8
side-a_3
100
AcDbLine
 10
32.75
 20
106.19230769230779
 30
0.0
 11
35.5
 21
106.19230769230779
 31
0.0
  0
LINE
  5
9C
330
17
100
AcDbEntity
  8
side-a_3
100
AcDbLine
 10
35.5
 20
96.5384615384616
 30
0.0
 11
35.5
 21
106.19230769230779
 31
0.0
  0
LINE
  5
9D
330
17
100
AcDbEntity
  8
side-a_3
100
AcDbLine
 10
32.75
 20
96.5384615384616
 30
0.0
 11
35.5
 21
96.5384615384616
 31
0.0
  0
LINE
  5
9E
330
17
100
AcDbEntity
  8
side-a_3
100
AcDbLine
 10
32.75
 20
96.5384615384616
 30
0.0
 11
32.75
 21
86.88461538461539
 31
0.0
  0
LINE
  5
9F
330
17
100
AcDbEntity
  8
side-a_3
100
AcDbLine
 10
32.75
 20
86.88461538461539
 30
0.0
 11
35.5
 21
86.88461538461539
 31
0.0
  0
LINE
  5
A0
330
17
100
AcDbEntity
  8
side-a_3
100
AcDbLine
 10
35.5
 20
77.23076923076931
 30
0.0
 11
35.5
 21
86.88461538461539
 31
0.0
  0
LINE
  5
A1
330
17
100
AcDbEntity
  8
side-a_3
100
AcDbLine
 10
32.75
 20
77.23076923076931
 30
0.0
 11
35.5
 21
77.23076923076931
 31
0.0
  0
LINE
  5
A2
330
17
100
AcDbEntity
  8
side-a_3
100
AcDbLine
 10
32.75
 20
77.23076923076931
 30
0.0
 11
32.75
 21
67.57692307692321
 31
0.0
  0
LINE
  5
A3
330
17
100
AcDbEntity
  8
side-a_3
100
AcDbLine
 10
32.75
 20
67.57692307692321
 30
0.0
 11
35.5
 21
67.57692307692321
 31
0.0
  0
LINE
  5
A4
330
17
100
AcDbEntity
  8
side-a_3
100
AcDbLine
 10
35.5
 20
57.92307692307699
 30
0.0
 11
35.5
 21
67.57692307692321
 31
0.0
  0
LINE
  5
A5
330
17
100
AcDbEntity
  8
side-a_3
100
AcDbLine
 10
32.75
 20
57.92307692307699
 30
0.0
 11
35.5
 21
57.92307692307699
 31
0.0
  0
LINE
  5
A6
330
17
100
AcDbEntity
  8
side-a_3
100
AcDbLine
 10
32.75
 20
57.92307692307699
 30
0.0
 11
32.75
 21
48.2692307692308
 31
0.0
  0
LINE
  5
A7
330
17
100
AcDbEntity
  8
side-a_3
100
AcDbLine
 10
32.75
 20
48.2692307692308
 30
0.0
 11
35.5
 21
48.2692307692308
 31
0.0
  0
LINE
  5
A8
330
17
100
AcDbEntity
  8
side-a_3
100
AcDbLine
 10
35.5
 20
38.6153846153847
 30
0.0
 11
35.5
 21
48.2692307692308
 31
0.0
  0
LINE
  5
A9
330
17
100
AcDbEntity
  8
side-a_3
100
AcDbLine
 10
32.75
 20
38.6153846153847
 30
0.0
 11
35.5
 21
38.6153846153847
 31
0.0
  0
LINE
  5
AA
330
17
100
AcDbEntity
  8
side-a_3
100
AcDbLine
 10
32.75
 20
38.6153846153847
 30
0.0
 11
32.75
 21
28.96153846153851
 31
0.0
  0
LINE
  5
AB
330
17
100
AcDbEntity
  8
side-a_3
100
AcDbLine
 10
32.75
 20
28.96153846153851
 30
0.0
 11
35.5
 21
28.96153846153851
 31
0.0
  0
LINE
  5
AC
330
17
100
AcDbEntity
  8
side-a_3
100
AcDbLine
 10
35.5
 20
19.307692307692292
 30
0.0
 11
35.5
 21
28.96153846153851
 31
0.0
  0
LINE
  5
AD
330
17
100
AcDbEntity
  8
side-a_3
100
AcDbLine
 10
32.75
 20
19.307692307692292
 30
0.0
 11
35.5
 21
19.307692307692292
 31
0.0
  0
LINE
  5
AE
330
17
100
AcDbEntity
  8
side-a_3
100
AcDbLine
 10
32.75
 20
19.307692307692292
 30
0.0
 11
32.75
 21
9.653846153846189
 31
0.0
  0
LINE
  5
AF
330
17
100
AcDbEntity
  8
side-a_3
100
AcDbLine
 10
32.75
 20
9.653846153846189
 30
0.0
 11
35.5
 21
9.653846153846189
 31
0.0
  0
LINE
  5
B0
330
17
100
AcDbEntity
  8
side-a_3
100
AcDbLine
 10
35.5
 20
0.0
 30
0.0
 11
35.5
 21
9.653846153846189
 31
0.0
  0
LINE
  5
B1
330
17
100
AcDbEntity
  8
side-a_3
100
AcDbLine
 10
41.5
 20
0.0
 30
0.0
 11
35.5
 21
0.0
 31
0.0
  0
LINE
  5
B2
330
17
100
AcDbEntity
  8
side-a_3
100
AcDbLine
 10
41.5
 20
2.7500000000001137
 30
0.0
 11
41.5
 21
0.0
 31
0.0
  0
LINE
  5
B3
330
17
100
AcDbEntity
  8
side-a_3
100
AcDbLine
 10
41.5
 20
2.7500000000001137
 30
0.0
 11
47.5
 21
2.7500000000001137
 31
0.0
  0
LINE
  5
B4
330
17
100
AcDbEntity
  8
side-a_3
100
AcDbLine
 10
47.5
 20
2.7500000000001137
 30
0.0
 11
47.5
 21
0.0
 31
0.0
  0
LINE
  5
B5
330
17
100
AcDbEntity
  8
side-a_3
100
AcDbLine
 10
53.5
 20
0.0
 30
0.0
 11
47.5
 21
0.0
 31
0.0
  0
LINE
  5
B7
330
17
100
AcDbEntity
  8
side-a_4
100
AcDbLine
 10
53.5
 20
128.25000000000023
 30
0.0
 11
53.5
 21
125.50000000000011
 31
0.0
  0
LINE
  5
B8
330
17
100
AcDbEntity
  8
side-a_4
100
AcDbLine
 10
53.5
 20
128.25000000000023
 30
0.0
 11
59.5
 21
128.25000000000023
 31
0.0
  0
LINE
  5
B9
330
17
100
AcDbEntity
  8
side-a_4
100
AcDbLine
 10
59.5
 20
128.25000000000023
 30
0.0
 11
59.5
 21
125.50000000000011
 31
0.0
  0
LINE
  5
BA
330
17
100
AcDbEntity
  8
side-a_4
100
AcDbLine
 10
65.5
 20
125.50000000000011
 30
0.0
 11
59.5
 21
125.50000000000011
 31
0.0
  0
LINE
  5
BB
330
17
100
AcDbEntity
  8
side-a_4
100
AcDbLine
 10
65.5
 20
248.25000000000023
 30
0.0
 11
65.5
 21
125.50000000000011
 31
0.0
  0
LINE
  5
BC
330
17
100
AcDbEntity
  8
side-a_4
100
AcDbLine
 10
65.5
 20
248.25000000000023
 30
0.0
 11
59.5
 21
248.25000000000023
 31
0.0
  0
LINE
  5
BD
330
17
100
AcDbEntity
  8
side-a_4
100
AcDbLine
 10
59.5
 20
248.25000000000023
 30
0.0
 11
59.5
 21
251.00000000000023
 31
0.0
  0
LINE
  5
BE
330
17
100
AcDbEntity
  8
side-a_4
100
AcDbLine
 10
59.5
 20
251.00000000000023
 30
0.0
 11
53.5
 21
251.00000000000023
 31
0.0
  0
LINE
  5
BF
330
17
100
AcDbEntity
  8
side-a_4
100
AcDbLine
 10
53.5
 20
248.25000000000023
 30
0.0
 11
53.5
 21
251.00000000000023
 31
0.0
  0
LINE
  5
C0
330
17
100
AcDbEntity
  8
side-a_4
100
AcDbLine
 10
53.5
 20
248.25000000000023
 30
0.0
 11
47.5
 21
248.25000000000023
 31
0.0
  0
LINE
  5
C1
330
17
100
AcDbEntity
  8
side-a_4
100
AcDbLine
 10
47.5
 20
248.25000000000023
 30
0.0
 11
47.5
 21
251.00000000000023
 31
0.0
  0
LINE
  5
C2
330
17
100
AcDbEntity
  8
side-a_4
100
AcDbLine
 10
47.5
 20
251.00000000000023
 30
0.0
 11
41.5
 21
251.00000000000023
 31
0.0
  0
LINE
  5
C3
330
17
100
AcDbEntity
  8
side-a_4
100
AcDbLine
 10
41.5
 20
248.25000000000023
 30
0.0
 11
41.5
 21
251.00000000000023
 31
0.0
  0
LINE
  5
C4
330
17
100
AcDbEntity
  8
side-a_4
100
AcDbLine
 10
41.5
 20
248.25000000000023
 30
0.0
 11
35.5
 21
248.25000000000023
 31
0.0
  0
LINE
  5
C5
330
17
100
AcDbEntity
  8
side-a_4
100
AcDbLine
 10
35.5
 20
241.346153846154
 30
0.0
 11
35.5
 21
248.25000000000023
 31
0.0
  0
LINE
  5
C6
330
17
100
AcDbEntity
  8
side-a_4
100
AcDbLine
 10
32.75
 20
241.346153846154
 30
0.0
 11
35.5
 21
241.346153846154
 31
0.0
  0
LINE
  5
C7
330
17
100
AcDbEntity
  8
side-a_4
100
AcDbLine
 10
32.75
 20
241.346153846154
 30
0.0
 11
32.75
 21
231.6923076923079
 31
0.0
  0
LINE
  5
C8
330
17
100
AcDbEntity
  8
side-a_4
100
AcDbLine
 10
32.75
 20
231.6923076923079
 30
0.0
 11
35.5
 21
231.6923076923079
 31
0.0
  0
LINE
  5
C9
330
17
100
AcDbEntity
  8
side-a_4
100
AcDbLine
 10
35.5
 20
222.03846153846172
 30
0.0
 11
35.5
 21
231.6923076923079
 31
0.0
  0
LINE
  5
CA
330
17
100
AcDbEntity
  8
side-a_4
100
AcDbLine
 10
32.75
 20
222.03846153846172
 30
0.0
 11
35.5
 21
222.03846153846172
 31
0.0
  0
LINE
  5
CB
330
17
100
AcDbEntity
  8
side-a_4
100
AcDbLine
 10
32.75
 20
222.03846153846172
 30
0.0
 11
32.75
 21
212.3846153846155
 31
0.0
  0
LINE
  5
CC
330
17
100
AcDbEntity
  8
side-a_4
100
AcDbLine
 10
32.75
 20
212.3846153846155
 30
0.0
 11
35.5
 21
212.3846153846155
 31
0.0
  0
LINE
  5
CD
330
17
100
AcDbEntity
  8
side-a_4
100
AcDbLine
 10
35.5
 20
202.73076923076943
 30
0.0
 11
35.5
 21
212.3846153846155
 31
0.0
  0
LINE
  5
CE
330
17
100
AcDbEntity
  8
side-a_4
100
AcDbLine
 10
32.75
 20
202.73076923076943
 30
0.0
 11
35.5
 21
202.73076923076943
 31
0.0
  0
LINE
  5
CF
330
17
100
AcDbEntity
  8
side-a_4
100
AcDbLine
 10
32.75
 20
202.73076923076943
 30
0.0
 11
32.75
 21
193.07692307692332
 31
0.0
  0
LINE
  5
D0
330
17
100
AcDbEntity
  8
side-a_4
100
AcDbLine
 10
32.75
 20
193.07692307692332
 30
0.0
 11
35.5
 21
193.07692307692332
 31
0.0
  0
LINE
  5
D1
330
17
100
AcDbEntity
  8
side-a_4
100
AcDbLine
 10
35.5
 20
183.4230769230771
 30
0.0
 11
35.5
 21
193.07692307692332
 31
0.0
  0
LINE
  5
D2
330
17
100
AcDbEntity
  8
side-a_4
100
AcDbLine
 10
32.75
 20
183.4230769230771
 30
0.0
 11
35.5
 21
183.4230769230771
 31
0.0
  0
LINE
  5
D3
330
17
100
AcDbEntity
  8
side-a_4
100
AcDbLine
 10
32.75
 20
183.4230769230771
 30
0.0
 11
32.75
 21
173.76923076923092
 31
0.0
  0
LINE
  5
D4
330
17
100
AcDbEntity
  8
side-a_4
100
AcDbLine
 10
32.75
 20
173.76923076923092
 30
0.0
 11
35.5
 21
173.76923076923092
 31
0.0
  0
LINE
  5
D5
330
17
100
AcDbEntity
  8
side-a_4
100
AcDbLine
 10
35.5
 20
164.1153846153848
 30
0.0
 11
35.5
 21
173.76923076923092
 31
0.0
  0
LINE
  5
D6
330
17
100
AcDbEntity
  8
side-a_4
100
AcDbLine
 10
32.75
 20
164.1153846153848
 30
0.0
 11
35.5
 21
164.1153846153848
 31
0.0
  0
LINE
  5
D7
330
17
100
AcDbEntity
  8
side-a_4
100
AcDbLine
 10
32.75
 20
164.1153846153848
 30
0.0
 11
32.75
 21
154.46153846153862
 31
0.0
  0
LINE
  5
D8
330
17
100
AcDbEntity
  8
side-a_4
100
AcDbLine
 10
32.75
 20
154.46153846153862
 30
0.0
 11
35.5
 21
154.46153846153862
 31
0.0
  0
LINE
  5
D9
330
17
100
AcDbEntity
  8
side-a_4
100
AcDbLine
 10
35.5
 20
144.8076923076924
 30
0.0
 11
35.5
 21
154.46153846153862
 31
0.0
  0
LINE
  5
DA
330
17
100
AcDbEntity
  8
side-a_4
100
AcDbLine
 10
32.75
 20
144.8076923076924
 30
0.0
 11
35.5
 21
144.8076923076924
 31
0.0
  0
LINE
  5
DB
330
17
100
AcDbEntity
  8
side-a_4
100
AcDbLine
 10
32.75
 20
144.8076923076924
 30
0.0
 11
32.75
 21
135.1538461538463
 31
0.0
  0
LINE
  5
DC
330
17
100
AcDbEntity
  8
side-a_4
100
AcDbLine
 10
32.75
 20
135.1538461538463
 30
0.0
 11
35.5
 21
135.1538461538463
 31
0.0
  0
LINE
  5
DD
330
17
100
AcDbEntity
  8
side-a_4
100
AcDbLine
 10
35.5
 20
125.50000000000011
 30
0.0
 11
35.5
 21
135.1538461538463
 31
0.0
  0
LINE
  5
DE
330
17
100
AcDbEntity
  8
side-a_4
100
AcDbLine
 10
41.5
 20
125.50000000000011
 30
0.0
 11
35.5
 21
125.50000000000011
 31
0.0
  0
LINE
  5
DF
330
17
100
AcDbEntity
  8
side-a_4
100
AcDbLine
 10
41.5
 20
128.25000000000023
 30
0.0
 11
41.5
 21
125.50000000000011
 31
0.0
  0
LINE
  5
E0
330
17
100
AcDbEntity
  8
side-a_4
100
AcDbLine
 10
41.5
 20
128.25000000000023
 30
0.0
 11
47.5
 21
128.25000000000023
 31
0.0
  0
LINE
  5
E1
330
17
100
AcDbEntity
  8
side-a_4
100
AcDbLine
 10
47.5
 20
128.25000000000023
 30
0.0
 11
47.5
 21
125.50000000000011
 31
0.0
  0
LINE
  5
E2
330
17
100
AcDbEntity
  8
side-a_4
100
AcDbLine
 10
53.5
 20
125.50000000000011
 30
0.0
 11
47.5
 21
125.50000000000011
 31
0.0
  0
LINE
  5
E4
330
17
100
AcDbEntity
  8
side-a_5
100
AcDbLine
 10
71.32999999999998
 20
20.75
 30
0.0
 11
74.0800000000001
 21
20.75
 31
0.0
  0
LINE
  5
E5
330
17
100
AcDbEntity
  8
side-a_5
100
AcDbLine
 10
71.32999999999998
 20
20.75
 30
0.0
 11
71.32999999999998
 21
26.75
 31
0.0
  0
LINE
  5
E6
330
17
100
AcDbEntity
  8
side-a_5
100
AcDbLine
 10
71.32999999999998
 20
26.75
 30
0.0
 11
74.0800000000001
 21
26.75
 31
0.0
  0
LINE
  5
E7
330
17
100
AcDbEntity
  8
side-a_5
100
AcDbLine
 10
74.0800000000001
 20
32.75
 30
0.0
 11
74.0800000000001
 21
26.75
 31
0.0
  0
LINE
  5
E8
330
17
100
AcDbEntity
  8
side-a_5
100
AcDbLine
 10
-48.670000000000016
 20
32.75000000000001
 30
0.0
 11
74.0800000000001
 21
32.75
 31
0.0
  0
LINE
  5
E9
330
17
100
AcDbEntity
  8
side-a_5
100
AcDbLine
 10
-48.670000000000016
 20
32.75000000000001
 30
0.0
 11
-48.670000000000016
 21
26.750000000000007
 31
0.0
  0
LINE
  5
EA
330
17
100
AcDbEntity
  8
side-a_5
100
AcDbLine
 10
-48.670000000000016
 20
26.750000000000007
 30
0.0
 11
-51.420000000000016
 21
26.750000000000007
 31
0.0
  0
LINE
  5
EB
330
17
100
AcDbEntity
  8
side-a_5
100
AcDbLine
 10
-51.420000000000016
 20
26.750000000000007
 30
0.0
 11
-51.420000000000016
 21
20.750000000000007
 31
0.0
  0
LINE
  5
EC
330
17
100
AcDbEntity
  8
side-a_5
100
AcDbLine
 10
-48.670000000000016
 20
20.750000000000007
 30
0.0
 11
-51.420000000000016
 21
20.750000000000007
 31
0.0
  0
LINE
  5
ED
330
17
100
AcDbEntity
  8
side-a_5
100
AcDbLine
 10
-48.670000000000016
 20
20.750000000000007
 30
0.0
 11
-48.670000000000016
 21
14.750000000000007
 31
0.0
  0
LINE
  5
EE
330
17
100
AcDbEntity
  8
side-a_5
100
AcDbLine
 10
-48.670000000000016
 20
14.750000000000007
 30
0.0
 11
-51.420000000000016
 21
14.750000000000007
 31
0.0
  0
LINE
  5
EF
330
17
100
AcDbEntity
  8
side-a_5
100
AcDbLine
 10
-51.420000000000016
 20
14.750000000000007
 30
0.0
 11
-51.420000000000016
 21
8.750000000000009
 31
0.0
  0
LINE
  5
F0
330
17
100
AcDbEntity
  8
side-a_5
100
AcDbLine
 10
-48.670000000000016
 20
8.750000000000009
 30
0.0
 11
-51.420000000000016
 21
8.750000000000009
 31
0.0
  0
LINE
  5
F1
330
17
100
AcDbEntity
  8
side-a_5
100
AcDbLine
 10
-48.670000000000016
 20
8.750000000000009
 30
0.0
 11
-48.670000000000016
 21
2.7500000000000067
 31
0.0
  0
LINE
  5
F2
330
17
100
AcDbEntity
  8
side-a_5
100
AcDbLine
 10
-41.7661538461538
 20
2.750000000000006
 30
0.0
 11
-48.670000000000016
 21
2.7500000000000067
 31
0.0
  0
LINE
  5
F3
330
17
100
AcDbEntity
  8
side-a_5
100
AcDbLine
 10
-41.7661538461538
 20
7.0935310750612106e-15
 30
0.0
 11
-41.7661538461538
 21
2.750000000000006
 31
0.0
  0
LINE
  5
F4
330
17
100
AcDbEntity
  8
side-a_5
100
AcDbLine
 10
-41.7661538461538
 20
7.0935310750612106e-15
 30
0.0
 11
-32.112307692307695
 21
6.5024034854727796e-15
 31
0.0
  0
LINE
  5
F5
330
17
100
AcDbEntity
  8
side-a_5
100
AcDbLine
 10
-32.112307692307695
 20
6.5024034854727796e-15
 30
0.0
 11
-32.112307692307695
 21
2.7500000000000058
 31
0.0
  0
LINE
  5
F6
330
17
100
AcDbEntity
  8
side-a_5
100
AcDbLine
 10
-22.458461538461506
 20
2.750000000000005
 30
0.0
 11
-32.112307692307695
 21
2.7500000000000058
 31
0.0
  0
LINE
  5
F7
330
17
100
AcDbEntity
  8
side-a_5
100
AcDbLine
 10
-22.458461538461506
 20
5.911275895884344e-15
 30
0.0
 11
-22.458461538461506
 21
2.750000000000005
 31
0.0
  0
LINE
  5
F8
330
17
100
AcDbEntity
  8
side-a_5
100
AcDbLine
 10
-22.458461538461506
 20
5.911275895884344e-15
 30
0.0
 11
-12.804615384615289
 21
5.320148306295906e-15
 31
0.0
  0
LINE
  5
F9
330
17
100
AcDbEntity
  8
side-a_5
100
AcDbLine
 10
-12.804615384615289
 20
5.320148306295906e-15
 30
0.0
 11
-12.804615384615289
 21
2.7500000000000044
 31
0.0
  0
LINE
  5
FA
330
17
100
AcDbEntity
  8
side-a_5
100
AcDbLine
 10
-3.150769230769214
 20
2.750000000000004
 30
0.0
 11
-12.804615384615289
 21
2.7500000000000044
 31
0.0
  0
LINE
  5
FB
330
17
100
AcDbEntity
  8
side-a_5
100
AcDbLine
 10
-3.150769230769214
 20
4.729020716707476e-15
 30
0.0
 11
-3.150769230769214
 21
2.750000000000004
 31
0.0
  0
LINE
  5
FC
330
17
100
AcDbEntity
  8
side-a_5
100
AcDbLine
 10
-3.150769230769214
 20
4.729020716707476e-15
 30
0.0
 11
6.50307692307689
 21
4.137893127119045e-15
 31
0.0
  0
LINE
  5
FD
330
17
100
AcDbEntity
  8
side-a_5
100
AcDbLine
 10
6.50307692307689
 20
4.137893127119045e-15
 30
0.0
 11
6.50307692307689
 21
2.750000000000003
 31
0.0
  0
LINE
  5
FE
330
17
100
AcDbEntity
  8
side-a_5
100
AcDbLine
 10
16.156923076923107
 20
2.7500000000000027
 30
0.0
 11
6.50307692307689
 21
2.750000000000003
 31
0.0
  0
LINE
  5
FF
330
17
100
AcDbEntity
  8
side-a_5
100
AcDbLine
 10
16.156923076923107
 20
3.5467655375306077e-15
 30
0.0
 11
16.156923076923107
 21
2.7500000000000027
 31
0.0
  0
LINE
  5
100
330
17
100
AcDbEntity
  8
side-a_5
100
AcDbLine
 10
16.156923076923107
 20
3.5467655375306077e-15
 30
0.0
 11
25.810769230769296
 21
2.955637947942172e-15
 31
0.0
  0
LINE
  5
101
330
17
100
AcDbEntity
  8
side-a_5
100
AcDbLine
 10
25.810769230769296
 20
2.955637947942172e-15
 30
0.0
 11
25.810769230769296
 21
2.750000000000002
 31
0.0
  0
LINE
  5
102
330
17
100
AcDbEntity
  8
side-a_5
100
AcDbLine
 10
35.4646153846154
 20
2.7500000000000013
 30
0.0
 11
25.810769230769296
 21
2.750000000000002
 31
0.0
  0
LINE
  5
103
330
17
100
AcDbEntity
  8
side-a_5
100
AcDbLine
 10
35.4646153846154
 20
2.364510358353741e-15
 30
0.0
 11
35.4646153846154
 21
2.7500000000000013
 31
0.0
  0
LINE
  5
104
330
17
100
AcDbEntity
  8
side-a_5
100
AcDbLine
 10
35.4646153846154
 20
2.364510358353741e-15
 30
0.0
 11
45.11846153846159
 21
1.7733827687653048e-15
 31
0.0
  0
LINE
  5
105
330
17
100
AcDbEntity
  8
side-a_5
100
AcDbLine
 10
45.11846153846159
 20
1.7733827687653048e-15
 30
0.0
 11
45.11846153846159
 21
2.750000000000001
 31
0.0
  0
LINE
  5
106
330
17
100
AcDbEntity
  8
side-a_5
100
AcDbLine
 10
54.772307692307805
 20
2.7500000000000004
 30
0.0
 11
45.11846153846159
 21
2.750000000000001
 31
0.0
  0
LINE
  5
107
330
17
100
AcDbEntity
  8
side-a_5
100
AcDbLine
 10
54.772307692307805
 20
1.182255179176867e-15
 30
0.0
 11
54.772307692307805
 21
2.7500000000000004
 31
0.0
  0
LINE
  5
108
330
17
100
AcDbEntity
  8
side-a_5
100
AcDbLine
 10
54.772307692307805
 20
1.182255179176867e-15
 30
0.0
 11
64.42615384615391
 21
5.911275895884361e-16
 31
0.0
  0
LINE
  5
109
330
17
100
AcDbEntity
  8
side-a_5
100
AcDbLine
 10
64.42615384615391
 20
5.911275895884361e-16
 30
0.0
 11
64.42615384615391
 21
2.7499999999999996
 31
0.0
  0
LINE
  5
10A
330
17
100
AcDbEntity
  8
side-a_5
100
AcDbLine
 10
74.0800000000001
 20
2.749999999999999
 30
0.0
 11
64.42615384615391
 21
2.7499999999999996
 31
0.0
  0
LINE
  5
10B
330
17
100
AcDbEntity
  8
side-a_5
100
AcDbLine
 10
74.0800000000001
 20
8.75
 30
0.0
 11
74.0800000000001
 21
2.749999999999999
 31
0.0
  0
LINE
  5
10C
330
17
100
AcDbEntity
  8
side-a_5
100
AcDbLine
 10
71.32999999999998
 20
8.75
 30
0.0
 11
74.0800000000001
 21
8.75
 31
0.0
  0
LINE
  5
10D
330
17
100
AcDbEntity
  8
side-a_5
100
AcDbLine
 10
71.32999999999998
 20
8.75
 30
0.0
 11
71.32999999999998
 21
14.75
 31
0.0
  0
LINE
  5
10E
330
17
100
AcDbEntity
  8
side-a_5
100
AcDbLine
 10
71.32999999999998
 20
14.75
 30
0.0
 11
74.0800000000001
 21
14.75
 31
0.0
  0
LINE
  5
10F
330
17
100
AcDbEntity
  8
side-a_5
100
AcDbLine
 10
74.0800000000001
 20
20.75
 30
0.0
 11
74.0800000000001
 21
14.75
 31
0.0
  0
LINE
  5
111
330
17
100
AcDbEntity
  8
side-a_6
100
AcDbLine
 10
71.32999999999998
 20
53.5
 30
0.0
 11
74.0800000000001
 21
53.5
 31
0.0
  0
LINE
  5
112
330
17
100
AcDbEntity
  8
side-a_6
100
AcDbLine
 10
71.32999999999998
 20
53.5
 30
0.0
 11
71.32999999999998
 21
59.5
 31
0.0
  0
LINE
  5
113
330
17
100
AcDbEntity
  8
side-a_6
100
AcDbLine
 10
71.32999999999998
 20
59.5
 30
0.0
 11
74.0800000000001
 21
59.5
 31
0.0
  0
LINE
  5
114
330
17
100
AcDbEntity
  8
side-a_6
100
AcDbLine
 10
74.0800000000001
 20
65.5
 30
0.0
 11
74.0800000000001
 21
59.5
 31
0.0
  0
LINE
  5
115
330
17
100
AcDbEntity
  8
side-a_6
100
AcDbLine
 10
-48.670000000000016
 20
65.5
 30
0.0
 11
74.0800000000001
 21
65.5
 31
0.0
  0
LINE
  5
116
330
17
100
AcDbEntity
  8
side-a_6
100
AcDbLine
 10
-48.670000000000016
 20
65.5
 30
0.0
 11
-48.670000000000016
 21
59.50000000000001
 31
0.0
  0
LINE
  5
117
330
17
100
AcDbEntity
  8
side-a_6
100
AcDbLine
 10
-48.670000000000016
 20
59.50000000000001
 30
0.0
 11
-51.420000000000016
 21
59.50000000000001
 31
0.0
  0
LINE
  5
118
330
17
100
AcDbEntity
  8
side-a_6
100
AcDbLine
 10
-51.420000000000016
 20
59.50000000000001
 30
0.0
 11
-51.420000000000016
 21
53.50000000000001
 31
0.0
  0
LINE
  5
119
330
17
100
AcDbEntity
  8
side-a_6
100
AcDbLine
 10
-48.670000000000016
 20
53.50000000000001
 30
0.0
 11
-51.420000000000016
 21
53.50000000000001
 31
0.0
  0
LINE
  5
11A
330
17
100
AcDbEntity
  8
side-a_6
100
AcDbLine
 10
-48.670000000000016
 20
53.50000000000001
 30
0.0
 11
-48.670000000000016
 21
47.50000000000001
 31
0.0
  0
LINE
  5
11B
330
17
100
AcDbEntity
  8
side-a_6
100
AcDbLine
 10
-48.670000000000016
 20
47.50000000000001
 30
0.0
 11
-51.420000000000016
 21
47.50000000000001
 31
0.0
  0
LINE
  5
11C
330
17
100
AcDbEntity
  8
side-a_6
100
AcDbLine
 10
-51.420000000000016
 20
47.50000000000001
 30
0.0
 11
-51.420000000000016
 21
41.50000000000001
 31
0.0
  0
LINE
  5
11D
330
17
100
AcDbEntity
  8
side-a_6
100
AcDbLine
 10
-48.670000000000016
 20
41.50000000000001
 30
0.0
 11
-51.420000000000016
 21
41.50000000000001
 31
0.0
  0
LINE
  5
11E
330
17
100
AcDbEntity
  8
side-a_6
100
AcDbLine
 10
-48.670000000000016
 20
41.50000000000001
 30
0.0
 11
-48.670000000000016
 21
35.50000000000001
 31
0.0
  0
LINE
  5
11F
330
17
100
AcDbEntity
  8
side-a_6
100
AcDbLine
 10
-41.7661538461538
 20
35.50000000000001
 30
0.0
 11
-48.670000000000016
 21
35.50000000000001
 31
0.0
  0
LINE
  5
120
330
17
100
AcDbEntity
  8
side-a_6
100
AcDbLine
 10
-41.7661538461538
 20
32.75000000000001
 30
0.0
 11
-41.7661538461538
 21
35.50000000000001
 31
0.0
  0
LINE
  5
121
330
17
100
AcDbEntity
  8
side-a_6
100
AcDbLine
 10
-41.7661538461538
 20
32.75000000000001
 30
0.0
 11
-32.112307692307695
 21
32.75000000000001
 31
0.0
  0
LINE
  5
122
330
17
100
AcDbEntity
  8
side-a_6
100
AcDbLine
 10
-32.112307692307695
 20
32.75000000000001
 30
0.0
 11
-32.112307692307695
 21
35.50000000000001
 31
0.0
  0
LINE
  5
123
330
17
100
AcDbEntity
  8
side-a_6
100
AcDbLine
 10
-22.458461538461506
 20
35.50000000000001
 30
0.0
 11
-32.112307692307695
 21
35.50000000000001
 31
0.0
  0
LINE
  5
124
330
17
100
AcDbEntity
  8
side-a_6
100
AcDbLine
 10
-22.458461538461506
 20
32.75000000000001
 30
0.0
 11
-22.458461538461506
 21
35.50000000000001
 31
0.0
  0
LINE
  5
125
330
17
100
AcDbEntity
  8
side-a_6
100
AcDbLine
 10
-22.458461538461506
 20
32.75000000000001
 30
0.0
 11
-12.804615384615289
 21
32.75000000000001
 31
0.0
  0
LINE
  5
126
330
17
100
AcDbEntity
  8
side-a_6
100
AcDbLine
 10
-12.804615384615289
 20
32.75000000000001
 30
0.0
 11
-12.804615384615289
 21
35.50000000000001
 31
0.0
  0
LINE
  5
127
330
17
100
AcDbEntity
  8
side-a_6
100
AcDbLine
 10
-3.150769230769214
 20
35.50000000000001
 30
0.0
 11
-12.804615384615289
 21
35.50000000000001
 31
0.0
  0
LINE
  5
128
330
17
100
AcDbEntity
  8
side-a_6
100
AcDbLine
 10
-3.150769230769214
 20
32.75000000000001
 30
0.0
 11
-3.150769230769214
 21
35.50000000000001
 31
0.0
  0
LINE
  5
129
330
17
100
AcDbEntity
  8
side-a_6
100
AcDbLine
 10
-3.150769230769214
 20
32.75000000000001
 30
0.0
 11
6.50307692307689
 21
32.75000000000001
 31
0.0
  0
LINE
  5
12A
330
17
100
AcDbEntity
  8
side-a_6
100
AcDbLine
 10
6.50307692307689
 20
32.75000000000001
 30
0.0
 11
6.50307692307689
 21
35.5
 31
0.0
  0
LINE
  5
12B
330
17
100
AcDbEntity
  8
side-a_6
100
AcDbLine
 10
16.156923076923107
 20
35.5
 30
0.0
 11
6.50307692307689
 21
35.5
 31
0.0
  0
LINE
  5
12C
330
17
100
AcDbEntity
  8
side-a_6
100
AcDbLine
 10
16.156923076923107
 20
32.75
 30
0.0
 11
16.156923076923107
 21
35.5
 31
0.0
  0
LINE
  5
12D
330
17
100
AcDbEntity
  8
side-a_6
100
AcDbLine
 10
16.156923076923107
 20
32.75
 30
0.0
 11
25.810769230769296
 21
32.75
 31
0.0
  0
LINE
  5
12E
330
17
100
AcDbEntity
  8
side-a_6
100
AcDbLine
 10
25.810769230769296
 20
32.75
 30
0.0
 11
25.810769230769296
 21
35.5
 31
0.0
  0
LINE
  5
12F
330
17
100
AcDbEntity
  8
side-a_6
100
AcDbLine
 10
35.4646153846154
 20
35.5
 30
0.0
 11
25.810769230769296
 21
35.5
 31
0.0
  0
LINE
  5
130
330
17
100
AcDbEntity
  8
side-a_6
100
AcDbLine
 10
35.4646153846154
 20
32.75
 30
0.0
 11
35.4646153846154
 21
35.5
 31
0.0
  0
LINE
  5
131
330
17
100
AcDbEntity
  8
side-a_6
100
AcDbLine
 10
35.4646153846154
 20
32.75
 30
0.0
 11
45.11846153846159
 21
32.75
 31
0.0
  0
LINE
  5
132
330
17
100
AcDbEntity
  8
side-a_6
100
AcDbLine
 10
45.11846153846159
 20
32.75
 30
0.0
 11
45.11846153846159
 21
35.5
 31
0.0
  0
LINE
  5
133
330
17
100
AcDbEntity
  8
side-a_6
100
AcDbLine
 10
54.772307692307805
 20
35.5
 30
0.0
 11
45.11846153846159
 21
35.5
 31
0.0
  0
LINE
  5
134
330
17
100
AcDbEntity
  8
side-a_6
100
AcDbLine
 10
54.772307692307805
 20
32.75
 30
0.0
 11
54.772307692307805
 21
35.5
 31
0.0
  0
LINE
  5
135
330
17
100
AcDbEntity
  8
side-a_6
100
AcDbLine
 10
54.772307692307805
 20
32.75
 30
0.0
 11
64.42615384615391
 21
32.75
 31
0.0
  0
LINE
  5
136
330
17
100
AcDbEntity
  8
side-a_6
100
AcDbLine
 10
64.42615384615391
 20
32.75
 30
0.0
 11
64.42615384615391
 21
35.5
 31
0.0
  0
LINE
  5
137
330
17
100
AcDbEntity
  8
side-a_6
100
AcDbLine
 10
74.0800000000001
 20
35.5
 30
0.0
 11
64.42615384615391
 21
35.5
 31
0.0
  0
LINE
  5
138
330
17
100
AcDbEntity
  8
side-a_6
100
AcDbLine
 10
74.0800000000001
 20
41.5
 30
0.0
 11
74.0800000000001
 21
35.5
 31
0.0
  0
LINE
  5
139
330
17
100
AcDbEntity
  8
side-a_6
100
AcDbLine
 10
71.32999999999998
 20
41.5
 30
0.0
 11
74.0800000000001
 21
41.5
 31
0.0
  0
LINE
  5
13A
330
17
100
AcDbEntity
  8
side-a_6
100
AcDbLine
 10
71.32999999999998
 20
41.5
 30
0.0
 11
71.32999999999998
 21
47.5
 31
0.0
  0
LINE
  5
13B
330
17
100
AcDbEntity
  8
side-a_6
100
AcDbLine
 10
71.32999999999998
 20
47.5
 30
0.0
 11
74.0800000000001
 21
47.5
 31
0.0
  0
LINE
  5
13C
330
17
100
AcDbEntity
  8
side-a_6
100
AcDbLine
 10
74.0800000000001
 20
53.5
 30
0.0
 11
74.0800000000001
 21
47.5
 31
0.0
  0
CIRCLE
  5
13E
330
17
100
AcDbEntity
  8
foot_1
100
AcDbCircle
 10
4.800000000000026
 20
283.24000000000024
 30
0.0
 40
1.500000000000001
  0
CIRCLE
  5
13F
330
17
100
AcDbEntity
  8
foot_1
100
AcDbCircle
 10
32.24000000000004
 20
255.80000000000027
 30
0.0
 40
1.500000000000001
  0
CIRCLE
  5
140
330
17
100
AcDbEntity
  8
foot_1
100
AcDbCircle
 10
32.24000000000004
 20
283.24000000000024
 30
0.0
 40
1.500000000000001
  0
CIRCLE
  5
141
330
17
100
AcDbEntity
  8
foot_1
100
AcDbCircle
 10
4.800000000000026
 20
255.80000000000027
 30
0.0
 40
1.500000000000001
  0
LINE
  5
142
330
17
100
AcDbEntity
  8
foot_1
100
AcDbLine
 10
2.842170943040401e-14
 20
252.60000000000025
 30
0.0
 11
2.842170943040401e-14
 21
286.4400000000003
 31
0.0
  0
ARC
  5
143
330
17
100
AcDbEntity
  8
foot_1
100
AcDbCircle
 10
1.6000000000000227
 20
252.60000000000025
 30
0.0
 40
1.600000000000018
100
AcDbArc
 50
180.0
 51
269.999999999999
  0
LINE
  5
144
330
17
100
AcDbEntity
  8
foot_1
100
AcDbLine
 10
1.6000000000000227
 20
251.00000000000026
 30
0.0
 11
35.440000000000026
 21
251.00000000000026
 31
0.0
  0
ARC
  5
145
330
17
100
AcDbEntity
  8
foot_1
100
AcDbCircle
 10
35.440000000000026
 20
252.60000000000025
 30
0.0
 40
1.600000000000032
100
AcDbArc
 50
270.000000000001
 51
0.0
  0
LINE
  5
146
330
17
100
AcDbEntity
  8
foot_1
100
AcDbLine
 10
37.04000000000002
 20
252.60000000000025
 30
0.0
 11
37.04000000000002
 21
286.4400000000003
 31
0.0
  0
ARC
  5
147
330
17
100
AcDbEntity
  8
foot_1
100
AcDbCircle
 10
35.440000000000026
 20
286.4400000000003
 30
0.0
 40
1.600000000000018
100
AcDbArc
 50
0.0
 51
90.0
  0
LINE
  5
148
330
17
100
AcDbEntity
  8
foot_1
100
AcDbLine
 10
1.6000000000000227
 20
288.04000000000025
 30
0.0
 11
35.440000000000026
 21
288.04000000000025
 31
0.0
  0
ARC
  5
149
330
17
100
AcDbEntity
  8
foot_1
100
AcDbCircle
 10
1.6000000000000227
 20
286.4400000000003
 30
0.0
 40
1.600000000000004
100
AcDbArc
 50
90.0
 51
180.0
  0
CIRCLE
  5
14B
330
17
100
AcDbEntity
  8
foot_2
100
AcDbCircle
 10
41.840000000000074
 20
283.24000000000024
 30
0.0
 40
1.500000000000001
  0
CIRCLE
  5
14C
330
17
100
AcDbEntity
  8
foot_2
100
AcDbCircle
 10
69.28000000000009
 20
255.80000000000027
 30
0.0
 40
1.500000000000001
  0
CIRCLE
  5
14D
330
17
100
AcDbEntity
  8
foot_2
100
AcDbCircle
 10
69.28000000000009
 20
283.24000000000024
 30
0.0
 40
1.500000000000001
  0
CIRCLE
  5
14E
330
17
100
AcDbEntity
  8
foot_2
100
AcDbCircle
 10
41.840000000000074
 20
255.80000000000027
 30
0.0
 40
1.500000000000001
  0
LINE
  5
14F
330
17
100
AcDbEntity
  8
foot_2
100
AcDbLine
 10
37.04000000000008
 20
252.60000000000025
 30
0.0
 11
37.04000000000008
 21
286.4400000000003
 31
0.0
  0
ARC
  5
150
330
17
100
AcDbEntity
  8
foot_2
100
AcDbCircle
 10
38.64000000000007
 20
252.60000000000025
 30
0.0
 40
1.600000000000018
100
AcDbArc
 50
180.0
 51
269.999999999999
  0
LINE
  5
151
330
17
100
AcDbEntity
  8
foot_2
100
AcDbLine
 10
38.64000000000007
 20
251.00000000000026
 30
0.0
 11
72.48000000000008
 21
251.00000000000026
 31
0.0
  0
ARC
  5
152
330
17
100
AcDbEntity
  8
foot_2
100
AcDbCircle
 10
72.48000000000008
 20
252.60000000000025
 30
0.0
 40
1.600000000000032
100
AcDbArc
 50
270.000000000001
 51
0.0
  0
LINE
  5
153
330
17
100
AcDbEntity
  8
foot_2
100
AcDbLine
 10
74.08000000000007
 20
252.60000000000025
 30
0.0
 11
74.08000000000007
 21
286.4400000000003
 31
0.0
  0
ARC
  5
154
330
17
100
AcDbEntity
  8
foot_2
100
AcDbCircle
 10
72.48000000000008
 20
286.4400000000003
 30
0.0
 40
1.600000000000018
100
AcDbArc
 50
0.0
 51
90.0
  0
LINE
  5
155
330
17
100
AcDbEntity
  8
foot_2
100
AcDbLine
 10
38.64000000000007
 20
288.04000000000025
 30
0.0
 11
72.48000000000008
 21
288.04000000000025
 31
0.0
  0
ARC
  5
156
330
17
100
AcDbEntity
  8
foot_2
100
AcDbCircle
 10
38.64000000000007
 20
286.4400000000003
 30
0.0
 40
1.600000000000004
100
AcDbArc
 50
90.0
 51
180.0
  0
CIRCLE
  5
158
330
17
100
AcDbEntity
  8
foot_3
100
AcDbCircle
 10
204.38000000000022
 20
32.24000000000004
 30
0.0
 40
1.500000000000001
  0
CIRCLE
  5
159
330
17
100
AcDbEntity
  8
foot_3
100
AcDbCircle
 10
231.82000000000025
 20
4.80000000000004
 30
0.0
 40
1.500000000000001
  0
CIRCLE
  5
15A
330
17
100
AcDbEntity
  8
foot_3
100
AcDbCircle
 10
231.82000000000025
 20
32.24000000000004
 30
0.0
 40
1.500000000000001
  0
CIRCLE
  5
15B
330
17
100
AcDbEntity
  8
foot_3
100
AcDbCircle
 10
204.38000000000022
 20
4.80000000000004
 30
0.0
 40
1.500000000000001
  0
LINE
  5
15C
330
17
100
AcDbEntity
  8
foot_3
100
AcDbLine
 10
199.58000000000024
 20
1.6000000000000227
 30
0.0
 11
199.58000000000024
 21
35.440000000000026
 31
0.0
  0
ARC
  5
15D
330
17
100
AcDbEntity
  8
foot_3
100
AcDbCircle
 10
201.18000000000023
 20
1.6000000000000227
 30
0.0
 40
1.600000000000018
100
AcDbArc
 50
180.0
 51
269.999999999999
  0
LINE
  5
15E
330
17
100
AcDbEntity
  8
foot_3
100
AcDbLine
 10
201.18000000000023
 20
2.842170943040401e-14
 30
0.0
 11
235.02000000000024
 21
2.842170943040401e-14
 31
0.0
  0
ARC
  5
15F
330
17
100
AcDbEntity
  8
foot_3
100
AcDbCircle
 10
235.02000000000024
 20
1.6000000000000227
 30
0.0
 40
1.600000000000032
100
AcDbArc
 50
270.000000000001
 51
0.0
  0
LINE
  5
160
330
17
100
AcDbEntity
  8
foot_3
100
AcDbLine
 10
236.62000000000023
 20
1.6000000000000227
 30
0.0
 11
236.62000000000023
 21
35.440000000000026
 31
0.0
  0
ARC
  5
161
330
17
100
AcDbEntity
  8
foot_3
100
AcDbCircle
 10
235.02000000000024
 20
35.440000000000026
 30
0.0
 40
1.600000000000018
100
AcDbArc
 50
0.0
 51
90.0
  0
LINE
  5
162
330
17
100
AcDbEntity
  8
foot_3
100
AcDbLine
 10
201.18000000000023
 20
37.04000000000002
 30
0.0
 11
235.02000000000024
 21
37.04000000000002
 31
0.0
  0
ARC
  5
163
330
17
100
AcDbEntity
  8
foot_3
100
AcDbCircle
 10
201.18000000000023
 20
35.440000000000026
 30
0.0
 40
1.600000000000004
100
AcDbArc
 50
90.0
 51
180.0
  0
CIRCLE
  5
165
330
17
100
AcDbEntity
  8
foot_4
100
AcDbCircle
 10
241.4200000000003
 20
32.24000000000004
 30
0.0
 40
1.500000000000001
  0
CIRCLE
  5
166
330
17
100
AcDbEntity
  8
foot_4
100
AcDbCircle
 10
268.8600000000003
 20
4.80000000000004
 30
0.0
 40
1.500000000000001
  0
CIRCLE
  5
167
330
17
100
AcDbEntity
  8
foot_4
100
AcDbCircle
 10
268.8600000000003
 20
32.24000000000004
 30
0.0
 40
1.500000000000001
  0
CIRCLE
  5
168
330
17
100
AcDbEntity
  8
foot_4
100
AcDbCircle
 10
241.4200000000003
 20
4.80000000000004
 30
0.0
 40
1.500000000000001
  0
LINE
  5
169
330
17
100
AcDbEntity
  8
foot_4
100
AcDbLine
 10
236.6200000000003
 20
1.6000000000000227
 30
0.0
 11
236.6200000000003
 21
35.440000000000026
 31
0.0
  0
ARC
  5
16A
330
17
100
AcDbEntity
  8
foot_4
100
AcDbCircle
 10
238.22000000000028
 20
1.6000000000000227
 30
0.0
 40
1.600000000000018
100
AcDbArc
 50
180.0
 51
269.999999999999
  0
LINE
  5
16B
330
17
100
AcDbEntity
  8
foot_4
100
AcDbLine
 10
238.22000000000028
 20
2.842170943040401e-14
 30
0.0
 11
272.0600000000003
 21
2.842170943040401e-14
 31
0.0
  0
ARC
  5
16C
330
17
100
AcDbEntity
  8
foot_4
100
AcDbCircle
 10
272.0600000000003
 20
1.6000000000000227
 30
0.0
 40
1.600000000000032
100
AcDbArc
 50
270.000000000001
 51
0.0
  0
LINE
  5
16D
330
17
100
AcDbEntity
  8
foot_4
100
AcDbLine
 10
273.6600000000003
 20
1.6000000000000227
 30
0.0
 11
273.6600000000003
 21
35.440000000000026
 31
0.0
  0
ARC
  5
16E
330
17
100
AcDbEntity
  8
foot_4
100
AcDbCircle
 10
272.0600000000003
 20
35.440000000000026
 30
0.0
 40
1.600000000000018
100
AcDbArc
 50
0.0
 51
90.0
  0
LINE
  5
16F
330
17
100
AcDbEntity
  8
foot_4
100
AcDbLine
 10
238.22000000000028
 20
37.04000000000002
 30
0.0
 11
272.0600000000003
 21
37.04000000000002
 31
0.0
  0
ARC
  5
170
330
17
100
AcDbEntity
  8
foot_4
100
AcDbCircle
 10
238.22000000000028
 20
35.440000000000026
 30
0.0
 40
1.600000000000004
100
AcDbArc
 50
90.0
 51
180.0
  0
CIRCLE
  5
172
330
17
100
AcDbEntity
  8
foot_5
100
AcDbCircle
 10
70.30000000000003
 20
223.24000000000004
 30
0.0
 40
1.500000000000001
  0
CIRCLE
  5
173
330
17
100
AcDbEntity
  8
foot_5
100
AcDbCircle
 10
97.74000000000004
 20
195.80000000000004
 30
0.0
 40
1.500000000000001
  0
CIRCLE
  5
174
330
17
100
AcDbEntity
  8
foot_5
100
AcDbCircle
 10
97.74000000000004
 20
223.24000000000004
 30
0.0
 40
1.500000000000001
  0
CIRCLE
  5
175
330
17
100
AcDbEntity
  8
foot_5
100
AcDbCircle
 10
70.30000000000003
 20
195.80000000000004
 30
0.0
 40
1.500000000000001
  0
LINE
  5
176
330
17
100
AcDbEntity
  8
foot_5
100
AcDbLine
 10
65.50000000000003
 20
192.60000000000002
 30
0.0
 11
65.50000000000003
 21
226.44000000000003
 31
0.0
  0
ARC
  5
177
330
17
100
AcDbEntity
  8
foot_5
100
AcDbCircle
 10
67.10000000000002
 20
192.60000000000002
 30
0.0
 40
1.600000000000018
100
AcDbArc
 50
180.0
 51
269.999999999999
  0
LINE
  5
178
330
17
100
AcDbEntity
  8
foot_5
100
AcDbLine
 10
67.10000000000002
 20
191.00000000000003
 30
0.0
 11
100.94000000000003
 21
191.00000000000003
 31
0.0
  0
ARC
  5
179
330
17
100
AcDbEntity
  8
foot_5
100
AcDbCircle
 10
100.94000000000003
 20
192.60000000000002
 30
0.0
 40
1.600000000000032
100
AcDbArc
 50
270.000000000001
 51
0.0
  0
LINE
  5
17A
330
17
100
AcDbEntity
  8
foot_5
100
AcDbLine
 10
102.54000000000002
 20
192.60000000000002
 30
0.0
 11
102.54000000000002
 21
226.44000000000003
 31
0.0
  0
ARC
  5
17B
330
17
100
AcDbEntity
  8
foot_5
100
AcDbCircle
 10
100.94000000000003
 20
226.44000000000003
 30
0.0
 40
1.600000000000018
100
AcDbArc
 50
0.0
 51
90.0
  0
LINE
  5
17C
330
17
100
AcDbEntity
  8
foot_5
100
AcDbLine
 10
67.10000000000002
 20
228.04000000000002
 30
0.0
 11
100.94000000000003
 21
228.04000000000002
 31
0.0
  0
ARC
  5
17D
330
17
100
AcDbEntity
  8
foot_5
100
AcDbCircle
 10
67.10000000000002
 20
226.44000000000003
 30
0.0
 40
1.600000000000004
100
AcDbArc
 50
90.0
 51
180.0
  0
CIRCLE
  5
17F
330
17
100
AcDbEntity
  8
foot_6
100
AcDbCircle
 10
78.88000000000012
 20
260.2800000000001
 30
0.0
 40
1.500000000000001
  0
CIRCLE
  5
180
330
17
100
AcDbEntity
  8
foot_6
100
AcDbCircle
 10
106.32000000000014
 20
232.8400000000001
 30
0.0
 40
1.500000000000001
  0
CIRCLE
  5
181
330
17
100
AcDbEntity
  8
foot_6
100
AcDbCircle
 10
106.32000000000014
 20
260.2800000000001
 30
0.0
 40
1.500000000000001
  0
CIRCLE
  5
182
330
17
100
AcDbEntity
  8
foot_6
100
AcDbCircle
 10
78.88000000000012
 20
232.8400000000001
 30
0.0
 40
1.500000000000001
  0
LINE
  5
183
330
17
100
AcDbEntity
  8
foot_6
100
AcDbLine
 10
74.08000000000013
 20
229.64000000000007
 30
0.0
 11
74.08000000000013
 21
263.4800000000001
 31
0.0
  0
ARC
  5
184
330
17
100
AcDbEntity
  8
foot_6
100
AcDbCircle
 10
75.68000000000012
 20
229.64000000000007
 30
0.0
 40
1.600000000000018
100
AcDbArc
 50
180.0
 51
269.999999999999
  0
LINE
  5
185
330
17
100
AcDbEntity
  8
foot_6
100
AcDbLine
 10
75.68000000000012
 20
228.04000000000008
 30
0.0
 11
109.52000000000012
 21
228.04000000000008
 31
0.0
  0
ARC
  5
186
330
17
100
AcDbEntity
  8
foot_6
100
AcDbCircle
 10
109.52000000000012
 20
229.64000000000007
 30
0.0
 40
1.600000000000032
100
AcDbArc
 50
270.000000000001
 51
0.0
  0
LINE
  5
187
330
17
100
AcDbEntity
  8
foot_6
100
AcDbLine
 10
111.12000000000012
 20
229.64000000000007
 30
0.0
 11
111.12000000000012
 21
263.4800000000001
 31
0.0
  0
ARC
  5
188
330
17
100
AcDbEntity
  8
foot_6
100
AcDbCircle
 10
109.52000000000012
 20
263.4800000000001
 30
0.0
 40
1.600000000000018
100
AcDbArc
 50
0.0
 51
90.0
  0
LINE
  5
189
330
17
100
AcDbEntity
  8
foot_6
100
AcDbLine
 10
75.68000000000012
 20
265.08000000000004
 30
0.0
 11
109.52000000000012
 21
265.08000000000004
 31
0.0
  0
ARC
  5
18A
330
17
100
AcDbEntity
  8
foot_6
100
AcDbCircle
 10
75.68000000000012
 20
263.4800000000001
 30
0.0
 40
1.600000000000004
100
AcDbArc
 50
90.0
 51
180.0
  0
CIRCLE
  5
18C
330
17
100
AcDbEntity
  8
foot_7
100
AcDbCircle
 10
107.34000000000007
 20
223.24000000000004
 30
0.0
 40
1.500000000000001
  0
CIRCLE
  5
18D
330
17
100
AcDbEntity
  8
foot_7
100
AcDbCircle
 10
134.7800000000001
 20
195.80000000000004
 30
0.0
 40
1.500000000000001
  0
CIRCLE
  5
18E
330
17
100
AcDbEntity
  8
foot_7
100
AcDbCircle
 10
134.7800000000001
 20
223.24000000000004
 30
0.0
 40
1.500000000000001
  0
CIRCLE
  5
18F
330
17
100
AcDbEntity
  8
foot_7
100
AcDbCircle
 10
107.34000000000007
 20
195.80000000000004
 30
0.0
 40
1.500000000000001
  0
LINE
  5
190
330
17
100
AcDbEntity
  8
foot_7
100
AcDbLine
 10
102.54000000000008
 20
192.60000000000002
 30
0.0
 11
102.54000000000008
 21
226.44000000000003
 31
0.0
  0
ARC
  5
191
330
17
100
AcDbEntity
  8
foot_7
100
AcDbCircle
 10
104.14000000000007
 20
192.60000000000002
 30
0.0
 40
1.600000000000018
100
AcDbArc
 50
180.0
 51
269.999999999999
  0
LINE
  5
192
330
17
100
AcDbEntity
  8
foot_7
100
AcDbLine
 10
104.14000000000007
 20
191.00000000000003
 30
0.0
 11
137.98000000000008
 21
191.00000000000003
 31
0.0
  0
ARC
  5
193
330
17
100
AcDbEntity
  8
foot_7
100
AcDbCircle
 10
137.98000000000008
 20
192.60000000000002
 30
0.0
 40
1.600000000000032
100
AcDbArc
 50
270.000000000001
 51
0.0
  0
LINE
  5
194
330
17
100
AcDbEntity
  8
foot_7
100
AcDbLine
 10
139.58000000000007
 20
192.60000000000002
 30
0.0
 11
139.58000000000007
 21
226.44000000000003
 31
0.0
  0
ARC
  5
195
330
17
100
AcDbEntity
  8
foot_7
100
AcDbCircle
 10
137.98000000000008
 20
226.44000000000003
 30
0.0
 40
1.600000000000018
100
AcDbArc
 50
0.0
 51
90.0
  0
LINE
  5
196
330
17
100
AcDbEntity
  8
foot_7
100
AcDbLine
 10
104.14000000000007
 20
228.04000000000002
 30
0.0
 11
137.98000000000008
 21
228.04000000000002
 31
0.0
  0
ARC
  5
197
330
17
100
AcDbEntity
  8
foot_7
100
AcDbCircle
 10
104.14000000000007
 20
226.44000000000003
 30
0.0
 40
1.600000000000004
100
AcDbArc
 50
90.0
 51
180.0
  0
CIRCLE
  5
199
330
17
100
AcDbEntity
  8
foot_8
100
AcDbCircle
 10
115.92000000000017
 20
260.2800000000001
 30
0.0
 40
1.500000000000001
  0
CIRCLE
  5
19A
330
17
100
AcDbEntity
  8
foot_8
100
AcDbCircle
 10
143.36000000000018
 20
232.8400000000001
 30
0.0
 40
1.500000000000001
  0
CIRCLE
  5
19B
330
17
100
AcDbEntity
  8
foot_8
100
AcDbCircle
 10
143.36000000000018
 20
260.2800000000001
 30
0.0
 40
1.500000000000001
  0
CIRCLE
  5
19C
330
17
100
AcDbEntity
  8
foot_8
100
AcDbCircle
 10
115.92000000000017
 20
232.8400000000001
 30
0.0
 40
1.500000000000001
  0
LINE
  5
19D
330
17
100
AcDbEntity
  8
foot_8
100
AcDbLine
 10
111.12000000000018
 20
229.64000000000007
 30
0.0
 11
111.12000000000018
 21
263.4800000000001
 31
0.0
  0
ARC
  5
19E
330
17
100
AcDbEntity
  8
foot_8
100
AcDbCircle
 10
112.72000000000017
 20
229.64000000000007
 30
0.0
 40
1.600000000000018
100
AcDbArc
 50
180.0
 51
269.999999999999
  0
LINE
  5
19F
330
17
100
AcDbEntity
  8
foot_8
100
AcDbLine
 10
112.72000000000017
 20
228.04000000000008
 30
0.0
 11
146.56000000000017
 21
228.04000000000008
 31
0.0
  0
ARC
  5
1A0
330
17
100
AcDbEntity
  8
foot_8
100
AcDbCircle
 10
146.56000000000017
 20
229.64000000000007
 30
0.0
 40
1.600000000000032
100
AcDbArc
 50
270.000000000001
 51
0.0
  0
LINE
  5
1A1
330
17
100
AcDbEntity
  8
foot_8
100
AcDbLine
 10
148.16000000000017
 20
229.64000000000007
 30
0.0
 11
148.16000000000017
 21
263.4800000000001
 31
0.0
  0
ARC
  5
1A2
330
17
100
AcDbEntity
  8
foot_8
100
AcDbCircle
 10
146.56000000000017
 20
263.4800000000001
 30
0.0
 40
1.600000000000018
100
AcDbArc
 50
0.0
 51
90.0
  0
LINE
  5
1A3
330
17
100
AcDbEntity
  8
foot_8
100
AcDbLine
 10
112.72000000000017
 20
265.08000000000004
 30
0.0
 11
146.56000000000017
 21
265.08000000000004
 31
0.0
  0
ARC
  5
1A4
330
17
100
AcDbEntity
  8
foot_8
100
AcDbCircle
 10
112.72000000000017
 20
263.4800000000001
 30
0.0
 40
1.600000000000004
100
AcDbArc
 50
90.0
 51
180.0
  0
CIRCLE
  5
1A6
330
17
100
AcDbEntity
  8
foot_9
100
AcDbCircle
 10
144.3800000000001
 20
223.24000000000004
 30
0.0
 40
1.500000000000001
  0
CIRCLE
  5
1A7
330
17
100
AcDbEntity
  8
foot_9
100
AcDbCircle
 10
171.82000000000014
 20
195.80000000000004
 30
0.0
 40
1.500000000000001
  0
CIRCLE
  5
1A8
330
17
100
AcDbEntity
  8
foot_9
100
AcDbCircle
 10
171.82000000000014
 20
223.24000000000004
 30
0.0
 40
1.500000000000001
  0
CIRCLE
  5
1A9
330
17
100
AcDbEntity
  8
foot_9
100
AcDbCircle
 10
144.3800000000001
 20
195.80000000000004
 30
0.0
 40
1.500000000000001
  0
LINE
  5
1AA
330
17
100
AcDbEntity
  8
foot_9
100
AcDbLine
 10
139.58000000000013
 20
192.60000000000002
 30
0.0
 11
139.58000000000013
 21
226.44000000000003
 31
0.0
  0
ARC
  5
1AB
330
17
100
AcDbEntity
  8
foot_9
100
AcDbCircle
 10
141.18000000000012
 20
192.60000000000002
 30
0.0
 40
1.600000000000018
100
AcDbArc
 50
180.0
 51
269.999999999999
  0
LINE
  5
1AC
330
17
100
AcDbEntity
  8
foot_9
100
AcDbLine
 10
141.18000000000012
 20
191.00000000000003
 30
0.0
 11
175.02000000000012
 21
191.00000000000003
 31
0.0
  0
ARC
  5
1AD
330
17
100
AcDbEntity
  8
foot_9
100
AcDbCircle
 10
175.02000000000012
 20
192.60000000000002
 30
0.0
 40
1.600000000000032
100
AcDbArc
 50
270.000000000001
 51
0.0
  0
LINE
  5
1AE
330
17
100
AcDbEntity
  8
foot_9
100
AcDbLine
 10
176.62000000000012
 20
192.60000000000002
 30
0.0
 11
176.62000000000012
 21
226.44000000000003
 31
0.0
  0
ARC
  5
1AF
330
17
100
AcDbEntity
  8
foot_9
100
AcDbCircle
 10
175.02000000000012
 20
226.44000000000003
 30
0.0
 40
1.600000000000018
100
AcDbArc
 50
0.0
 51
90.0
  0
LINE
  5
1B0
330
17
100
AcDbEntity
  8
foot_9
100
AcDbLine
 10
141.18000000000012
 20
228.04000000000002
 30
0.0
 11
175.02000000000012
 21
228.04000000000002
 31
0.0
  0
ARC
  5
1B1
330
17
100
AcDbEntity
  8
foot_9
100
AcDbCircle
 10
141.18000000000012
 20
226.44000000000003
 30
0.0
 40
1.600000000000004
100
AcDbArc
 50
90.0
 51
180.0
  0
CIRCLE
  5
1B3
330
17
100
AcDbEntity
  8
foot_10
100
AcDbCircle
 10
152.9600000000002
 20
260.2800000000001
 30
0.0
 40
1.500000000000001
  0
CIRCLE
  5
1B4
330
17
100
AcDbEntity
  8
foot_10
100
AcDbCircle
 10
180.40000000000023
 20
232.8400000000001
 30
0.0
 40
1.500000000000001
  0
CIRCLE
  5
1B5
330
17
100
AcDbEntity
  8
foot_10
100
AcDbCircle
 10
180.40000000000023
 20
260.2800000000001
 30
0.0
 40
1.500000000000001
  0
CIRCLE
  5
1B6
330
17
100
AcDbEntity
  8
foot_10
100
AcDbCircle
 10
152.9600000000002
 20
232.8400000000001
 30
0.0
 40
1.500000000000001
  0
LINE
  5
1B7
330
17
100
AcDbEntity
  8
foot_10
100
AcDbLine
 10
148.16000000000022
 20
229.64000000000007
 30
0.0
 11
148.16000000000022
 21
263.4800000000001
 31
0.0
  0
ARC
  5
1B8
330
17
100
AcDbEntity
  8
foot_10
100
AcDbCircle
 10
149.76000000000022
 20
229.64000000000007
 30
0.0
 40
1.600000000000018
100
AcDbArc
 50
180.0
 51
269.999999999999
  0
LINE
  5
1B9
330
17
100
AcDbEntity
  8
foot_10
100
AcDbLine
 10
149.76000000000022
 20
228.04000000000008
 30
0.0
 11
183.60000000000022
 21
228.04000000000008
 31
0.0
  0
ARC
  5
1BA
330
17
100
AcDbEntity
  8
foot_10
100
AcDbCircle
 10
183.60000000000022
 20
229.64000000000007
 30
0.0
 40
1.600000000000032
100
AcDbArc
 50
270.000000000001
 51
0.0
  0
LINE
  5
1BB
330
17
100
AcDbEntity
  8
foot_10
100
AcDbLine
 10
185.20000000000022
 20
229.64000000000007
 30
0.0
 11
185.20000000000022
 21
263.4800000000001
 31
0.0
  0
ARC
  5
1BC
330
17
100
AcDbEntity
  8
foot_10
100
AcDbCircle
 10
183.60000000000022
 20
263.4800000000001
 30
0.0
 40
1.600000000000018
100
AcDbArc
 50
0.0
 51
90.0
  0
LINE
  5
1BD
330
17
100
AcDbEntity
  8
foot_10
100
AcDbLine
 10
149.76000000000022
 20
265.08000000000004
 30
0.0
 11
183.60000000000022
 21
265.08000000000004
 31
0.0
  0
ARC
  5
1BE
330
17
100
AcDbEntity
  8
foot_10
100
AcDbCircle
 10
149.76000000000022
 20
263.4800000000001
 30
0.0
 40
1.600000000000004
100
AcDbArc
 50
90.0
 51
180.0
  0
CIRCLE
  5
1C0
330
17
100
AcDbEntity
  8
foot_11
100
AcDbCircle
 10
181.4200000000002
 20
223.24000000000004
 30
0.0
 40
1.500000000000001
  0
CIRCLE
  5
1C1
330
17
100
AcDbEntity
  8
foot_11
100
AcDbCircle
 10
208.86000000000018
 20
195.80000000000004
 30
0.0
 40
1.500000000000001
  0
CIRCLE
  5
1C2
330
17
100
AcDbEntity
  8
foot_11
100
AcDbCircle
 10
208.86000000000018
 20
223.24000000000004
 30
0.0
 40
1.500000000000001
  0
CIRCLE
  5
1C3
330
17
100
AcDbEntity
  8
foot_11
100
AcDbCircle
 10
181.4200000000002
 20
195.80000000000004
 30
0.0
 40
1.500000000000001
  0
LINE
  5
1C4
330
17
100
AcDbEntity
  8
foot_11
100
AcDbLine
 10
176.62000000000018
 20
192.60000000000002
 30
0.0
 11
176.62000000000018
 21
226.44000000000003
 31
0.0
  0
ARC
  5
1C5
330
17
100
AcDbEntity
  8
foot_11
100
AcDbCircle
 10
178.22000000000017
 20
192.60000000000002
 30
0.0
 40
1.600000000000018
100
AcDbArc
 50
180.0
 51
269.999999999999
  0
LINE
  5
1C6
330
17
100
AcDbEntity
  8
foot_11
100
AcDbLine
 10
178.22000000000017
 20
191.00000000000003
 30
0.0
 11
212.06000000000017
 21
191.00000000000003
 31
0.0
  0
ARC
  5
1C7
330
17
100
AcDbEntity
  8
foot_11
100
AcDbCircle
 10
212.06000000000017
 20
192.60000000000002
 30
0.0
 40
1.600000000000032
100
AcDbArc
 50
270.000000000001
 51
0.0
  0
LINE
  5
1C8
330
17
100
AcDbEntity
  8
foot_11
100
AcDbLine
 10
213.66000000000017
 20
192.60000000000002
 30
0.0
 11
213.66000000000017
 21
226.44000000000003
 31
0.0
  0
ARC
  5
1C9
330
17
100
AcDbEntity
  8
foot_11
100
AcDbCircle
 10
212.06000000000017
 20
226.44000000000003
 30
0.0
 40
1.600000000000018
100
AcDbArc
 50
0.0
 51
90.0
  0
LINE
  5
1CA
330
17
100
AcDbEntity
  8
foot_11
100
AcDbLine
 10
178.22000000000017
 20
228.04000000000002
 30
0.0
 11
212.06000000000017
 21
228.04000000000002
 31
0.0
  0
ARC
  5
1CB
330
17
100
AcDbEntity
  8
foot_11
100
AcDbCircle
 10
178.22000000000017
 20
226.44000000000003
 30
0.0
 40
1.600000000000004
100
AcDbArc
 50
90.0
 51
180.0
  0
CIRCLE
  5
1CD
330
17
100
AcDbEntity
  8
foot_12
100
AcDbCircle
 10
190.00000000000028
 20
260.2800000000001
 30
0.0
 40
1.500000000000001
  0
CIRCLE
  5
1CE
330
17
100
AcDbEntity
  8
foot_12
100
AcDbCircle
 10
217.44000000000028
 20
232.8400000000001
 30
0.0
 40
1.500000000000001
  0
CIRCLE
  5
1CF
330
17
100
AcDbEntity
  8
foot_12
100
AcDbCircle
 10
217.44000000000028
 20
260.2800000000001
 30
0.0
 40
1.500000000000001
  0
CIRCLE
  5
1D0
330
17
100
AcDbEntity
  8
foot_12
100
AcDbCircle
 10
190.00000000000028
 20
232.8400000000001
 30
0.0
 40
1.500000000000001
  0
LINE
  5
1D1
330
17
100
AcDbEntity
  8
foot_12
100
AcDbLine
 10
185.20000000000027
 20
229.64000000000007
 30
0.0
 11
185.20000000000027
 21
263.4800000000001
 31
0.0
  0
ARC
  5
1D2
330
17
100
AcDbEntity
  8
foot_12
100
AcDbCircle
 10
186.80000000000027
 20
229.64000000000007
 30
0.0
 40
1.600000000000018
100
AcDbArc
 50
180.0
 51
269.999999999999
  0
LINE
  5
1D3
330
17
100
AcDbEntity
  8
foot_12
100
AcDbLine
 10
186.80000000000027
 20
228.04000000000008
 30
0.0
 11
220.64000000000027
 21
228.04000000000008
 31
0.0
  0
ARC
  5
1D4
330
17
100
AcDbEntity
  8
foot_12
100
AcDbCircle
 10
220.64000000000027
 20
229.64000000000007
 30
0.0
 40
1.600000000000032
100
AcDbArc
 50
270.000000000001
 51
0.0
  0
LINE
  5
1D5
330
17
100
AcDbEntity
  8
foot_12
100
AcDbLine
 10
222.24000000000026
 20
229.64000000000007
 30
0.0
 11
222.24000000000026
 21
263.4800000000001
 31
0.0
  0
ARC
  5
1D6
330
17
100
AcDbEntity
  8
foot_12
100
AcDbCircle
 10
220.64000000000027
 20
263.4800000000001
 30
0.0
 40
1.600000000000018
100
AcDbArc
 50
0.0
 51
90.0
  0
LINE
  5
1D7
330
17
100
AcDbEntity
  8
foot_12
100
AcDbLine
 10
186.80000000000027
 20
265.08000000000004
 30
0.0
 11
220.64000000000027
 21
265.08000000000004
 31
0.0
  0
ARC
  5
1D8
330
17
100
AcDbEntity
  8
foot_12
100
AcDbCircle
 10
186.80000000000027
 20
263.4800000000001
 30
0.0
 40
1.600000000000004
100
AcDbArc
 50
90.0
 51
180.0
  0
CIRCLE
  5
1DA
330
17
100
AcDbEntity
  8
foot_13
100
AcDbCircle
 10
218.4600000000002
 20
223.24000000000004
 30
0.0
 40
1.500000000000001
  0
CIRCLE
  5
1DB
330
17
100
AcDbEntity
  8
foot_13
100
AcDbCircle
 10
245.90000000000023
 20
195.80000000000004
 30
0.0
 40
1.500000000000001
  0
CIRCLE
  5
1DC
330
17
100
AcDbEntity
  8
foot_13
100
AcDbCircle
 10
245.90000000000023
 20
223.24000000000004
 30
0.0
 40
1.500000000000001
  0
CIRCLE
  5
1DD
330
17
100
AcDbEntity
  8
foot_13
100
AcDbCircle
 10
218.4600000000002
 20
195.80000000000004
 30
0.0
 40
1.500000000000001
  0
LINE
  5
1DE
330
17
100
AcDbEntity
  8
foot_13
100
AcDbLine
 10
213.66000000000022
 20
192.60000000000002
 30
0.0
 11
213.66000000000022
 21
226.44000000000003
 31
0.0
  0
ARC
  5
1DF
330
17
100
AcDbEntity
  8
foot_13
100
AcDbCircle
 10
215.26000000000022
 20
192.60000000000002
 30
0.0
 40
1.600000000000018
100
AcDbArc
 50
180.0
 51
269.999999999999
  0
LINE
  5
1E0
330
17
100
AcDbEntity
  8
foot_13
100
AcDbLine
 10
215.26000000000022
 20
191.00000000000003
 30
0.0
 11
249.10000000000022
 21
191.00000000000003
 31
0.0
  0
ARC
  5
1E1
330
17
100
AcDbEntity
  8
foot_13
100
AcDbCircle
 10
249.10000000000022
 20
192.60000000000002
 30
0.0
 40
1.600000000000032
100
AcDbArc
 50
270.000000000001
 51
0.0
  0
LINE
  5
1E2
330
17
100
AcDbEntity
  8
foot_13
100
AcDbLine
 10
250.70000000000022
 20
192.60000000000002
 30
0.0
 11
250.70000000000022
 21
226.44000000000003
 31
0.0
  0
ARC
  5
1E3
330
17
100
AcDbEntity
  8
foot_13
100
AcDbCircle
 10
249.10000000000022
 20
226.44000000000003
 30
0.0
 40
1.600000000000018
100
AcDbArc
 50
0.0
 51
90.0
  0
LINE
  5
1E4
330
17
100
AcDbEntity
  8
foot_13
100
AcDbLine
 10
215.26000000000022
 20
228.04000000000002
 30
0.0
 11
249.10000000000022
 21
228.04000000000002
 31
0.0
  0
ARC
  5
1E5
330
17
100
AcDbEntity
  8
foot_13
100
AcDbCircle
 10
215.26000000000022
 20
226.44000000000003
 30
0.0
 40
1.600000000000004
100
AcDbArc
 50
90.0
 51
180.0
  0
CIRCLE
  5
1E7
330
17
100
AcDbEntity
  8
foot_14
100
AcDbCircle
 10
255.50000000000028
 20
69.28000000000009
 30
0.0
 40
1.500000000000001
  0
CIRCLE
  5
1E8
330
17
100
AcDbEntity
  8
foot_14
100
AcDbCircle
 10
282.9400000000003
 20
41.84000000000009
 30
0.0
 40
1.500000000000001
  0
CIRCLE
  5
1E9
330
17
100
AcDbEntity
  8
foot_14
100
AcDbCircle
 10
282.9400000000003
 20
69.28000000000009
 30
0.0
 40
1.500000000000001
  0
CIRCLE
  5
1EA
330
17
100
AcDbEntity
  8
foot_14
100
AcDbCircle
 10
255.50000000000028
 20
41.84000000000009
 30
0.0
 40
1.500000000000001
  0
LINE
  5
1EB
330
17
100
AcDbEntity
  8
foot_14
100
AcDbLine
 10
250.70000000000027
 20
38.64000000000007
 30
0.0
 11
250.70000000000027
 21
72.48000000000008
 31
0.0
  0
ARC
  5
1EC
330
17
100
AcDbEntity
  8
foot_14
100
AcDbCircle
 10
252.30000000000027
 20
38.64000000000007
 30
0.0
 40
1.600000000000018
100
AcDbArc
 50
180.0
 51
269.999999999999
  0
LINE
  5
1ED
330
17
100
AcDbEntity
  8
foot_14
100
AcDbLine
 10
252.30000000000027
 20
37.04000000000008
 30
0.0
 11
286.14000000000027
 21
37.04000000000008
 31
0.0
  0
ARC
  5
1EE
330
17
100
AcDbEntity
  8
foot_14
100
AcDbCircle
 10
286.14000000000027
 20
38.64000000000007
 30
0.0
 40
1.600000000000032
100
AcDbArc
 50
270.000000000001
 51
0.0
  0
LINE
  5
1EF
330
17
100
AcDbEntity
  8
foot_14
100
AcDbLine
 10
287.74000000000024
 20
38.64000000000007
 30
0.0
 11
287.74000000000024
 21
72.48000000000008
 31
0.0
  0
ARC
  5
1F0
330
17
100
AcDbEntity
  8
foot_14
100
AcDbCircle
 10
286.14000000000027
 20
72.48000000000008
 30
0.0
 40
1.600000000000018
100
AcDbArc
 50
0.0
 51
90.0
  0
LINE
  5
1F1
330
17
100
AcDbEntity
  8
foot_14
100
AcDbLine
 10
252.30000000000027
 20
74.08000000000007
 30
0.0
 11
286.14000000000027
 21
74.08000000000007
 31
0.0
  0
ARC
  5
1F2
330
17
100
AcDbEntity
  8
foot_14
100
AcDbCircle
 10
252.30000000000027
 20
72.48000000000008
 30
0.0
 40
1.600000000000004
100
AcDbArc
 50
90.0
 51
180.0
  0
CIRCLE
  5
1F4
330
17
100
AcDbEntity
  8
foot_15
100
AcDbCircle
 10
255.50000000000028
 20
106.32000000000014
 30
0.0
 40
1.500000000000001
  0
CIRCLE
  5
1F5
330
17
100
AcDbEntity
  8
foot_15
100
AcDbCircle
 10
282.9400000000003
 20
78.88000000000014
 30
0.0
 40
1.500000000000001
  0
CIRCLE
  5
1F6
330
17
100
AcDbEntity
  8
foot_15
100
AcDbCircle
 10
282.9400000000003
 20
106.32000000000014
 30
0.0
 40
1.500000000000001
  0
CIRCLE
  5
1F7
330
17
100
AcDbEntity
  8
foot_15
100
AcDbCircle
 10
255.50000000000028
 20
78.88000000000014
 30
0.0
 40
1.500000000000001
  0
LINE
  5
1F8
330
17
100
AcDbEntity
  8
foot_15
100
AcDbLine
 10
250.70000000000027
 20
75.68000000000012
 30
0.0
 11
250.70000000000027
 21
109.52000000000012
 31
0.0
  0
ARC
  5
1F9
330
17
100
AcDbEntity
  8
foot_15
100
AcDbCircle
 10
252.30000000000027
 20
75.68000000000012
 30
0.0
 40
1.600000000000018
100
AcDbArc
 50
180.0
 51
269.999999999999
  0
LINE
  5
1FA
330
17
100
AcDbEntity
  8
foot_15
100
AcDbLine
 10
252.30000000000027
 20
74.08000000000013
 30
0.0
 11
286.14000000000027
 21
74.08000000000013
 31
0.0
  0
ARC
  5
1FB
330
17
100
AcDbEntity
  8
foot_15
100
AcDbCircle
 10
286.14000000000027
 20
75.68000000000012
 30
0.0
 40
1.600000000000032
100
AcDbArc
 50
270.000000000001
 51
0.0
  0
LINE
  5
1FC
330
17
100
AcDbEntity
  8
foot_15
100
AcDbLine
 10
287.74000000000024
 20
75.68000000000012
 30
0.0
 11
287.74000000000024
 21
109.52000000000012
 31
0.0
  0
ARC
  5
1FD
330
17
100
AcDbEntity
  8
foot_15
100
AcDbCircle
 10
286.14000000000027
 20
109.52000000000012
 30
0.0
 40
1.600000000000018
100
AcDbArc
 50
0.0
 51
90.0
  0
LINE
  5
1FE
330
17
100
AcDbEntity
  8
foot_15
100
AcDbLine
 10
252.30000000000027
 20
111.12000000000012
 30
0.0
 11
286.14000000000027
 21
111.12000000000012
 31
0.0
  0
ARC
  5
1FF
330
17
100
AcDbEntity
  8
foot_15
100
AcDbCircle
 10
252.30000000000027
 20
109.52000000000012
 30
0.0
 40
1.600000000000004
100
AcDbArc
 50
90.0
 51
180.0
  0
CIRCLE
  5
201
330
17
100
AcDbEntity
  8
foot_16
100
AcDbCircle
 10
255.50000000000028
 20
143.36000000000018
 30
0.0
 40
1.500000000000001
  0
CIRCLE
  5
202
330
17
100
AcDbEntity
  8
foot_16
100
AcDbCircle
 10
282.9400000000003
 20
115.92000000000019
 30
0.0
 40
1.500000000000001
  0
CIRCLE
  5
203
330
17
100
AcDbEntity
  8
foot_16
100
AcDbCircle
 10
282.9400000000003
 20
143.36000000000018
 30
0.0
 40
1.500000000000001
  0
CIRCLE
  5
204
330
17
100
AcDbEntity
  8
foot_16
100
AcDbCircle
 10
255.50000000000028
 20
115.92000000000019
 30
0.0
 40
1.500000000000001
  0
LINE
  5
205
330
17
100
AcDbEntity
  8
foot_16
100
AcDbLine
 10
250.70000000000027
 20
112.72000000000017
 30
0.0
 11
250.70000000000027
 21
146.56000000000017
 31
0.0
  0
ARC
  5
206
330
17
100
AcDbEntity
  8
foot_16
100
AcDbCircle
 10
252.30000000000027
 20
112.72000000000017
 30
0.0
 40
1.600000000000018
100
AcDbArc
 50
180.0
 51
269.999999999999
  0
LINE
  5
207
330
17
100
AcDbEntity
  8
foot_16
100
AcDbLine
 10
252.30000000000027
 20
111.12000000000018
 30
0.0
 11
286.14000000000027
 21
111.12000000000018
 31
0.0
  0
ARC
  5
208
330
17
100
AcDbEntity
  8
foot_16
100
AcDbCircle
 10
286.14000000000027
 20
112.72000000000017
 30
0.0
 40
1.600000000000032
100
AcDbArc
 50
270.000000000001
 51
0.0
  0
LINE
  5
209
330
17
100
AcDbEntity
  8
foot_16
100
AcDbLine
 10
287.74000000000024
 20
112.72000000000017
 30
0.0
 11
287.74000000000024
 21
146.56000000000017
 31
0.0
  0
ARC
  5
20A
330
17
100
AcDbEntity
  8
foot_16
100
AcDbCircle
 10
286.14000000000027
 20
146.56000000000017
 30
0.0
 40
1.600000000000018
100
AcDbArc
 50
0.0
 51
90.0
  0
LINE
  5
20B
330
17
100
AcDbEntity
  8
foot_16
100
AcDbLine
 10
252.30000000000027
 20
148.16000000000017
 30
0.0
 11
286.14000000000027
 21
148.16000000000017
 31
0.0
  0
ARC
  5
20C
330
17
100
AcDbEntity
  8
foot_16
100
AcDbCircle
 10
252.30000000000027
 20
146.56000000000017
 30
0.0
 40
1.600000000000004
100
AcDbArc
 50
90.0
 51
180.0
  0
CIRCLE
  5
20E
330
17
100
AcDbEntity
  8
foot_17
100
AcDbCircle
 10
228.55
 20
180.40000000000023
 30
0.0
 40
1.500000000000001
  0
CIRCLE
  5
20F
330
17
100
AcDbEntity
  8
foot_17
100
AcDbCircle
 10
255.99000000000004
 20
152.96000000000024
 30
0.0
 40
1.500000000000001
  0
CIRCLE
  5
210
330
17
100
AcDbEntity
  8
foot_17
100
AcDbCircle
 10
255.99000000000004
 20
180.40000000000023
 30
0.0
 40
1.500000000000001
  0
CIRCLE
  5
211
330
17
100
AcDbEntity
  8
foot_17
100
AcDbCircle
 10
228.55
 20
152.96000000000024
 30
0.0
 40
1.500000000000001
  0
LINE
  5
212
330
17
100
AcDbEntity
  8
foot_17
100
AcDbLine
 10
223.75000000000003
 20
149.76000000000022
 30
0.0
 11
223.75000000000003
 21
183.60000000000022
 31
0.0
  0
ARC
  5
213
330
17
100
AcDbEntity
  8
foot_17
100
AcDbCircle
 10
225.35000000000002
 20
149.76000000000022
 30
0.0
 40
1.600000000000018
100
AcDbArc
 50
180.0
 51
269.999999999999
  0
LINE
  5
214
330
17
100
AcDbEntity
  8
foot_17
100
AcDbLine
 10
225.35000000000002
 20
148.16000000000022
 30
0.0
 11
259.19000000000005
 21
148.16000000000022
 31
0.0
  0
ARC
  5
215
330
17
100
AcDbEntity
  8
foot_17
100
AcDbCircle
 10
259.19000000000005
 20
149.76000000000022
 30
0.0
 40
1.600000000000032
100
AcDbArc
 50
270.000000000001
 51
0.0
  0
LINE
  5
216
330
17
100
AcDbEntity
  8
foot_17
100
AcDbLine
 10
260.79
 20
149.76000000000022
 30
0.0
 11
260.79
 21
183.60000000000022
 31
0.0
  0
ARC
  5
217
330
17
100
AcDbEntity
  8
foot_17
100
AcDbCircle
 10
259.19000000000005
 20
183.60000000000022
 30
0.0
 40
1.600000000000018
100
AcDbArc
 50
0.0
 51
90.0
  0
LINE
  5
218
330
17
100
AcDbEntity
  8
foot_17
100
AcDbLine
 10
225.35000000000002
 20
185.20000000000022
 30
0.0
 11
259.19000000000005
 21
185.20000000000022
 31
0.0
  0
ARC
  5
219
330
17
100
AcDbEntity
  8
foot_17
100
AcDbCircle
 10
225.35000000000002
 20
183.60000000000022
 30
0.0
 40
1.600000000000004
100
AcDbArc
 50
90.0
 51
180.0
  0
CIRCLE
  5
21B
330
17
100
AcDbEntity
  8
foot_18
100
AcDbCircle
 10
265.5900000000001
 20
180.40000000000023
 30
0.0
 40
1.500000000000001
  0
CIRCLE
  5
21C
330
17
100
AcDbEntity
  8
foot_18
100
AcDbCircle
 10
293.0300000000001
 20
152.96000000000024
 30
0.0
 40
1.500000000000001
  0
CIRCLE
  5
21D
330
17
100
AcDbEntity
  8
foot_18
100
AcDbCircle
 10
293.0300000000001
 20
180.40000000000023
 30
0.0
 40
1.500000000000001
  0
CIRCLE
  5
21E
330
17
100
AcDbEntity
  8
foot_18
100
AcDbCircle
 10
265.5900000000001
 20
152.96000000000024
 30
0.0
 40
1.500000000000001
  0
LINE
  5
21F
330
17
100
AcDbEntity
  8
foot_18
100
AcDbLine
 10
260.7900000000001
 20
149.76000000000022
 30
0.0
 11
260.7900000000001
 21
183.60000000000022
 31
0.0
  0
ARC
  5
220
330
17
100
AcDbEntity
  8
foot_18
100
AcDbCircle
 10
262.3900000000001
 20
149.76000000000022
 30
0.0
 40
1.600000000000018
100
AcDbArc
 50
180.0
 51
269.999999999999
  0
LINE
  5
221
330
17
100
AcDbEntity
  8
foot_18
100
AcDbLine
 10
262.3900000000001
 20
148.16000000000022
 30
0.0
 11
296.23000000000013
 21
148.16000000000022
 31
0.0
  0
ARC
  5
222
330
17
100
AcDbEntity
  8
foot_18
100
AcDbCircle
 10
296.23000000000013
 20
149.76000000000022
 30
0.0
 40
1.600000000000032
100
AcDbArc
 50
270.000000000001
 51
0.0
  0
LINE
  5
223
330
17
100
AcDbEntity
  8
foot_18
100
AcDbLine
 10
297.8300000000001
 20
149.76000000000022
 30
0.0
 11
297.8300000000001
 21
183.60000000000022
 31
0.0
  0
ARC
  5
224
330
17
100
AcDbEntity
  8
foot_18
100
AcDbCircle
 10
296.23000000000013
 20
183.60000000000022
 30
0.0
 40
1.600000000000018
100
AcDbArc
 50
0.0
 51
90.0
  0
LINE
  5
225
330
17
100
AcDbEntity
  8
foot_18
100
AcDbLine
 10
262.3900000000001
 20
185.20000000000022
 30
0.0
 11
296.23000000000013
 21
185.20000000000022
 31
0.0
  0
ARC
  5
226
330
17
100
AcDbEntity
  8
foot_18
100
AcDbCircle
 10
262.3900000000001
 20
183.60000000000022
 30
0.0
 40
1.600000000000004
100
AcDbArc
 50
90.0
 51
180.0
  0
CIRCLE
  5
228
330
17
100
AcDbEntity
  8
foot_19
100
AcDbCircle
 10
255.50000000000028
 20
217.44000000000028
 30
0.0
 40
1.500000000000001
  0
CIRCLE
  5
229
330
17
100
AcDbEntity
  8
foot_19
100
AcDbCircle
 10
282.9400000000003
 20
190.00000000000028
 30
0.0
 40
1.500000000000001
  0
CIRCLE
  5
22A
330
17
100
AcDbEntity
  8
foot_19
100
AcDbCircle
 10
282.9400000000003
 20
217.44000000000028
 30
0.0
 40
1.500000000000001
  0
CIRCLE
  5
22B
330
17
100
AcDbEntity
  8
foot_19
100
AcDbCircle
 10
255.50000000000028
 20
190.00000000000028
 30
0.0
 40
1.500000000000001
  0
LINE
  5
22C
330
17
100
AcDbEntity
  8
foot_19
100
AcDbLine
 10
250.70000000000027
 20
186.80000000000027
 30
0.0
 11
250.70000000000027
 21
220.64000000000027
 31
0.0
  0
ARC
  5
22D
330
17
100
AcDbEntity
  8
foot_19
100
AcDbCircle
 10
252.30000000000027
 20
186.80000000000027
 30
0.0
 40
1.600000000000018
100
AcDbArc
 50
180.0
 51
269.999999999999
  0
LINE
  5
22E
330
17
100
AcDbEntity
  8
foot_19
100
AcDbLine
 10
252.30000000000027
 20
185.20000000000027
 30
0.0
 11
286.14000000000027
 21
185.20000000000027
 31
0.0
  0
ARC
  5
22F
330
17
100
AcDbEntity
  8
foot_19
100
AcDbCircle
 10
286.14000000000027
 20
186.80000000000027
 30
0.0
 40
1.600000000000032
100
AcDbArc
 50
270.000000000001
 51
0.0
  0
LINE
  5
230
330
17
100
AcDbEntity
  8
foot_19
100
AcDbLine
 10
287.74000000000024
 20
186.80000000000027
 30
0.0
 11
287.74000000000024
 21
220.64000000000027
 31
0.0
  0
ARC
  5
231
330
17
100
AcDbEntity
  8
foot_19
100
AcDbCircle
 10
286.14000000000027
 20
220.64000000000027
 30
0.0
 40
1.600000000000018
100
AcDbArc
 50
0.0
 51
90.0
  0
LINE
  5
232
330
17
100
AcDbEntity
  8
foot_19
100
AcDbLine
 10
252.30000000000027
 20
222.24000000000026
 30
0.0
 11
286.14000000000027
 21
222.24000000000026
 31
0.0
  0
ARC
  5
233
330
17
100
AcDbEntity
  8
foot_19
100
AcDbCircle
 10
252.30000000000027
 20
220.64000000000027
 30
0.0
 40
1.600000000000004
100
AcDbArc
 50
90.0
 51
180.0
  0
CIRCLE
  5
235
330
17
100
AcDbEntity
  8
foot_20
100
AcDbCircle
 10
255.50000000000028
 20
254.48000000000033
 30
0.0
 40
1.500000000000001
  0
CIRCLE
  5
236
330
17
100
AcDbEntity
  8
foot_20
100
AcDbCircle
 10
282.9400000000003
 20
227.04000000000033
 30
0.0
 40
1.500000000000001
  0
CIRCLE
  5
237
330
17
100
AcDbEntity
  8
foot_20
100
AcDbCircle
 10
282.9400000000003
 20
254.48000000000033
 30
0.0
 40
1.500000000000001
  0
CIRCLE
  5
238
330
17
100
AcDbEntity
  8
foot_20
100
AcDbCircle
 10
255.50000000000028
 20
227.04000000000033
 30
0.0
 40
1.500000000000001
  0
LINE
  5
239
330
17
100
AcDbEntity
  8
foot_20
100
AcDbLine
 10
250.70000000000027
 20
223.84000000000032
 30
0.0
 11
250.70000000000027
 21
257.6800000000003
 31
0.0
  0
ARC
  5
23A
330
17
100
AcDbEntity
  8
foot_20
100
AcDbCircle
 10
252.30000000000027
 20
223.84000000000032
 30
0.0
 40
1.600000000000018
100
AcDbArc
 50
180.0
 51
269.999999999999
  0
LINE
  5
23B
330
17
100
AcDbEntity
  8
foot_20
100
AcDbLine
 10
252.30000000000027
 20
222.24000000000032
 30
0.0
 11
286.14000000000027
 21
222.24000000000032
 31
0.0
  0
ARC
  5
23C
330
17
100
AcDbEntity
  8
foot_20
100
AcDbCircle
 10
286.14000000000027
 20
223.84000000000032
 30
0.0
 40
1.600000000000032
100
AcDbArc
 50
270.000000000001
 51
0.0
  0
LINE
  5
23D
330
17
100
AcDbEntity
  8
foot_20
100
AcDbLine
 10
287.74000000000024
 20
223.84000000000032
 30
0.0
 11
287.74000000000024
 21
257.6800000000003
 31
0.0
  0
ARC
  5
23E
330
17
100
AcDbEntity
  8
foot_20
100
AcDbCircle
 10
286.14000000000027
 20
257.6800000000003
 30
0.0
 40
1.600000000000018
100
AcDbArc
 50
0.0
 51
90.0
  0
LINE
  5
23F
330
17
100
AcDbEntity
  8
foot_20
100
AcDbLine
 10
252.30000000000027
 20
259.2800000000003
 30
0.0
 11
286.14000000000027
 21
259.2800000000003
 31
0.0
  0
ARC
  5
240
330
17
100
AcDbEntity
  8
foot_20
100
AcDbCircle
 10
252.30000000000027
 20
257.6800000000003
 30
0.0
 40
1.600000000000004
100
AcDbArc
 50
90.0
 51
180.0
  0
CIRCLE
  5
242
330
17
100
AcDbEntity
  8
foot_21
100
AcDbCircle
 10
227.0400000000003
 20
291.5200000000003
 30
0.0
 40
1.500000000000001
  0
CIRCLE
  5
243
330
17
100
AcDbEntity
  8
foot_21
100
AcDbCircle
 10
254.48000000000033
 20
264.0800000000004
 30
0.0
 40
1.500000000000001
  0
CIRCLE
  5
244
330
17
100
AcDbEntity
  8
foot_21
100
AcDbCircle
 10
254.48000000000033
 20
291.5200000000003
 30
0.0
 40
1.500000000000001
  0
CIRCLE
  5
245
330
17
100
AcDbEntity
  8
foot_21
100
AcDbCircle
 10
227.0400000000003
 20
264.0800000000004
 30
0.0
 40
1.500000000000001
  0
LINE
  5
246
330
17
100
AcDbEntity
  8
foot_21
100
AcDbLine
 10
222.24000000000032
 20
260.88000000000034
 30
0.0
 11
222.24000000000032
 21
294.72000000000037
 31
0.0
  0
ARC
  5
247
330
17
100
AcDbEntity
  8
foot_21
100
AcDbCircle
 10
223.84000000000032
 20
260.88000000000034
 30
0.0
 40
1.600000000000018
100
AcDbArc
 50
180.0
 51
269.999999999999
  0
LINE
  5
248
330
17
100
AcDbEntity
  8
foot_21
100
AcDbLine
 10
223.84000000000032
 20
259.2800000000003
 30
0.0
 11
257.6800000000003
 21
259.2800000000003
 31
0.0
  0
ARC
  5
249
330
17
100
AcDbEntity
  8
foot_21
100
AcDbCircle
 10
257.6800000000003
 20
260.88000000000034
 30
0.0
 40
1.600000000000032
100
AcDbArc
 50
270.000000000001
 51
0.0
  0
LINE
  5
24A
330
17
100
AcDbEntity
  8
foot_21
100
AcDbLine
 10
259.2800000000003
 20
260.88000000000034
 30
0.0
 11
259.2800000000003
 21
294.72000000000037
 31
0.0
  0
ARC
  5
24B
330
17
100
AcDbEntity
  8
foot_21
100
AcDbCircle
 10
257.6800000000003
 20
294.72000000000037
 30
0.0
 40
1.600000000000018
100
AcDbArc
 50
0.0
 51
90.0
  0
LINE
  5
24C
330
17
100
AcDbEntity
  8
foot_21
100
AcDbLine
 10
223.84000000000032
 20
296.32000000000033
 30
0.0
 11
257.6800000000003
 21
296.32000000000033
 31
0.0
  0
ARC
  5
24D
330
17
100
AcDbEntity
  8
foot_21
100
AcDbCircle
 10
223.84000000000032
 20
294.72000000000037
 30
0.0
 40
1.600000000000004
100
AcDbArc
 50
90.0
 51
180.0
  0
CIRCLE
  5
24F
330
17
100
AcDbEntity
  8
foot_22
100
AcDbCircle
 10
264.0800000000003
 20
291.5200000000003
 30
0.0
 40
1.500000000000001
  0
CIRCLE
  5
250
330
17
100
AcDbEntity
  8
foot_22
100
AcDbCircle
 10
291.5200000000003
 20
264.0800000000004
 30
0.0
 40
1.500000000000001
  0
CIRCLE
  5
251
330
17
100
AcDbEntity
  8
foot_22
100
AcDbCircle
 10
291.5200000000003
 20
291.5200000000003
 30
0.0
 40
1.500000000000001
  0
CIRCLE
  5
252
330
17
100
AcDbEntity
  8
foot_22
100
AcDbCircle
 10
264.0800000000003
 20
264.0800000000004
 30
0.0
 40
1.500000000000001
  0
LINE
  5
253
330
17
100
AcDbEntity
  8
foot_22
100
AcDbLine
 10
259.2800000000003
 20
260.88000000000034
 30
0.0
 11
259.2800000000003
 21
294.72000000000037
 31
0.0
  0
ARC
  5
254
330
17
100
AcDbEntity
  8
foot_22
100
AcDbCircle
 10
260.88000000000034
 20
260.88000000000034
 30
0.0
 40
1.600000000000018
100
AcDbArc
 50
180.0
 51
269.999999999999
  0
LINE
  5
255
330
17
100
AcDbEntity
  8
foot_22
100
AcDbLine
 10
260.88000000000034
 20
259.2800000000003
 30
0.0
 11
294.72000000000037
 21
259.2800000000003
 31
0.0
  0
ARC
  5
256
330
17
100
AcDbEntity
  8
foot_22
100
AcDbCircle
 10
294.72000000000037
 20
260.88000000000034
 30
0.0
 40
1.600000000000032
100
AcDbArc
 50
270.000000000001
 51
0.0
  0
LINE
  5
257
330
17
100
AcDbEntity
  8
foot_22
100
AcDbLine
 10
296.32000000000033
 20
260.88000000000034
 30
0.0
 11
296.32000000000033
 21
294.72000000000037
 31
0.0
  0
ARC
  5
258
330
17
100
AcDbEntity
  8
foot_22
100
AcDbCircle
 10
294.72000000000037
 20
294.72000000000037
 30
0.0
 40
1.600000000000018
100
AcDbArc
 50
0.0
 51
90.0
  0
LINE
  5
259
330
17
100
AcDbEntity
  8
foot_22
100
AcDbLine
 10
260.88000000000034
 20
296.32000000000033
 30
0.0
 11
294.72000000000037
 21
296.32000000000033
 31
0.0
  0
ARC
  5
25A
330
17
100
AcDbEntity
  8
foot_22
100
AcDbCircle
 10
260.88000000000034
 20
294.72000000000037
 30
0.0
 40
1.600000000000004
100
AcDbArc
 50
90.0
 51
180.0
  0
LINE
  5
25C
330
17
100
AcDbEntity
  8
bottom_1
100
AcDbLine
 10
94.46153846153845
 20
68.25000000000003
 30
0.0
 11
94.46153846153845
 21
65.5
 31
0.0
  0
LINE
  5
25D
330
17
100
AcDbEntity
  8
bottom_1
100
AcDbLine
 10
94.46153846153845
 20
68.25000000000003
 30
0.0
 11
104.11538461538461
 21
68.25000000000003
 31
0.0
  0
LINE
  5
25E
330
17
100
AcDbEntity
  8
bottom_1
100
AcDbLine
 10
104.11538461538461
 20
68.25000000000003
 30
0.0
 11
104.11538461538461
 21
65.5
 31
0.0
  0
LINE
  5
25F
330
17
100
AcDbEntity
  8
bottom_1
100
AcDbLine
 10
104.11538461538461
 20
65.5
 30
0.0
 11
113.76923076923077
 21
65.5
 31
0.0
  0
LINE
  5
260
330
17
100
AcDbEntity
  8
bottom_1
100
AcDbLine
 10
113.76923076923077
 20
68.25000000000003
 30
0.0
 11
113.76923076923077
 21
65.5
 31
0.0
  0
LINE
  5
261
330
17
100
AcDbEntity
  8
bottom_1
100
AcDbLine
 10
113.76923076923077
 20
68.25000000000003
 30
0.0
 11
123.42307692307692
 21
68.25000000000003
 31
0.0
  0
LINE
  5
262
330
17
100
AcDbEntity
  8
bottom_1
100
AcDbLine
 10
123.42307692307692
 20
68.25000000000003
 30
0.0
 11
123.42307692307692
 21
65.5
 31
0.0
  0
LINE
  5
263
330
17
100
AcDbEntity
  8
bottom_1
100
AcDbLine
 10
123.42307692307692
 20
65.5
 30
0.0
 11
133.0769230769231
 21
65.5
 31
0.0
  0
LINE
  5
264
330
17
100
AcDbEntity
  8
bottom_1
100
AcDbLine
 10
133.0769230769231
 20
68.25000000000003
 30
0.0
 11
133.0769230769231
 21
65.5
 31
0.0
  0
LINE
  5
265
330
17
100
AcDbEntity
  8
bottom_1
100
AcDbLine
 10
133.0769230769231
 20
68.25000000000003
 30
0.0
 11
142.73076923076923
 21
68.25000000000003
 31
0.0
  0
LINE
  5
266
330
17
100
AcDbEntity
  8
bottom_1
100
AcDbLine
 10
142.73076923076923
 20
68.25000000000003
 30
0.0
 11
142.73076923076923
 21
65.5
 31
0.0
  0
LINE
  5
267
330
17
100
AcDbEntity
  8
bottom_1
100
AcDbLine
 10
142.73076923076923
 20
65.5
 30
0.0
 11
152.3846153846154
 21
65.5
 31
0.0
  0
LINE
  5
268
330
17
100
AcDbEntity
  8
bottom_1
100
AcDbLine
 10
152.3846153846154
 20
68.25000000000003
 30
0.0
 11
152.3846153846154
 21
65.5
 31
0.0
  0
LINE
  5
269
330
17
100
AcDbEntity
  8
bottom_1
100
AcDbLine
 10
152.3846153846154
 20
68.25000000000003
 30
0.0
 11
162.03846153846155
 21
68.25000000000003
 31
0.0
  0
LINE
  5
26A
330
17
100
AcDbEntity
  8
bottom_1
100
AcDbLine
 10
162.03846153846155
 20
68.25000000000003
 30
0.0
 11
162.03846153846155
 21
65.5
 31
0.0
  0
LINE
  5
26B
330
17
100
AcDbEntity
  8
bottom_1
100
AcDbLine
 10
162.03846153846155
 20
65.5
 30
0.0
 11
171.69230769230768
 21
65.5
 31
0.0
  0
LINE
  5
26C
330
17
100
AcDbEntity
  8
bottom_1
100
AcDbLine
 10
171.69230769230768
 20
68.25000000000003
 30
0.0
 11
171.69230769230768
 21
65.5
 31
0.0
  0
LINE
  5
26D
330
17
100
AcDbEntity
  8
bottom_1
100
AcDbLine
 10
171.69230769230768
 20
68.25000000000003
 30
0.0
 11
181.3461538461538
 21
68.25000000000003
 31
0.0
  0
LINE
  5
26E
330
17
100
AcDbEntity
  8
bottom_1
100
AcDbLine
 10
181.3461538461538
 20
68.25000000000003
 30
0.0
 11
181.3461538461538
 21
65.5
 31
0.0
  0
LINE
  5
26F
330
17
100
AcDbEntity
  8
bottom_1
100
AcDbLine
 10
181.3461538461538
 20
65.5
 30
0.0
 11
191.0
 21
65.50000000000003
 31
0.0
  0
LINE
  5
270
330
17
100
AcDbEntity
  8
bottom_1
100
AcDbLine
 10
191.0
 20
75.15384615384615
 30
0.0
 11
191.0
 21
65.50000000000003
 31
0.0
  0
LINE
  5
271
330
17
100
AcDbEntity
  8
bottom_1
100
AcDbLine
 10
188.25
 20
75.15384615384615
 30
0.0
 11
191.0
 21
75.15384615384615
 31
0.0
  0
LINE
  5
272
330
17
100
AcDbEntity
  8
bottom_1
100
AcDbLine
 10
188.25
 20
75.15384615384615
 30
0.0
 11
188.25
 21
84.80769230769229
 31
0.0
  0
LINE
  5
273
330
17
100
AcDbEntity
  8
bottom_1
100
AcDbLine
 10
188.25
 20
84.80769230769229
 30
0.0
 11
191.0
 21
84.80769230769229
 31
0.0
  0
LINE
  5
274
330
17
100
AcDbEntity
  8
bottom_1
100
AcDbLine
 10
191.0
 20
94.46153846153845
 30
0.0
 11
191.0
 21
84.80769230769229
 31
0.0
  0
LINE
  5
275
330
17
100
AcDbEntity
  8
bottom_1
100
AcDbLine
 10
188.25
 20
94.46153846153845
 30
0.0
 11
191.0
 21
94.46153846153845
 31
0.0
  0
LINE
  5
276
330
17
100
AcDbEntity
  8
bottom_1
100
AcDbLine
 10
188.25
 20
94.46153846153845
 30
0.0
 11
188.25
 21
104.11538461538461
 31
0.0
  0
LINE
  5
277
330
17
100
AcDbEntity
  8
bottom_1
100
AcDbLine
 10
188.25
 20
104.11538461538461
 30
0.0
 11
191.0
 21
104.11538461538461
 31
0.0
  0
LINE
  5
278
330
17
100
AcDbEntity
  8
bottom_1
100
AcDbLine
 10
191.0
 20
113.76923076923077
 30
0.0
 11
191.0
 21
104.11538461538461
 31
0.0
  0
LINE
  5
279
330
17
100
AcDbEntity
  8
bottom_1
100
AcDbLine
 10
188.25
 20
113.76923076923077
 30
0.0
 11
191.0
 21
113.76923076923077
 31
0.0
  0
LINE
  5
27A
330
17
100
AcDbEntity
  8
bottom_1
100
AcDbLine
 10
188.25
 20
113.76923076923077
 30
0.0
 11
188.25
 21
123.42307692307693
 31
0.0
  0
LINE
  5
27B
330
17
100
AcDbEntity
  8
bottom_1
100
AcDbLine
 10
188.25
 20
123.42307692307693
 30
0.0
 11
191.0
 21
123.42307692307693
 31
0.0
  0
LINE
  5
27C
330
17
100
AcDbEntity
  8
bottom_1
100
AcDbLine
 10
191.0
 20
133.0769230769231
 30
0.0
 11
191.0
 21
123.42307692307693
 31
0.0
  0
LINE
  5
27D
330
17
100
AcDbEntity
  8
bottom_1
100
AcDbLine
 10
188.25
 20
133.0769230769231
 30
0.0
 11
191.0
 21
133.0769230769231
 31
0.0
  0
LINE
  5
27E
330
17
100
AcDbEntity
  8
bottom_1
100
AcDbLine
 10
188.25
 20
133.0769230769231
 30
0.0
 11
188.25
 21
142.73076923076923
 31
0.0
  0
LINE
  5
27F
330
17
100
AcDbEntity
  8
bottom_1
100
AcDbLine
 10
188.25
 20
142.73076923076923
 30
0.0
 11
191.0
 21
142.73076923076923
 31
0.0
  0
LINE
  5
280
330
17
100
AcDbEntity
  8
bottom_1
100
AcDbLine
 10
191.0
 20
152.3846153846154
 30
0.0
 11
191.0
 21
142.73076923076923
 31
0.0
  0
LINE
  5
281
330
17
100
AcDbEntity
  8
bottom_1
100
AcDbLine
 10
188.25
 20
152.3846153846154
 30
0.0
 11
191.0
 21
152.3846153846154
 31
0.0
  0
LINE
  5
282
330
17
100
AcDbEntity
  8
bottom_1
100
AcDbLine
 10
188.25
 20
152.3846153846154
 30
0.0
 11
188.25
 21
162.03846153846155
 31
0.0
  0
LINE
  5
283
330
17
100
AcDbEntity
  8
bottom_1
100
AcDbLine
 10
188.25
 20
162.03846153846155
 30
0.0
 11
191.0
 21
162.03846153846155
 31
0.0
  0
LINE
  5
284
330
17
100
AcDbEntity
  8
bottom_1
100
AcDbLine
 10
191.0
 20
171.69230769230768
 30
0.0
 11
191.0
 21
162.03846153846155
 31
0.0
  0
LINE
  5
285
330
17
100
AcDbEntity
  8
bottom_1
100
AcDbLine
 10
188.25
 20
171.69230769230768
 30
0.0
 11
191.0
 21
171.69230769230768
 31
0.0
  0
LINE
  5
286
330
17
100
AcDbEntity
  8
bottom_1
100
AcDbLine
 10
188.25
 20
171.69230769230768
 30
0.0
 11
188.25
 21
181.3461538461539
 31
0.0
  0
LINE
  5
287
330
17
100
AcDbEntity
  8
bottom_1
100
AcDbLine
 10
188.25
 20
181.3461538461539
 30
0.0
 11
191.0
 21
181.3461538461539
 31
0.0
  0
LINE
  5
288
330
17
100
AcDbEntity
  8
bottom_1
100
AcDbLine
 10
191.0
 20
191.0
 30
0.0
 11
191.0
 21
181.3461538461539
 31
0.0
  0
LINE
  5
289
330
17
100
AcDbEntity
  8
bottom_1
100
AcDbLine
 10
181.3461538461539
 20
191.0
 30
0.0
 11
191.0
 21
191.0
 31
0.0
  0
LINE
  5
28A
330
17
100
AcDbEntity
  8
bottom_1
100
AcDbLine
 10
181.3461538461539
 20
188.25
 30
0.0
 11
181.3461538461539
 21
191.0
 31
0.0
  0
LINE
  5
28B
330
17
100
AcDbEntity
  8
bottom_1
100
AcDbLine
 10
181.3461538461539
 20
188.25
 30
0.0
 11
171.69230769230768
 21
188.25
 31
0.0
  0
LINE
  5
28C
330
17
100
AcDbEntity
  8
bottom_1
100
AcDbLine
 10
171.69230769230768
 20
188.25
 30
0.0
 11
171.69230769230768
 21
191.0
 31
0.0
  0
LINE
  5
28D
330
17
100
AcDbEntity
  8
bottom_1
100
AcDbLine
 10
162.03846153846155
 20
191.0
 30
0.0
 11
171.69230769230768
 21
191.0
 31
0.0
  0
LINE
  5
28E
330
17
100
AcDbEntity
  8
bottom_1
100
AcDbLine
 10
162.03846153846155
 20
188.25
 30
0.0
 11
162.03846153846155
 21
191.0
 31
0.0
  0
LINE
  5
28F
330
17
100
AcDbEntity
  8
bottom_1
100
AcDbLine
 10
162.03846153846155
 20
188.25
 30
0.0
 11
152.3846153846154
 21
188.25
 31
0.0
  0
LINE
  5
290
330
17
100
AcDbEntity
  8
bottom_1
100
AcDbLine
 10
152.3846153846154
 20
188.25
 30
0.0
 11
152.3846153846154
 21
191.0
 31
0.0
  0
LINE
  5
291
330
17
100
AcDbEntity
  8
bottom_1
100
AcDbLine
 10
142.73076923076923
 20
191.0
 30
0.0
 11
152.3846153846154
 21
191.0
 31
0.0
  0
LINE
  5
292
330
17
100
AcDbEntity
  8
bottom_1
100
AcDbLine
 10
142.73076923076923
 20
188.25
 30
0.0
 11
142.73076923076923
 21
191.0
 31
0.0
  0
LINE
  5
293
330
17
100
AcDbEntity
  8
bottom_1
100
AcDbLine
 10
142.73076923076923
 20
188.25
 30
0.0
 11
133.0769230769231
 21
188.25
 31
0.0
  0
LINE
  5
294
330
17
100
AcDbEntity
  8
bottom_1
100
AcDbLine
 10
133.0769230769231
 20
188.25
 30
0.0
 11
133.0769230769231
 21
191.0
 31
0.0
  0
LINE
  5
295
330
17
100
AcDbEntity
  8
bottom_1
100
AcDbLine
 10
123.42307692307693
 20
191.0
 30
0.0
 11
133.0769230769231
 21
191.0
 31
0.0
  0
LINE
  5
296
330
17
100
AcDbEntity
  8
bottom_1
100
AcDbLine
 10
123.42307692307693
 20
188.25
 30
0.0
 11
123.42307692307693
 21
191.0
 31
0.0
  0
LINE
  5
297
330
17
100
AcDbEntity
  8
bottom_1
100
AcDbLine
 10
123.42307692307693
 20
188.25
 30
0.0
 11
113.76923076923077
 21
188.25
 31
0.0
  0
LINE
  5
298
330
17
100
AcDbEntity
  8
bottom_1
100
AcDbLine
 10
113.76923076923077
 20
188.25
 30
0.0
 11
113.76923076923077
 21
191.0
 31
0.0
  0
LINE
  5
299
330
17
100
AcDbEntity
  8
bottom_1
100
AcDbLine
 10
104.11538461538461
 20
191.0
 30
0.0
 11
113.76923076923077
 21
191.0
 31
0.0
  0
LINE
  5
29A
330
17
100
AcDbEntity
  8
bottom_1
100
AcDbLine
 10
104.11538461538461
 20
188.25
 30
0.0
 11
104.11538461538461
 21
191.0
 31
0.0
  0
LINE
  5
29B
330
17
100
AcDbEntity
  8
bottom_1
100
AcDbLine
 10
104.11538461538461
 20
188.25
 30
0.0
 11
94.46153846153847
 21
188.25
 31
0.0
  0
LINE
  5
29C
330
17
100
AcDbEntity
  8
bottom_1
100
AcDbLine
 10
94.46153846153847
 20
188.25
 30
0.0
 11
94.46153846153847
 21
191.0
 31
0.0
  0
LINE
  5
29D
330
17
100
AcDbEntity
  8
bottom_1
100
AcDbLine
 10
84.80769230769232
 20
191.0
 30
0.0
 11
94.46153846153847
 21
191.0
 31
0.0
  0
LINE
  5
29E
330
17
100
AcDbEntity
  8
bottom_1
100
AcDbLine
 10
84.80769230769232
 20
188.25
 30
0.0
 11
84.80769230769232
 21
191.0
 31
0.0
  0
LINE
  5
29F
330
17
100
AcDbEntity
  8
bottom_1
100
AcDbLine
 10
84.80769230769232
 20
188.25
 30
0.0
 11
75.15384615384617
 21
188.25
 31
0.0
  0
LINE
  5
2A0
330
17
100
AcDbEntity
  8
bottom_1
100
AcDbLine
 10
75.15384615384617
 20
188.25
 30
0.0
 11
75.15384615384617
 21
191.0
 31
0.0
  0
LINE
  5
2A1
330
17
100
AcDbEntity
  8
bottom_1
100
AcDbLine
 10
65.5
 20
191.0
 30
0.0
 11
75.15384615384617
 21
191.0
 31
0.0
  0
LINE
  5
2A2
330
17
100
AcDbEntity
  8
bottom_1
100
AcDbLine
 10
65.5
 20
191.0
 30
0.0
 11
65.5
 21
181.3461538461539
 31
0.0
  0
LINE
  5
2A3
330
17
100
AcDbEntity
  8
bottom_1
100
AcDbLine
 10
68.25
 20
181.3461538461539
 30
0.0
 11
65.5
 21
181.3461538461539
 31
0.0
  0
LINE
  5
2A4
330
17
100
AcDbEntity
  8
bottom_1
100
AcDbLine
 10
68.25
 20
181.3461538461539
 30
0.0
 11
68.25
 21
171.69230769230768
 31
0.0
  0
LINE
  5
2A5
330
17
100
AcDbEntity
  8
bottom_1
100
AcDbLine
 10
68.25
 20
171.69230769230768
 30
0.0
 11
65.5
 21
171.69230769230768
 31
0.0
  0
LINE
  5
2A6
330
17
100
AcDbEntity
  8
bottom_1
100
AcDbLine
 10
65.5
 20
171.69230769230768
 30
0.0
 11
65.5
 21
162.03846153846155
 31
0.0
  0
LINE
  5
2A7
330
17
100
AcDbEntity
  8
bottom_1
100
AcDbLine
 10
68.25
 20
162.03846153846155
 30
0.0
 11
65.5
 21
162.03846153846155
 31
0.0
  0
LINE
  5
2A8
330
17
100
AcDbEntity
  8
bottom_1
100
AcDbLine
 10
68.25
 20
162.03846153846155
 30
0.0
 11
68.25
 21
152.3846153846154
 31
0.0
  0
LINE
  5
2A9
330
17
100
AcDbEntity
  8
bottom_1
100
AcDbLine
 10
68.25
 20
152.3846153846154
 30
0.0
 11
65.5
 21
152.3846153846154
 31
0.0
  0
LINE
  5
2AA
330
17
100
AcDbEntity
  8
bottom_1
100
AcDbLine
 10
65.5
 20
152.3846153846154
 30
0.0
 11
65.5
 21
142.73076923076923
 31
0.0
  0
LINE
  5
2AB
330
17
100
AcDbEntity
  8
bottom_1
100
AcDbLine
 10
68.25
 20
142.73076923076923
 30
0.0
 11
65.5
 21
142.73076923076923
 31
0.0
  0
LINE
  5
2AC
330
17
100
AcDbEntity
  8
bottom_1
100
AcDbLine
 10
68.25
 20
142.73076923076923
 30
0.0
 11
68.25
 21
133.0769230769231
 31
0.0
  0
LINE
  5
2AD
330
17
100
AcDbEntity
  8
bottom_1
100
AcDbLine
 10
68.25
 20
133.0769230769231
 30
0.0
 11
65.5
 21
133.0769230769231
 31
0.0
  0
LINE
  5
2AE
330
17
100
AcDbEntity
  8
bottom_1
100
AcDbLine
 10
65.5
 20
133.0769230769231
 30
0.0
 11
65.5
 21
123.4230769230769
 31
0.0
  0
LINE
  5
2AF
330
17
100
AcDbEntity
  8
bottom_1
100
AcDbLine
 10
68.25
 20
123.4230769230769
 30
0.0
 11
65.5
 21
123.4230769230769
 31
0.0
  0
LINE
  5
2B0
330
17
100
AcDbEntity
  8
bottom_1
100
AcDbLine
 10
68.25
 20
123.4230769230769
 30
0.0
 11
68.25
 21
113.76923076923076
 31
0.0
  0
LINE
  5
2B1
330
17
100
AcDbEntity
  8
bottom_1
100
AcDbLine
 10
68.25
 20
113.76923076923076
 30
0.0
 11
65.5
 21
113.76923076923076
 31
0.0
  0
LINE
  5
2B2
330
17
100
AcDbEntity
  8
bottom_1
100
AcDbLine
 10
65.5
 20
113.76923076923076
 30
0.0
 11
65.5
 21
104.11538461538461
 31
0.0
  0
LINE
  5
2B3
330
17
100
AcDbEntity
  8
bottom_1
100
AcDbLine
 10
68.25
 20
104.11538461538461
 30
0.0
 11
65.5
 21
104.11538461538461
 31
0.0
  0
LINE
  5
2B4
330
17
100
AcDbEntity
  8
bottom_1
100
AcDbLine
 10
68.25
 20
104.11538461538461
 30
0.0
 11
68.25
 21
94.46153846153845
 31
0.0
  0
LINE
  5
2B5
330
17
100
AcDbEntity
  8
bottom_1
100
AcDbLine
 10
68.25
 20
94.46153846153845
 30
0.0
 11
65.5
 21
94.46153846153845
 31
0.0
  0
LINE
  5
2B6
330
17
100
AcDbEntity
  8
bottom_1
100
AcDbLine
 10
65.5
 20
94.46153846153845
 30
0.0
 11
65.5
 21
84.80769230769229
 31
0.0
  0
LINE
  5
2B7
330
17
100
AcDbEntity
  8
bottom_1
100
AcDbLine
 10
68.25
 20
84.80769230769229
 30
0.0
 11
65.5
 21
84.80769230769229
 31
0.0
  0
LINE
  5
2B8
330
17
100
AcDbEntity
  8
bottom_1
100
AcDbLine
 10
68.25
 20
84.80769230769229
 30
0.0
 11
68.25
 21
75.15384615384615
 31
0.0
  0
LINE
  5
2B9
330
17
100
AcDbEntity
  8
bottom_1
100
AcDbLine
 10
68.25
 20
75.15384615384615
 30
0.0
 11
65.5
 21
75.15384615384615
 31
0.0
  0
LINE
  5
2BA
330
17
100
AcDbEntity
  8
bottom_1
100
AcDbLine
 10
65.5
 20
75.15384615384615
 30
0.0
 11
65.5
 21
65.5
 31
0.0
  0
LINE
  5
2BB
330
17
100
AcDbEntity
  8
bottom_1
100
AcDbLine
 10
65.5
 20
65.5
 30
0.0
 11
75.15384615384615
 21
65.5
 31
0.0
  0
LINE
  5
2BC
330
17
100
AcDbEntity
  8
bottom_1
100
AcDbLine
 10
75.15384615384615
 20
68.25000000000003
 30
0.0
 11
75.15384615384615
 21
65.5
 31
0.0
  0
LINE
  5
2BD
330
17
100
AcDbEntity
  8
bottom_1
100
AcDbLine
 10
75.15384615384615
 20
68.25000000000003
 30
0.0
 11
84.80769230769229
 21
68.25000000000003
 31
0.0
  0
LINE
  5
2BE
330
17
100
AcDbEntity
  8
bottom_1
100
AcDbLine
 10
84.80769230769229
 20
68.25000000000003
 30
0.0
 11
84.80769230769229
 21
65.5
 31
0.0
  0
LINE
  5
2BF
330
17
100
AcDbEntity
  8
bottom_1
100
AcDbLine
 10
84.80769230769229
 20
65.5
 30
0.0
 11
94.46153846153845
 21
65.5
 31
0.0
  0
LINE
  5
2C1
330
17
100
AcDbEntity
  8
side-b_1
100
AcDbLine
 10
76.8300000000001
 20
273.8300000000001
 30
0.0
 11
74.0800000000001
 21
273.8300000000001
 31
0.0
  0
LINE
  5
2C2
330
17
100
AcDbEntity
  8
side-b_1
100
AcDbLine
 10
76.8300000000001
 20
273.8300000000001
 30
0.0
 11
76.8300000000001
 21
267.83
 31
0.0
  0
LINE
  5
2C3
330
17
100
AcDbEntity
  8
side-b_1
100
AcDbLine
 10
83.73384615384624
 20
267.83
 30
0.0
 11
76.8300000000001
 21
267.83
 31
0.0
  0
LINE
  5
2C4
330
17
100
AcDbEntity
  8
side-b_1
100
AcDbLine
 10
83.73384615384624
 20
265.0800000000001
 30
0.0
 11
83.73384615384624
 21
267.83
 31
0.0
  0
LINE
  5
2C5
330
17
100
AcDbEntity
  8
side-b_1
100
AcDbLine
 10
83.73384615384624
 20
265.0800000000001
 30
0.0
 11
93.38769230769239
 21
265.0800000000001
 31
0.0
  0
LINE
  5
2C6
330
17
100
AcDbEntity
  8
side-b_1
100
AcDbLine
 10
93.38769230769239
 20
265.0800000000001
 30
0.0
 11
93.38769230769239
 21
267.83
 31
0.0
  0
LINE
  5
2C7
330
17
100
AcDbEntity
  8
side-b_1
100
AcDbLine
 10
103.04153846153855
 20
267.83
 30
0.0
 11
93.38769230769239
 21
267.83
 31
0.0
  0
LINE
  5
2C8
330
17
100
AcDbEntity
  8
side-b_1
100
AcDbLine
 10
103.04153846153855
 20
265.0800000000001
 30
0.0
 11
103.04153846153855
 21
267.83
 31
0.0
  0
LINE
  5
2C9
330
17
100
AcDbEntity
  8
side-b_1
100
AcDbLine
 10
103.04153846153855
 20
265.0800000000001
 30
0.0
 11
112.69538461538471
 21
265.0800000000001
 31
0.0
  0
LINE
  5
2CA
330
17
100
AcDbEntity
  8
side-b_1
100
AcDbLine
 10
112.69538461538471
 20
265.0800000000001
 30
0.0
 11
112.69538461538471
 21
267.83
 31
0.0
  0
LINE
  5
2CB
330
17
100
AcDbEntity
  8
side-b_1
100
AcDbLine
 10
122.34923076923087
 20
267.83
 30
0.0
 11
112.69538461538471
 21
267.83
 31
0.0
  0
LINE
  5
2CC
330
17
100
AcDbEntity
  8
side-b_1
100
AcDbLine
 10
122.34923076923087
 20
265.0800000000001
 30
0.0
 11
122.34923076923087
 21
267.83
 31
0.0
  0
LINE
  5
2CD
330
17
100
AcDbEntity
  8
side-b_1
100
AcDbLine
 10
122.34923076923087
 20
265.0800000000001
 30
0.0
 11
132.003076923077
 21
265.0800000000001
 31
0.0
  0
LINE
  5
2CE
330
17
100
AcDbEntity
  8
side-b_1
100
AcDbLine
 10
132.003076923077
 20
265.0800000000001
 30
0.0
 11
132.003076923077
 21
267.83
 31
0.0
  0
LINE
  5
2CF
330
17
100
AcDbEntity
  8
side-b_1
100
AcDbLine
 10
141.6569230769232
 20
267.83
 30
0.0
 11
132.003076923077
 21
267.83
 31
0.0
  0
LINE
  5
2D0
330
17
100
AcDbEntity
  8
side-b_1
100
AcDbLine
 10
141.6569230769232
 20
265.0800000000001
 30
0.0
 11
141.6569230769232
 21
267.83
 31
0.0
  0
LINE
  5
2D1
330
17
100
AcDbEntity
  8
side-b_1
100
AcDbLine
 10
141.6569230769232
 20
265.0800000000001
 30
0.0
 11
151.31076923076932
 21
265.0800000000001
 31
0.0
  0
LINE
  5
2D2
330
17
100
AcDbEntity
  8
side-b_1
100
AcDbLine
 10
151.31076923076932
 20
265.0800000000001
 30
0.0
 11
151.31076923076932
 21
267.83
 31
0.0
  0
LINE
  5
2D3
330
17
100
AcDbEntity
  8
side-b_1
100
AcDbLine
 10
160.96461538461548
 20
267.83
 30
0.0
 11
151.31076923076932
 21
267.83
 31
0.0
  0
LINE
  5
2D4
330
17
100
AcDbEntity
  8
side-b_1
100
AcDbLine
 10
160.96461538461548
 20
265.0800000000001
 30
0.0
 11
160.96461538461548
 21
267.83
 31
0.0
  0
LINE
  5
2D5
330
17
100
AcDbEntity
  8
side-b_1
100
AcDbLine
 10
160.96461538461548
 20
265.0800000000001
 30
0.0
 11
170.61846153846164
 21
265.0800000000001
 31
0.0
  0
LINE
  5
2D6
330
17
100
AcDbEntity
  8
side-b_1
100
AcDbLine
 10
170.61846153846164
 20
265.0800000000001
 30
0.0
 11
170.61846153846164
 21
267.83
 31
0.0
  0
LINE
  5
2D7
330
17
100
AcDbEntity
  8
side-b_1
100
AcDbLine
 10
180.27230769230778
 20
267.83
 30
0.0
 11
170.61846153846164
 21
267.83
 31
0.0
  0
LINE
  5
2D8
330
17
100
AcDbEntity
  8
side-b_1
100
AcDbLine
 10
180.27230769230778
 20
265.0800000000001
 30
0.0
 11
180.27230769230778
 21
267.83
 31
0.0
  0
LINE
  5
2D9
330
17
100
AcDbEntity
  8
side-b_1
100
AcDbLine
 10
180.27230769230778
 20
265.0800000000001
 30
0.0
 11
189.9261538461539
 21
265.0800000000001
 31
0.0
  0
LINE
  5
2DA
330
17
100
AcDbEntity
  8
side-b_1
100
AcDbLine
 10
189.9261538461539
 20
265.0800000000001
 30
0.0
 11
189.9261538461539
 21
267.83
 31
0.0
  0
LINE
  5
2DB
330
17
100
AcDbEntity
  8
side-b_1
100
AcDbLine
 10
196.8300000000001
 20
267.83
 30
0.0
 11
189.9261538461539
 21
267.83
 31
0.0
  0
LINE
  5
2DC
330
17
100
AcDbEntity
  8
side-b_1
100
AcDbLine
 10
196.8300000000001
 20
267.83
 30
0.0
 11
196.8300000000001
 21
273.8300000000001
 31
0.0
  0
LINE
  5
2DD
330
17
100
AcDbEntity
  8
side-b_1
100
AcDbLine
 10
196.8300000000001
 20
273.8300000000001
 30
0.0
 11
199.5800000000001
 21
273.8300000000001
 31
0.0
  0
LINE
  5
2DE
330
17
100
AcDbEntity
  8
side-b_1
100
AcDbLine
 10
199.5800000000001
 20
279.8300000000001
 30
0.0
 11
199.5800000000001
 21
273.8300000000001
 31
0.0
  0
LINE
  5
2DF
330
17
100
AcDbEntity
  8
side-b_1
100
AcDbLine
 10
196.8300000000001
 20
279.8300000000001
 30
0.0
 11
199.5800000000001
 21
279.8300000000001
 31
0.0
  0
LINE
  5
2E0
330
17
100
AcDbEntity
  8
side-b_1
100
AcDbLine
 10
196.8300000000001
 20
279.8300000000001
 30
0.0
 11
196.8300000000001
 21
285.8300000000001
 31
0.0
  0
LINE
  5
2E1
330
17
100
AcDbEntity
  8
side-b_1
100
AcDbLine
 10
196.8300000000001
 20
285.8300000000001
 30
0.0
 11
199.5800000000001
 21
285.8300000000001
 31
0.0
  0
LINE
  5
2E2
330
17
100
AcDbEntity
  8
side-b_1
100
AcDbLine
 10
199.5800000000001
 20
291.8300000000001
 30
0.0
 11
199.5800000000001
 21
285.8300000000001
 31
0.0
  0
LINE
  5
2E3
330
17
100
AcDbEntity
  8
side-b_1
100
AcDbLine
 10
196.8300000000001
 20
291.8300000000001
 30
0.0
 11
199.5800000000001
 21
291.8300000000001
 31
0.0
  0
LINE
  5
2E4
330
17
100
AcDbEntity
  8
side-b_1
100
AcDbLine
 10
196.8300000000001
 20
291.8300000000001
 30
0.0
 11
196.8300000000001
 21
297.8300000000001
 31
0.0
  0
LINE
  5
2E5
330
17
100
AcDbEntity
  8
side-b_1
100
AcDbLine
 10
76.8300000000001
 20
297.8300000000001
 30
0.0
 11
196.8300000000001
 21
297.8300000000001
 31
0.0
  0
LINE
  5
2E6
330
17
100
AcDbEntity
  8
side-b_1
100
AcDbLine
 10
76.8300000000001
 20
297.8300000000001
 30
0.0
 11
76.8300000000001
 21
291.8300000000001
 31
0.0
  0
LINE
  5
2E7
330
17
100
AcDbEntity
  8
side-b_1
100
AcDbLine
 10
76.8300000000001
 20
291.8300000000001
 30
0.0
 11
74.0800000000001
 21
291.8300000000001
 31
0.0
  0
LINE
  5
2E8
330
17
100
AcDbEntity
  8
side-b_1
100
AcDbLine
 10
74.0800000000001
 20
291.8300000000001
 30
0.0
 11
74.0800000000001
 21
285.8300000000001
 31
0.0
  0
LINE
  5
2E9
330
17
100
AcDbEntity
  8
side-b_1
100
AcDbLine
 10
76.8300000000001
 20
285.8300000000001
 30
0.0
 11
74.0800000000001
 21
285.8300000000001
 31
0.0
  0
LINE
  5
2EA
330
17
100
AcDbEntity
  8
side-b_1
100
AcDbLine
 10
76.8300000000001
 20
285.8300000000001
 30
0.0
 11
76.8300000000001
 21
279.8300000000001
 31
0.0
  0
LINE
  5
2EB
330
17
100
AcDbEntity
  8
side-b_1
100
AcDbLine
 10
76.8300000000001
 20
279.8300000000001
 30
0.0
 11
74.0800000000001
 21
279.8300000000001
 31
0.0
  0
LINE
  5
2EC
330
17
100
AcDbEntity
  8
side-b_1
100
AcDbLine
 10
74.0800000000001
 20
279.8300000000001
 30
0.0
 11
74.0800000000001
 21
273.8300000000001
 31
0.0
  0
LINE
  5
2EE
330
17
100
AcDbEntity
  8
side-b_2
100
AcDbLine
 10
182.25
 20
68.25
 30
0.0
 11
182.25
 21
65.5
 31
0.0
  0
LINE
  5
2EF
330
17
100
AcDbEntity
  8
side-b_2
100
AcDbLine
 10
182.25
 20
68.25
 30
0.0
 11
188.2500000000001
 21
68.25
 31
0.0
  0
LINE
  5
2F0
330
17
100
AcDbEntity
  8
side-b_2
100
AcDbLine
 10
188.2500000000001
 20
75.15384615384615
 30
0.0
 11
188.2500000000001
 21
68.25
 31
0.0
  0
LINE
  5
2F1
330
17
100
AcDbEntity
  8
side-b_2
100
AcDbLine
 10
191.0
 20
75.15384615384615
 30
0.0
 11
188.2500000000001
 21
75.15384615384615
 31
0.0
  0
LINE
  5
2F2
330
17
100
AcDbEntity
  8
side-b_2
100
AcDbLine
 10
191.0
 20
75.15384615384615
 30
0.0
 11
191.0
 21
84.80769230769229
 31
0.0
  0
LINE
  5
2F3
330
17
100
AcDbEntity
  8
side-b_2
100
AcDbLine
 10
191.0
 20
84.80769230769229
 30
0.0
 11
188.2500000000001
 21
84.80769230769229
 31
0.0
  0
LINE
  5
2F4
330
17
100
AcDbEntity
  8
side-b_2
100
AcDbLine
 10
188.2500000000001
 20
94.46153846153845
 30
0.0
 11
188.2500000000001
 21
84.80769230769229
 31
0.0
  0
LINE
  5
2F5
330
17
100
AcDbEntity
  8
side-b_2
100
AcDbLine
 10
191.0
 20
94.46153846153845
 30
0.0
 11
188.2500000000001
 21
94.46153846153845
 31
0.0
  0
LINE
  5
2F6
330
17
100
AcDbEntity
  8
side-b_2
100
AcDbLine
 10
191.0
 20
94.46153846153845
 30
0.0
 11
191.0
 21
104.11538461538461
 31
0.0
  0
LINE
  5
2F7
330
17
100
AcDbEntity
  8
side-b_2
100
AcDbLine
 10
191.0
 20
104.11538461538461
 30
0.0
 11
188.2500000000001
 21
104.11538461538461
 31
0.0
  0
LINE
  5
2F8
330
17
100
AcDbEntity
  8
side-b_2
100
AcDbLine
 10
188.2500000000001
 20
113.76923076923077
 30
0.0
 11
188.2500000000001
 21
104.11538461538461
 31
0.0
  0
LINE
  5
2F9
330
17
100
AcDbEntity
  8
side-b_2
100
AcDbLine
 10
191.0
 20
113.76923076923077
 30
0.0
 11
188.2500000000001
 21
113.76923076923077
 31
0.0
  0
LINE
  5
2FA
330
17
100
AcDbEntity
  8
side-b_2
100
AcDbLine
 10
191.0
 20
113.76923076923077
 30
0.0
 11
191.0
 21
123.42307692307692
 31
0.0
  0
LINE
  5
2FB
330
17
100
AcDbEntity
  8
side-b_2
100
AcDbLine
 10
191.0
 20
123.42307692307692
 30
0.0
 11
188.2500000000001
 21
123.42307692307692
 31
0.0
  0
LINE
  5
2FC
330
17
100
AcDbEntity
  8
side-b_2
100
AcDbLine
 10
188.2500000000001
 20
133.0769230769231
 30
0.0
 11
188.2500000000001
 21
123.42307692307692
 31
0.0
  0
LINE
  5
2FD
330
17
100
AcDbEntity
  8
side-b_2
100
AcDbLine
 10
191.0
 20
133.0769230769231
 30
0.0
 11
188.2500000000001
 21
133.0769230769231
 31
0.0
  0
LINE
  5
2FE
330
17
100
AcDbEntity
  8
side-b_2
100
AcDbLine
 10
191.0
 20
133.0769230769231
 30
0.0
 11
191.0
 21
142.73076923076923
 31
0.0
  0
LINE
  5
2FF
330
17
100
AcDbEntity
  8
side-b_2
100
AcDbLine
 10
191.0
 20
142.73076923076923
 30
0.0
 11
188.2500000000001
 21
142.73076923076923
 31
0.0
  0
LINE
  5
300
330
17
100
AcDbEntity
  8
side-b_2
100
AcDbLine
 10
188.2500000000001
 20
152.3846153846154
 30
0.0
 11
188.2500000000001
 21
142.73076923076923
 31
0.0
  0
LINE
  5
301
330
17
100
AcDbEntity
  8
side-b_2
100
AcDbLine
 10
191.0
 20
152.3846153846154
 30
0.0
 11
188.2500000000001
 21
152.3846153846154
 31
0.0
  0
LINE
  5
302
330
17
100
AcDbEntity
  8
side-b_2
100
AcDbLine
 10
191.0
 20
152.3846153846154
 30
0.0
 11
191.0
 21
162.03846153846155
 31
0.0
  0
LINE
  5
303
330
17
100
AcDbEntity
  8
side-b_2
100
AcDbLine
 10
191.0
 20
162.03846153846155
 30
0.0
 11
188.2500000000001
 21
162.03846153846155
 31
0.0
  0
LINE
  5
304
330
17
100
AcDbEntity
  8
side-b_2
100
AcDbLine
 10
188.2500000000001
 20
171.69230769230768
 30
0.0
 11
188.2500000000001
 21
162.03846153846155
 31
0.0
  0
LINE
  5
305
330
17
100
AcDbEntity
  8
side-b_2
100
AcDbLine
 10
191.0
 20
171.69230769230768
 30
0.0
 11
188.2500000000001
 21
171.69230769230768
 31
0.0
  0
LINE
  5
306
330
17
100
AcDbEntity
  8
side-b_2
100
AcDbLine
 10
191.0
 20
171.69230769230768
 30
0.0
 11
191.0
 21
181.3461538461538
 31
0.0
  0
LINE
  5
307
330
17
100
AcDbEntity
  8
side-b_2
100
AcDbLine
 10
191.0
 20
181.3461538461538
 30
0.0
 11
188.2500000000001
 21
181.3461538461538
 31
0.0
  0
LINE
  5
308
330
17
100
AcDbEntity
  8
side-b_2
100
AcDbLine
 10
188.2500000000001
 20
188.25
 30
0.0
 11
188.2500000000001
 21
181.3461538461538
 31
0.0
  0
LINE
  5
309
330
17
100
AcDbEntity
  8
side-b_2
100
AcDbLine
 10
188.2500000000001
 20
188.25
 30
0.0
 11
182.25
 21
188.25
 31
0.0
  0
LINE
  5
30A
330
17
100
AcDbEntity
  8
side-b_2
100
AcDbLine
 10
182.25
 20
188.25
 30
0.0
 11
182.25
 21
191.0
 31
0.0
  0
LINE
  5
30B
330
17
100
AcDbEntity
  8
side-b_2
100
AcDbLine
 10
176.25
 20
191.0
 30
0.0
 11
182.25
 21
191.0
 31
0.0
  0
LINE
  5
30C
330
17
100
AcDbEntity
  8
side-b_2
100
AcDbLine
 10
176.25
 20
188.25
 30
0.0
 11
176.25
 21
191.0
 31
0.0
  0
LINE
  5
30D
330
17
100
AcDbEntity
  8
side-b_2
100
AcDbLine
 10
176.25
 20
188.25
 30
0.0
 11
170.25
 21
188.25
 31
0.0
  0
LINE
  5
30E
330
17
100
AcDbEntity
  8
side-b_2
100
AcDbLine
 10
170.25
 20
188.25
 30
0.0
 11
170.25
 21
191.0
 31
0.0
  0
LINE
  5
30F
330
17
100
AcDbEntity
  8
side-b_2
100
AcDbLine
 10
164.25
 20
191.0
 30
0.0
 11
170.25
 21
191.0
 31
0.0
  0
LINE
  5
310
330
17
100
AcDbEntity
  8
side-b_2
100
AcDbLine
 10
164.25
 20
188.25
 30
0.0
 11
164.25
 21
191.0
 31
0.0
  0
LINE
  5
311
330
17
100
AcDbEntity
  8
side-b_2
100
AcDbLine
 10
164.25
 20
188.25
 30
0.0
 11
158.25
 21
188.25
 31
0.0
  0
LINE
  5
312
330
17
100
AcDbEntity
  8
side-b_2
100
AcDbLine
 10
158.25
 20
68.25
 30
0.0
 11
158.25
 21
188.25
 31
0.0
  0
LINE
  5
313
330
17
100
AcDbEntity
  8
side-b_2
100
AcDbLine
 10
158.25
 20
68.25
 30
0.0
 11
164.25
 21
68.25
 31
0.0
  0
LINE
  5
314
330
17
100
AcDbEntity
  8
side-b_2
100
AcDbLine
 10
164.25
 20
68.25
 30
0.0
 11
164.25
 21
65.5
 31
0.0
  0
LINE
  5
315
330
17
100
AcDbEntity
  8
side-b_2
100
AcDbLine
 10
164.25
 20
65.5
 30
0.0
 11
170.25
 21
65.5
 31
0.0
  0
LINE
  5
316
330
17
100
AcDbEntity
  8
side-b_2
100
AcDbLine
 10
170.25
 20
68.25
 30
0.0
 11
170.25
 21
65.5
 31
0.0
  0
LINE
  5
317
330
17
100
AcDbEntity
  8
side-b_2
100
AcDbLine
 10
170.25
 20
68.25
 30
0.0
 11
176.25
 21
68.25
 31
0.0
  0
LINE
  5
318
330
17
100
AcDbEntity
  8
side-b_2
100
AcDbLine
 10
176.25
 20
68.25
 30
0.0
 11
176.25
 21
65.5
 31
0.0
  0
LINE
  5
319
330
17
100
AcDbEntity
  8
side-b_2
100
AcDbLine
 10
176.25
 20
65.5
 30
0.0
 11
182.25
 21
65.5
 31
0.0
  0
ENDSEC
  0
SECTION
  2
OBJECTS
  0
DICTIONARY
  5
A
330
0
100
AcDbDictionary
280
0
281
1
  3
ACAD_COLOR
350
B
  3
ACAD_GROUP
350
C
  3
ACAD_LAYOUT
350
D
  3
ACAD_MATERIAL
350
E
  3
ACAD_MLEADERSTYLE
350
F
  3
ACAD_MLINESTYLE
350
10
  3
ACAD_PLOTSETTINGS
350
11
  3
ACAD_PLOTSTYLENAME
350
12
  3
ACAD_SCALELIST
350
14
  3
ACAD_TABLESTYLE
350
15
  3
ACAD_VISUALSTYLE
350
16
  3
EZDXF_META
350
2D
  0
DICTIONARY
  5
B
330
A
100
AcDbDictionary
280
0
281
1
  0
DICTIONARY
  5
C
330
A
100
AcDbDictionary
280
0
281
1
  0
DICTIONARY
  5
D
330
A
100
AcDbDictionary
280
0
281
1
  3
Model
350
1A
  3
Layout1
350
1E
  0
DICTIONARY
  5
E
330
A
100
AcDbDictionary
280
0
281
1
  3
ByBlock
350
1F
  3
ByLayer
350
20
  3
Global
350
21
  0
DICTIONARY
  5
F
330
A
100
AcDbDictionary
280
0
281
1
  3
Standard
350
2C
  0
DICTIONARY
  5
10
330
A
100
AcDbDictionary
280
0
281
1
  3
Standard
350
22
  0
DICTIONARY
  5
11
330
A
100
AcDbDictionary
280
0
281
1
  0
ACDBDICTIONARYWDFLT
  5
12
330
A
100
AcDbDictionary
280
0
281
1
  3
Normal
350
13
100
AcDbDictionaryWithDefault
340
13
  0
ACDBPLACEHOLDER
  5
13
330
12
  0
DICTIONARY
  5
14
330
A
100
AcDbDictionary
280
0
281
1
  0
DICTIONARY
  5
15
330
A
100
AcDbDictionary
280
0
281
1
  0
DICTIONARY
  5
16
330
A
100
AcDbDictionary
280
0
281
1
  0
LAYOUT
  5
1A
330
D
100
AcDbPlotSettings
  1

  4
A3
  6

 40
7.5
 41
20.0
 42
7.5
 43
20.0
 44
420.0
 45
297.0
 46
0.0
 47
0.0
 48
0.0
 49
0.0
140
0.0
141
0.0
142
1.0
143
1.0
 70
1024
 72
1
 73
0
 74
5
  7

 75
16
 76
0
 77
2
 78
300
147
1.0
148
0.0
149
0.0
100
AcDbLayout
  1
Model
 70
1
 71
0
 10
0.0
 20
0.0
 11
420.0
 21
297.0
 12
0.0
 22
0.0
 32
0.0
 14
1e+20
 24
1e+20
 34
1e+20
 15
-1e+20
 25
-1e+20
 35
-1e+20
146
0.0
 13
0.0
 23
0.0
 33
0.0
 16
1.0
 26
0.0
 36
0.0
 17
0.0
 27
1.0
 37
0.0
 76
1
330
17
  0
LAYOUT
  5
1E
330
D
100
AcDbPlotSettings
  1

  4
A3
  6

 40
7.5
 41
20.0
 42
7.5
 43
20.0
 44
420.0
 45
297.0
 46
0.0
 47
0.0
 48
0.0
 49
0.0
140
0.0
141
0.0
142
1.0
143
1.0
 70
0
 72
1
 73
0
 74
5
  7

 75
16
 76
0
 77
2
 78
300
147
1.0
148
0.0
149
0.0
100
AcDbLayout
  1
Layout1
 70
1
 71
1
 10
0.0
 20
0.0
 11
420.0
 21
297.0
 12
0.0
 22
0.0
 32
0.0
 14
1e+20
 24
1e+20
 34
1e+20
 15
-1e+20
 25
-1e+20
 35
-1e+20
146
0.0
 13
0.0
 23
0.0
 33
0.0
 16
1.0
 26
0.0
 36
0.0
 17
0.0
 27
1.0
 37
0.0
 76
1
330
1B
  0
MATERIAL
  5
1F
102
{ACAD_REACTORS
330
E
102
}
330
E
100
AcDbMaterial
  1
ByBlock
  2

 70
0
 40
1.0
 71
1
 41
1.0
 91
-1023410177
 42
1.0
 72
1
  3

 73
1
 74
1
 75
1
 44
0.5
 73
0
 45
1.0
 46
1.0
 77
1
  4

 78
1
 79
1
170
1
 48
1.0
171
1
  6

172
1
173
1
174
1
140
1.0
141
1.0
175
1
  7

176
1
177
1
178
1
143
1.0
179
1
  8

270
1
271
1
272
1
145
1.0
146
1.0
273
1
  9

274
1
275
1
276
1
 42
1.0
 72
1
  3

 73
1
 74
1
 75
1
 94
63
  0
MATERIAL
  5
20
102
{ACAD_REACTORS
330
E
102
}
330
E
100
AcDbMaterial
  1
ByLayer
  2

 70
0
 40
1.0
 71
1
 41
1.0
 91
-1023410177
 42
1.0
 72
1
  3

 73
1
 74
1
 75
1
 44
0.5
 73
0
 45
1.0
 46
1.0
 77
1
  4

 78
1
 79
1
170
1
 48
1.0
171
1
  6

172
1
173
1
174
1
140
1.0
141
1.0
175
1
  7

176
1
177
1
178
1
143
1.0
179
1
  8

270
1
271
1
272
1
145
1.0
146
1.0
273
1
  9

274
1
275
1
276
1
 42
1.0
 72
1
  3

 73
1
 74
1
 75
1
 94
63
  0
MATERIAL
  5
21
102
{ACAD_REACTORS
330
E
102
}
330
E
100
AcDbMaterial
  1
Global
  2

 70
0
 40
1.0
 71
1
 41
1.0
 91
-1023410177
 42
1.0
 72
1
  3

 73
1
 74
1
 75
1
 44
0.5
 73
0
 45
1.0
 46
1.0
 77
1
  4

 78
1
 79
1
170
1
 48
1.0
171
1
  6

172
1
173
1
174
1
140
1.0
141
1.0
175
1
  7

176
1
177
1
178
1
143
1.0
179
1
  8

270
1
271
1
272
1
145
1.0
146
1.0
273
1
  9

274
1
275
1
276
1
 42
1.0
 72
1
  3

 73
1
 74
1
 75
1
 94
63
  0
MLINESTYLE
  5
22
102
{ACAD_REACTORS
330
10
102
}
330
10
100
AcDbMlineStyle
  2
Standard
 70
0
  3

 62
256
 51
90.0
 52
90.0
 71
2
 49
0.5
 62
256
  6
BYLAYER
 49
-0.5
 62
256
  6
BYLAYER
  0
MLEADERSTYLE
  5
2C
102
{ACAD_REACTORS
330
F
102
}
330
F
100
AcDbMLeaderStyle
179
2
170
2
171
1
172
0
 90
2
 40
0.0
 41
0.0
173
1
 91
-1056964608
 92
-2
290
1
 42
2.0
291
1
 43
8.0
  3
Standard
 44
4.0
300

342
29
174
1
175
1
176
0
178
1
 93
-1056964608
 45
4.0
292
0
297
0
 46
4.0
 94
-1056964608
 47
1.0
 49
1.0
140
1.0
294
1
141
0.0
177
0
142
1.0
295
0
296
0
143
3.75
271
0
272
9
273
9
  0
DICTIONARY
  5
2D
330
A
100
AcDbDictionary
281
1
  3
CREATED_BY_EZDXF
350
2E
  3
WRITTEN_BY_EZDXF
350
31C
  0
DICTIONARYVAR
  5
2E
330
2D
100
DictionaryVariables
280
0
  1
1.3.3 @ 2024-09-08T00:28:31.213957+00:00
  0
DICTIONARYVAR
  5
31C
330
2D
100
DictionaryVariables
280
0
  1
1.3.3 @ 2024-09-08T00:28:31.225712+00:00
  0
ENDSEC
  0
EOF
