  0
SECTION
  2
HEADER
  9
$ACADVER
  1
AC1027
  9
$ACADMAINTVER
 70
105
  9
$DWGCODEPAGE
  3
ANSI_1252
  9
$LASTSAVEDBY
  1
ezdxf
  9
$REQUIREDVERSIONS
160
0
  9
$INSBASE
 10
0.0
 20
0.0
 30
0.0
  9
$EXTMIN
 10
1e+20
 20
1e+20
 30
1e+20
  9
$EXTMAX
 10
-1e+20
 20
-1e+20
 30
-1e+20
  9
$LIMMIN
 10
0.0
 20
0.0
  9
$LIMMAX
 10
420.0
 20
297.0
  9
$ORTHOMODE
 70
0
  9
$REGENMODE
 70
1
  9
$FILLMODE
 70
1
  9
$QTEXTMODE
 70
0
  9
$MIRRTEXT
 70
1
  9
$LTSCALE
 40
1.0
  9
$ATTMODE
 70
1
  9
$TEXTSIZE
 40
2.5
  9
$TRACEWID
 40
1.0
  9
$TEXTSTYLE
  7
Standard
  9
$CLAYER
  8
0
  9
$CELTYPE
  6
ByLayer
  9
$CECOLOR
 62
256
  9
$CELTSCALE
 40
1.0
  9
$DISPSILH
 70
0
  9
$DIMSCALE
 40
1.0
  9
$DIMASZ
 40
2.5
  9
$DIMEXO
 40
0.625
  9
$DIMDLI
 40
3.75
  9
$DIMRND
 40
0.0
  9
$DIMDLE
 40
0.0
  9
$DIMEXE
 40
1.25
  9
$DIMTP
 40
0.0
  9
$DIMTM
 40
0.0
  9
$DIMTXT
 40
2.5
  9
$DIMCEN
 40
2.5
  9
$DIMTSZ
 40
0.0
  9
$DIMTOL
 70
0
  9
$DIMLIM
 70
0
  9
$DIMTIH
 70
0
  9
$DIMTOH
 70
0
  9
$DIMSE1
 70
0
  9
$DIMSE2
 70
0
  9
$DIMTAD
 70
1
  9
$DIMZIN
 70
8
  9
$DIMBLK
  1

  9
$DIMASO
 70
1
  9
$DIMSHO
 70
1
  9
$DIMPOST
  1

  9
$DIMAPOST
  1

  9
$DIMALT
 70
0
  9
$DIMALTD
 70
3
  9
$DIMALTF
 40
0.03937007874
  9
$DIMLFAC
 40
1.0
  9
$DIMTOFL
 70
1
  9
$DIMTVP
 40
0.0
  9
$DIMTIX
 70
0
  9
$DIMSOXD
 70
0
  9
$DIMSAH
 70
0
  9
$DIMBLK1
  1

  9
$DIMBLK2
  1

  9
$DIMSTYLE
  2
ISO-25
  9
$DIMCLRD
 70
0
  9
$DIMCLRE
 70
0
  9
$DIMCLRT
 70
0
  9
$DIMTFAC
 40
1.0
  9
$DIMGAP
 40
0.625
  9
$DIMJUST
 70
0
  9
$DIMSD1
 70
0
  9
$DIMSD2
 70
0
  9
$DIMTOLJ
 70
0
  9
$DIMTZIN
 70
8
  9
$DIMALTZ
 70
0
  9
$DIMALTTZ
 70
0
  9
$DIMUPT
 70
0
  9
$DIMDEC
 70
2
  9
$DIMTDEC
 70
2
  9
$DIMALTU
 70
2
  9
$DIMALTTD
 70
3
  9
$DIMTXSTY
  7
Standard
  9
$DIMAUNIT
 70
0
  9
$DIMADEC
 70
0
  9
$DIMALTRND
 40
0.0
  9
$DIMAZIN
 70
0
  9
$DIMDSEP
 70
44
  9
$DIMATFIT
 70
3
  9
$DIMFRAC
 70
0
  9
$DIMLDRBLK
  1

  9
$DIMLUNIT
 70
2
  9
$DIMLWD
 70
-2
  9
$DIMLWE
 70
-2
  9
$DIMTMOVE
 70
0
  9
$DIMFXL
 40
1.0
  9
$DIMFXLON
 70
0
  9
$DIMJOGANG
 40
0.785398163397
  9
$DIMTFILL
 70
0
  9
$DIMTFILLCLR
 70
0
  9
$DIMARCSYM
 70
0
  9
$DIMLTYPE
  6

  9
$DIMLTEX1
  6

  9
$DIMLTEX2
  6

  9
$DIMTXTDIRECTION
 70
0
  9
$LUNITS
 70
2
  9
$LUPREC
 70
4
  9
$SKETCHINC
 40
1.0
  9
$FILLETRAD
 40
10.0
  9
$AUNITS
 70
0
  9
$AUPREC
 70
2
  9
$MENU
  1
.
  9
$ELEVATION
 40
0.0
  9
$PELEVATION
 40
0.0
  9
$THICKNESS
 40
0.0
  9
$LIMCHECK
 70
0
  9
$CHAMFERA
 40
0.0
  9
$CHAMFERB
 40
0.0
  9
$CHAMFERC
 40
0.0
  9
$CHAMFERD
 40
0.0
  9
$SKPOLY
 70
0
  9
$TDCREATE
 40
2460561.5175578706
  9
$TDUCREATE
 40
2458532.153996898
  9
$TDUPDATE
 40
2460561.5175578706
  9
$TDUUPDATE
 40
2458532.1544311
  9
$TDINDWG
 40
0.0
  9
$TDUSRTIMER
 40
0.0
  9
$USRTIMER
 70
1
  9
$ANGBASE
 50
0.0
  9
$ANGDIR
 70
0
  9
$PDMODE
 70
0
  9
$PDSIZE
 40
0.0
  9
$PLINEWID
 40
0.0
  9
$SPLFRAME
 70
0
  9
$SPLINETYPE
 70
6
  9
$SPLINESEGS
 70
8
  9
$HANDSEED
  5
1CE
  9
$SURFTAB1
 70
6
  9
$SURFTAB2
 70
6
  9
$SURFTYPE
 70
6
  9
$SURFU
 70
6
  9
$SURFV
 70
6
  9
$UCSBASE
  2

  9
$UCSNAME
  2

  9
$UCSORG
 10
0.0
 20
0.0
 30
0.0
  9
$UCSXDIR
 10
1.0
 20
0.0
 30
0.0
  9
$UCSYDIR
 10
0.0
 20
1.0
 30
0.0
  9
$UCSORTHOREF
  2

  9
$UCSORTHOVIEW
 70
0
  9
$UCSORGTOP
 10
0.0
 20
0.0
 30
0.0
  9
$UCSORGBOTTOM
 10
0.0
 20
0.0
 30
0.0
  9
$UCSORGLEFT
 10
0.0
 20
0.0
 30
0.0
  9
$UCSORGRIGHT
 10
0.0
 20
0.0
 30
0.0
  9
$UCSORGFRONT
 10
0.0
 20
0.0
 30
0.0
  9
$UCSORGBACK
 10
0.0
 20
0.0
 30
0.0
  9
$PUCSBASE
  2

  9
$PUCSNAME
  2

  9
$PUCSORG
 10
0.0
 20
0.0
 30
0.0
  9
$PUCSXDIR
 10
1.0
 20
0.0
 30
0.0
  9
$PUCSYDIR
 10
0.0
 20
1.0
 30
0.0
  9
$PUCSORTHOREF
  2

  9
$PUCSORTHOVIEW
 70
0
  9
$PUCSORGTOP
 10
0.0
 20
0.0
 30
0.0
  9
$PUCSORGBOTTOM
 10
0.0
 20
0.0
 30
0.0
  9
$PUCSORGLEFT
 10
0.0
 20
0.0
 30
0.0
  9
$PUCSORGRIGHT
 10
0.0
 20
0.0
 30
0.0
  9
$PUCSORGFRONT
 10
0.0
 20
0.0
 30
0.0
  9
$PUCSORGBACK
 10
0.0
 20
0.0
 30
0.0
  9
$USERI1
 70
0
  9
$USERI2
 70
0
  9
$USERI3
 70
0
  9
$USERI4
 70
0
  9
$USERI5
 70
0
  9
$USERR1
 40
0.0
  9
$USERR2
 40
0.0
  9
$USERR3
 40
0.0
  9
$USERR4
 40
0.0
  9
$USERR5
 40
0.0
  9
$WORLDVIEW
 70
1
  9
$SHADEDGE
 70
3
  9
$SHADEDIF
 70
70
  9
$TILEMODE
 70
1
  9
$MAXACTVP
 70
64
  9
$PINSBASE
 10
0.0
 20
0.0
 30
0.0
  9
$PLIMCHECK
 70
0
  9
$PEXTMIN
 10
1e+20
 20
1e+20
 30
1e+20
  9
$PEXTMAX
 10
-1e+20
 20
-1e+20
 30
-1e+20
  9
$PLIMMIN
 10
0.0
 20
0.0
  9
$PLIMMAX
 10
420.0
 20
297.0
  9
$UNITMODE
 70
0
  9
$VISRETAIN
 70
1
  9
$PLINEGEN
 70
0
  9
$PSLTSCALE
 70
1
  9
$TREEDEPTH
 70
3020
  9
$CMLSTYLE
  2
Standard
  9
$CMLJUST
 70
0
  9
$CMLSCALE
 40
20.0
  9
$PROXYGRAPHICS
 70
1
  9
$MEASUREMENT
 70
1
  9
$CELWEIGHT
370
-1
  9
$ENDCAPS
280
0
  9
$JOINSTYLE
280
0
  9
$LWDISPLAY
290
0
  9
$INSUNITS
 70
6
  9
$HYPERLINKBASE
  1

  9
$STYLESHEET
  1

  9
$XEDIT
290
1
  9
$CEPSNTYPE
380
0
  9
$PSTYLEMODE
290
1
  9
$FINGERPRINTGUID
  2
{7DD1F39B-C5ED-490B-96F0-AC2E001531F0}
  9
$VERSIONGUID
  2
{E1D32EC4-B1D7-4EA0-B687-B9935BF3B2A2}
  9
$EXTNAMES
290
1
  9
$PSVPSCALE
 40
0.0
  9
$OLESTARTUP
290
0
  9
$SORTENTS
280
127
  9
$INDEXCTL
280
0
  9
$HIDETEXT
280
1
  9
$XCLIPFRAME
280
1
  9
$HALOGAP
280
0
  9
$OBSCOLOR
 70
257
  9
$OBSLTYPE
280
0
  9
$INTERSECTIONDISPLAY
280
0
  9
$INTERSECTIONCOLOR
 70
257
  9
$DIMASSOC
280
2
  9
$PROJECTNAME
  1

  9
$CAMERADISPLAY
290
0
  9
$LENSLENGTH
 40
50.0
  9
$CAMERAHEIGHT
 40
0.0
  9
$STEPSPERSEC
 40
24.0
  9
$STEPSIZE
 40
100.0
  9
$3DDWFPREC
 40
2.0
  9
$PSOLWIDTH
 40
0.005
  9
$PSOLHEIGHT
 40
0.08
  9
$LOFTANG1
 40
1.570796326795
  9
$LOFTANG2
 40
1.570796326795
  9
$LOFTMAG1
 40
0.0
  9
$LOFTMAG2
 40
0.0
  9
$LOFTPARAM
 70
7
  9
$LOFTNORMALS
280
1
  9
$LATITUDE
 40
37.795
  9
$LONGITUDE
 40
-122.394
  9
$NORTHDIRECTION
 40
0.0
  9
$TIMEZONE
 70
-8000
  9
$LIGHTGLYPHDISPLAY
280
1
  9
$TILEMODELIGHTSYNCH
280
1
  9
$CMATERIAL
347
20
  9
$SOLIDHIST
280
0
  9
$SHOWHIST
280
1
  9
$DWFFRAME
280
2
  9
$DGNFRAME
280
2
  9
$REALWORLDSCALE
290
1
  9
$INTERFERECOLOR
 62
256
  9
$CSHADOW
280
0
  9
$SHADOWPLANELOCATION
 40
0.0
  0
ENDSEC
  0
SECTION
  2
CLASSES
  0
CLASS
  1
ACDBDICTIONARYWDFLT
  2
AcDbDictionaryWithDefault
  3
ObjectDBX Classes
 90
0
 91
0
280
0
281
0
  0
CLASS
  1
SUN
  2
AcDbSun
  3
SCENEOE
 90
1153
 91
0
280
0
281
0
  0
CLASS
  1
VISUALSTYLE
  2
AcDbVisualStyle
  3
ObjectDBX Classes
 90
4095
 91
0
280
0
281
0
  0
CLASS
  1
MATERIAL
  2
AcDbMaterial
  3
ObjectDBX Classes
 90
1153
 91
0
280
0
281
0
  0
CLASS
  1
SCALE
  2
AcDbScale
  3
ObjectDBX Classes
 90
1153
 91
0
280
0
281
0
  0
CLASS
  1
TABLESTYLE
  2
AcDbTableStyle
  3
ObjectDBX Classes
 90
4095
 91
0
280
0
281
0
  0
CLASS
  1
MLEADERSTYLE
  2
AcDbMLeaderStyle
  3
ACDB_MLEADERSTYLE_CLASS
 90
4095
 91
0
280
0
281
0
  0
CLASS
  1
DICTIONARYVAR
  2
AcDbDictionaryVar
  3
ObjectDBX Classes
 90
0
 91
0
280
0
281
0
  0
CLASS
  1
CELLSTYLEMAP
  2
AcDbCellStyleMap
  3
ObjectDBX Classes
 90
1152
 91
0
280
0
281
0
  0
CLASS
  1
MENTALRAYRENDERSETTINGS
  2
AcDbMentalRayRenderSettings
  3
SCENEOE
 90
1024
 91
0
280
0
281
0
  0
CLASS
  1
ACDBDETAILVIEWSTYLE
  2
AcDbDetailViewStyle
  3
ObjectDBX Classes
 90
1025
 91
0
280
0
281
0
  0
CLASS
  1
ACDBSECTIONVIEWSTYLE
  2
AcDbSectionViewStyle
  3
ObjectDBX Classes
 90
1025
 91
0
280
0
281
0
  0
CLASS
  1
RASTERVARIABLES
  2
AcDbRasterVariables
  3
ISM
 90
0
 91
0
280
0
281
0
  0
CLASS
  1
LAYOUT
  2
AcDbLayout
  3
ObjectDBX Classes
 90
0
 91
0
280
0
281
0
  0
CLASS
  1
ACDBPLACEHOLDER
  2
AcDbPlaceHolder
  3
ObjectDBX Classes
 90
0
 91
0
280
0
281
0
  0
ENDSEC
  0
SECTION
  2
TABLES
  0
TABLE
  2
VPORT
  5
8
330
0
100
AcDbSymbolTable
 70
1
  0
VPORT
  5
23
330
8
100
AcDbSymbolTableRecord
100
AcDbViewportTableRecord
  2
*Active
 70
0
 10
0.0
 20
0.0
 11
1.0
 21
1.0
 12
0.0
 22
0.0
 13
0.0
 23
0.0
 14
0.5
 24
0.5
 15
0.5
 25
0.5
 16
0.0
 26
0.0
 36
1.0
 17
0.0
 27
0.0
 37
0.0
 40
1000.0
 41
1.34
 42
50.0
 43
0.0
 44
0.0
 50
0.0
 51
0.0
 71
0
 72
1000
 73
1
 74
3
 75
0
 76
0
 77
0
 78
0
281
0
 65
0
146
0.0
  0
ENDTAB
  0
TABLE
  2
LTYPE
  5
2
330
0
100
AcDbSymbolTable
 70
3
  0
LTYPE
  5
24
330
2
100
AcDbSymbolTableRecord
100
AcDbLinetypeTableRecord
  2
ByBlock
 70
0
  3

 72
65
 73
0
 40
0.0
  0
LTYPE
  5
25
330
2
100
AcDbSymbolTableRecord
100
AcDbLinetypeTableRecord
  2
ByLayer
 70
0
  3

 72
65
 73
0
 40
0.0
  0
LTYPE
  5
26
330
2
100
AcDbSymbolTableRecord
100
AcDbLinetypeTableRecord
  2
Continuous
 70
0
  3

 72
65
 73
0
 40
0.0
  0
ENDTAB
  0
TABLE
  2
LAYER
  5
1
330
0
100
AcDbSymbolTable
 70
16
  0
LAYER
  5
27
330
1
100
AcDbSymbolTableRecord
100
AcDbLayerTableRecord
  2
0
 70
0
 62
7
  6
Continuous
370
-3
390
13
347
21
  0
LAYER
  5
28
330
1
100
AcDbSymbolTableRecord
100
AcDbLayerTableRecord
  2
Defpoints
 70
0
 62
7
  6
Continuous
290
0
370
-3
390
13
347
21
  0
LAYER
  5
2F
330
1
100
AcDbSymbolTableRecord
100
AcDbLayerTableRecord
  2
foot #1
 70
0
 62
7
  6
Continuous
370
-3
390
13
347
21
  0
LAYER
  5
3D
330
1
100
AcDbSymbolTableRecord
100
AcDbLayerTableRecord
  2
foot #2
 70
0
 62
7
  6
Continuous
370
-3
390
13
347
21
  0
LAYER
  5
4B
330
1
100
AcDbSymbolTableRecord
100
AcDbLayerTableRecord
  2
foot #3
 70
0
 62
7
  6
Continuous
370
-3
390
13
347
21
  0
LAYER
  5
59
330
1
100
AcDbSymbolTableRecord
100
AcDbLayerTableRecord
  2
foot #4
 70
0
 62
7
  6
Continuous
370
-3
390
13
347
21
  0
LAYER
  5
67
330
1
100
AcDbSymbolTableRecord
100
AcDbLayerTableRecord
  2
foot #5
 70
0
 62
7
  6
Continuous
370
-3
390
13
347
21
  0
LAYER
  5
75
330
1
100
AcDbSymbolTableRecord
100
AcDbLayerTableRecord
  2
foot #6
 70
0
 62
7
  6
Continuous
370
-3
390
13
347
21
  0
LAYER
  5
83
330
1
100
AcDbSymbolTableRecord
100
AcDbLayerTableRecord
  2
foot #7
 70
0
 62
7
  6
Continuous
370
-3
390
13
347
21
  0
LAYER
  5
91
330
1
100
AcDbSymbolTableRecord
100
AcDbLayerTableRecord
  2
foot #8
 70
0
 62
7
  6
Continuous
370
-3
390
13
347
21
  0
LAYER
  5
9F
330
1
100
AcDbSymbolTableRecord
100
AcDbLayerTableRecord
  2
foot #9
 70
0
 62
7
  6
Continuous
370
-3
390
13
347
21
  0
LAYER
  5
AD
330
1
100
AcDbSymbolTableRecord
100
AcDbLayerTableRecord
  2
bottom #1
 70
0
 62
7
  6
Continuous
370
-3
390
13
347
21
  0
LAYER
  5
113
330
1
100
AcDbSymbolTableRecord
100
AcDbLayerTableRecord
  2
side-a #1
 70
0
 62
7
  6
Continuous
370
-3
390
13
347
21
  0
LAYER
  5
141
330
1
100
AcDbSymbolTableRecord
100
AcDbLayerTableRecord
  2
side-a #2
 70
0
 62
7
  6
Continuous
370
-3
390
13
347
21
  0
LAYER
  5
16F
330
1
100
AcDbSymbolTableRecord
100
AcDbLayerTableRecord
  2
side-b #1
 70
0
 62
7
  6
Continuous
370
-3
390
13
347
21
  0
LAYER
  5
19D
330
1
100
AcDbSymbolTableRecord
100
AcDbLayerTableRecord
  2
side-b #2
 70
0
 62
7
  6
Continuous
370
-3
390
13
347
21
  0
ENDTAB
  0
TABLE
  2
STYLE
  5
5
330
0
100
AcDbSymbolTable
 70
1
  0
STYLE
  5
29
330
5
100
AcDbSymbolTableRecord
100
AcDbTextStyleTableRecord
  2
Standard
 70
0
 40
0.0
 41
1.0
 50
0.0
 71
0
 42
2.5
  3
txt
  4

  0
ENDTAB
  0
TABLE
  2
VIEW
  5
7
330
0
100
AcDbSymbolTable
 70
0
  0
ENDTAB
  0
TABLE
  2
UCS
  5
6
330
0
100
AcDbSymbolTable
 70
0
  0
ENDTAB
  0
TABLE
  2
APPID
  5
3
330
0
100
AcDbSymbolTable
 70
3
  0
APPID
  5
2A
330
3
100
AcDbSymbolTableRecord
100
AcDbRegAppTableRecord
  2
ACAD
 70
0
  0
APPID
  5
1CB
330
3
100
AcDbSymbolTableRecord
100
AcDbRegAppTableRecord
  2
HATCHBACKGROUNDCOLOR
 70
0
  0
APPID
  5
1CC
330
3
100
AcDbSymbolTableRecord
100
AcDbRegAppTableRecord
  2
EZDXF
 70
0
  0
ENDTAB
  0
TABLE
  2
DIMSTYLE
  5
4
330
0
100
AcDbSymbolTable
 70
1
100
AcDbDimStyleTable
  0
DIMSTYLE
105
2B
330
4
100
AcDbSymbolTableRecord
100
AcDbDimStyleTableRecord
  2
Standard
 70
0
 40
1.0
 41
2.5
 42
0.625
 43
3.75
 44
1.25
 45
0.0
 46
0.0
 47
0.0
 48
0.0
 49
2.5
140
2.5
141
2.5
142
0.0
143
0.03937007874
144
1.0
145
0.0
146
1.0
147
0.625
148
0.0
 69
0
 70
0
 71
0
 72
0
 73
0
 74
0
 75
0
 76
0
 77
1
 78
8
 79
3
170
0
171
3
172
1
173
0
174
0
175
0
176
0
177
0
178
0
179
2
271
2
272
2
273
2
274
3
275
0
276
0
277
2
278
44
279
0
280
0
281
0
282
0
283
0
284
8
285
0
286
0
288
0
289
3
290
0
371
-2
372
-2
  0
ENDTAB
  0
TABLE
  2
BLOCK_RECORD
  5
9
330
0
100
AcDbSymbolTable
 70
2
  0
BLOCK_RECORD
  5
17
330
9
100
AcDbSymbolTableRecord
100
AcDbBlockTableRecord
  2
*Model_Space
340
1A
 70
0
280
1
281
0
  0
BLOCK_RECORD
  5
1B
330
9
100
AcDbSymbolTableRecord
100
AcDbBlockTableRecord
  2
*Paper_Space
340
1E
 70
0
280
1
281
0
  0
ENDTAB
  0
ENDSEC
  0
SECTION
  2
BLOCKS
  0
BLOCK
  5
18
330
17
100
AcDbEntity
  8
0
100
AcDbBlockBegin
  2
*Model_Space
 70
0
 10
0.0
 20
0.0
 30
0.0
  3
*Model_Space
  1

  0
ENDBLK
  5
19
330
17
100
AcDbEntity
  8
0
100
AcDbBlockEnd
  0
BLOCK
  5
1C
330
1B
100
AcDbEntity
  8
0
100
AcDbBlockBegin
  2
*Paper_Space
 70
0
 10
0.0
 20
0.0
 30
0.0
  3
*Paper_Space
  1

  0
ENDBLK
  5
1D
330
1B
100
AcDbEntity
  8
0
100
AcDbBlockEnd
  0
ENDSEC
  0
SECTION
  2
ENTITIES
  0
CIRCLE
  5
30
330
17
100
AcDbEntity
  8
foot #1
100
AcDbCircle
 10
105.05
 20
233.8200000000001
 30
0.0
 40
1.500000000000001
  0
CIRCLE
  5
31
330
17
100
AcDbEntity
  8
foot #1
100
AcDbCircle
 10
132.49
 20
206.3800000000001
 30
0.0
 40
1.500000000000001
  0
CIRCLE
  5
32
330
17
100
AcDbEntity
  8
foot #1
100
AcDbCircle
 10
132.49
 20
233.8200000000001
 30
0.0
 40
1.500000000000001
  0
CIRCLE
  5
33
330
17
100
AcDbEntity
  8
foot #1
100
AcDbCircle
 10
105.05
 20
206.3800000000001
 30
0.0
 40
1.500000000000001
  0
LINE
  5
34
330
17
100
AcDbEntity
  8
foot #1
100
AcDbLine
 10
100.25
 20
203.1800000000001
 30
0.0
 11
100.25
 21
237.0200000000001
 31
0.0
  0
ARC
  5
35
330
17
100
AcDbEntity
  8
foot #1
100
AcDbCircle
 10
101.85
 20
203.1800000000001
 30
0.0
 40
1.600000000000018
100
AcDbArc
 50
180.0
 51
269.999999999999
  0
LINE
  5
36
330
17
100
AcDbEntity
  8
foot #1
100
AcDbLine
 10
101.85
 20
201.5800000000001
 30
0.0
 11
135.69
 21
201.5800000000001
 31
0.0
  0
ARC
  5
37
330
17
100
AcDbEntity
  8
foot #1
100
AcDbCircle
 10
135.69
 20
203.1800000000001
 30
0.0
 40
1.600000000000032
100
AcDbArc
 50
270.000000000001
 51
0.0
  0
LINE
  5
38
330
17
100
AcDbEntity
  8
foot #1
100
AcDbLine
 10
137.29
 20
203.1800000000001
 30
0.0
 11
137.29
 21
237.0200000000001
 31
0.0
  0
ARC
  5
39
330
17
100
AcDbEntity
  8
foot #1
100
AcDbCircle
 10
135.69
 20
237.0200000000001
 30
0.0
 40
1.600000000000018
100
AcDbArc
 50
0.0
 51
90.0
  0
LINE
  5
3A
330
17
100
AcDbEntity
  8
foot #1
100
AcDbLine
 10
101.85
 20
238.6200000000001
 30
0.0
 11
135.69
 21
238.6200000000001
 31
0.0
  0
ARC
  5
3B
330
17
100
AcDbEntity
  8
foot #1
100
AcDbCircle
 10
101.85
 20
237.0200000000001
 30
0.0
 40
1.600000000000004
100
AcDbArc
 50
90.0
 51
180.0
  0
LWPOLYLINE
  5
3C
330
17
100
AcDbEntity
  8
DEBUG_foot #1
100
AcDbPolyline
 90
5
 70
0
 10
0.0
 20
0.0
 10
37.04000000000005
 20
0.0
 10
37.04000000000005
 20
37.04000000000005
 10
0.0
 20
37.04000000000005
 10
0.0
 20
0.0
  0
CIRCLE
  5
3E
330
17
100
AcDbEntity
  8
foot #2
100
AcDbCircle
 10
230.55
 20
233.8200000000001
 30
0.0
 40
1.500000000000001
  0
CIRCLE
  5
3F
330
17
100
AcDbEntity
  8
foot #2
100
AcDbCircle
 10
257.99
 20
206.3800000000001
 30
0.0
 40
1.500000000000001
  0
CIRCLE
  5
40
330
17
100
AcDbEntity
  8
foot #2
100
AcDbCircle
 10
257.99
 20
233.8200000000001
 30
0.0
 40
1.500000000000001
  0
CIRCLE
  5
41
330
17
100
AcDbEntity
  8
foot #2
100
AcDbCircle
 10
230.55
 20
206.3800000000001
 30
0.0
 40
1.500000000000001
  0
LINE
  5
42
330
17
100
AcDbEntity
  8
foot #2
100
AcDbLine
 10
225.75
 20
203.1800000000001
 30
0.0
 11
225.75
 21
237.0200000000001
 31
0.0
  0
ARC
  5
43
330
17
100
AcDbEntity
  8
foot #2
100
AcDbCircle
 10
227.35
 20
203.1800000000001
 30
0.0
 40
1.600000000000018
100
AcDbArc
 50
180.0
 51
269.999999999999
  0
LINE
  5
44
330
17
100
AcDbEntity
  8
foot #2
100
AcDbLine
 10
227.35
 20
201.5800000000001
 30
0.0
 11
261.19
 21
201.5800000000001
 31
0.0
  0
ARC
  5
45
330
17
100
AcDbEntity
  8
foot #2
100
AcDbCircle
 10
261.19
 20
203.1800000000001
 30
0.0
 40
1.600000000000032
100
AcDbArc
 50
270.000000000001
 51
0.0
  0
LINE
  5
46
330
17
100
AcDbEntity
  8
foot #2
100
AcDbLine
 10
262.78999999999996
 20
203.1800000000001
 30
0.0
 11
262.78999999999996
 21
237.0200000000001
 31
0.0
  0
ARC
  5
47
330
17
100
AcDbEntity
  8
foot #2
100
AcDbCircle
 10
261.19
 20
237.0200000000001
 30
0.0
 40
1.600000000000018
100
AcDbArc
 50
0.0
 51
90.0
  0
LINE
  5
48
330
17
100
AcDbEntity
  8
foot #2
100
AcDbLine
 10
227.35
 20
238.6200000000001
 30
0.0
 11
261.19
 21
238.6200000000001
 31
0.0
  0
ARC
  5
49
330
17
100
AcDbEntity
  8
foot #2
100
AcDbCircle
 10
227.35
 20
237.0200000000001
 30
0.0
 40
1.600000000000004
100
AcDbArc
 50
90.0
 51
180.0
  0
LWPOLYLINE
  5
4A
330
17
100
AcDbEntity
  8
DEBUG_foot #2
100
AcDbPolyline
 90
5
 70
0
 10
125.5
 20
0.0
 10
162.54000000000005
 20
0.0
 10
162.54000000000005
 20
37.04000000000005
 10
125.5
 20
37.04000000000005
 10
125.5
 20
0.0
  0
CIRCLE
  5
4C
330
17
100
AcDbEntity
  8
foot #3
100
AcDbCircle
 10
230.55
 20
266.5700000000001
 30
0.0
 40
1.500000000000001
  0
CIRCLE
  5
4D
330
17
100
AcDbEntity
  8
foot #3
100
AcDbCircle
 10
257.99
 20
239.1300000000001
 30
0.0
 40
1.500000000000001
  0
CIRCLE
  5
4E
330
17
100
AcDbEntity
  8
foot #3
100
AcDbCircle
 10
257.99
 20
266.5700000000001
 30
0.0
 40
1.500000000000001
  0
CIRCLE
  5
4F
330
17
100
AcDbEntity
  8
foot #3
100
AcDbCircle
 10
230.55
 20
239.1300000000001
 30
0.0
 40
1.500000000000001
  0
LINE
  5
50
330
17
100
AcDbEntity
  8
foot #3
100
AcDbLine
 10
225.75
 20
235.9300000000001
 30
0.0
 11
225.75
 21
269.7700000000001
 31
0.0
  0
ARC
  5
51
330
17
100
AcDbEntity
  8
foot #3
100
AcDbCircle
 10
227.35
 20
235.9300000000001
 30
0.0
 40
1.600000000000018
100
AcDbArc
 50
180.0
 51
269.999999999999
  0
LINE
  5
52
330
17
100
AcDbEntity
  8
foot #3
100
AcDbLine
 10
227.35
 20
234.3300000000001
 30
0.0
 11
261.19
 21
234.3300000000001
 31
0.0
  0
ARC
  5
53
330
17
100
AcDbEntity
  8
foot #3
100
AcDbCircle
 10
261.19
 20
235.9300000000001
 30
0.0
 40
1.600000000000032
100
AcDbArc
 50
270.000000000001
 51
0.0
  0
LINE
  5
54
330
17
100
AcDbEntity
  8
foot #3
100
AcDbLine
 10
262.78999999999996
 20
235.9300000000001
 30
0.0
 11
262.78999999999996
 21
269.7700000000001
 31
0.0
  0
ARC
  5
55
330
17
100
AcDbEntity
  8
foot #3
100
AcDbCircle
 10
261.19
 20
269.7700000000001
 30
0.0
 40
1.600000000000018
100
AcDbArc
 50
0.0
 51
90.0
  0
LINE
  5
56
330
17
100
AcDbEntity
  8
foot #3
100
AcDbLine
 10
227.35
 20
271.3700000000001
 30
0.0
 11
261.19
 21
271.3700000000001
 31
0.0
  0
ARC
  5
57
330
17
100
AcDbEntity
  8
foot #3
100
AcDbCircle
 10
227.35
 20
269.7700000000001
 30
0.0
 40
1.600000000000004
100
AcDbArc
 50
90.0
 51
180.0
  0
LWPOLYLINE
  5
58
330
17
100
AcDbEntity
  8
DEBUG_foot #3
100
AcDbPolyline
 90
5
 70
0
 10
125.5
 20
32.75
 10
162.54000000000005
 20
32.75
 10
162.54000000000005
 20
69.79000000000005
 10
125.5
 20
69.79000000000005
 10
125.5
 20
32.75
  0
CIRCLE
  5
5A
330
17
100
AcDbEntity
  8
foot #4
100
AcDbCircle
 10
230.55
 20
299.3200000000001
 30
0.0
 40
1.500000000000001
  0
CIRCLE
  5
5B
330
17
100
AcDbEntity
  8
foot #4
100
AcDbCircle
 10
257.99
 20
271.8800000000001
 30
0.0
 40
1.500000000000001
  0
CIRCLE
  5
5C
330
17
100
AcDbEntity
  8
foot #4
100
AcDbCircle
 10
257.99
 20
299.3200000000001
 30
0.0
 40
1.500000000000001
  0
CIRCLE
  5
5D
330
17
100
AcDbEntity
  8
foot #4
100
AcDbCircle
 10
230.55
 20
271.8800000000001
 30
0.0
 40
1.500000000000001
  0
LINE
  5
5E
330
17
100
AcDbEntity
  8
foot #4
100
AcDbLine
 10
225.75
 20
268.68000000000006
 30
0.0
 11
225.75
 21
302.5200000000001
 31
0.0
  0
ARC
  5
5F
330
17
100
AcDbEntity
  8
foot #4
100
AcDbCircle
 10
227.35
 20
268.68000000000006
 30
0.0
 40
1.600000000000018
100
AcDbArc
 50
180.0
 51
269.999999999999
  0
LINE
  5
60
330
17
100
AcDbEntity
  8
foot #4
100
AcDbLine
 10
227.35
 20
267.0800000000001
 30
0.0
 11
261.19
 21
267.0800000000001
 31
0.0
  0
ARC
  5
61
330
17
100
AcDbEntity
  8
foot #4
100
AcDbCircle
 10
261.19
 20
268.68000000000006
 30
0.0
 40
1.600000000000032
100
AcDbArc
 50
270.000000000001
 51
0.0
  0
LINE
  5
62
330
17
100
AcDbEntity
  8
foot #4
100
AcDbLine
 10
262.78999999999996
 20
268.68000000000006
 30
0.0
 11
262.78999999999996
 21
302.5200000000001
 31
0.0
  0
ARC
  5
63
330
17
100
AcDbEntity
  8
foot #4
100
AcDbCircle
 10
261.19
 20
302.5200000000001
 30
0.0
 40
1.600000000000018
100
AcDbArc
 50
0.0
 51
90.0
  0
LINE
  5
64
330
17
100
AcDbEntity
  8
foot #4
100
AcDbLine
 10
227.35
 20
304.1200000000001
 30
0.0
 11
261.19
 21
304.1200000000001
 31
0.0
  0
ARC
  5
65
330
17
100
AcDbEntity
  8
foot #4
100
AcDbCircle
 10
227.35
 20
302.5200000000001
 30
0.0
 40
1.600000000000004
100
AcDbArc
 50
90.0
 51
180.0
  0
LWPOLYLINE
  5
66
330
17
100
AcDbEntity
  8
DEBUG_foot #4
100
AcDbPolyline
 90
5
 70
0
 10
125.5
 20
65.5
 10
162.54000000000005
 20
65.5
 10
162.54000000000005
 20
102.54000000000005
 10
125.5
 20
102.54000000000005
 10
125.5
 20
65.5
  0
CIRCLE
  5
68
330
17
100
AcDbEntity
  8
foot #5
100
AcDbCircle
 10
105.05
 20
359.3200000000001
 30
0.0
 40
1.500000000000001
  0
CIRCLE
  5
69
330
17
100
AcDbEntity
  8
foot #5
100
AcDbCircle
 10
132.49
 20
331.8800000000001
 30
0.0
 40
1.500000000000001
  0
CIRCLE
  5
6A
330
17
100
AcDbEntity
  8
foot #5
100
AcDbCircle
 10
132.49
 20
359.3200000000001
 30
0.0
 40
1.500000000000001
  0
CIRCLE
  5
6B
330
17
100
AcDbEntity
  8
foot #5
100
AcDbCircle
 10
105.05
 20
331.8800000000001
 30
0.0
 40
1.500000000000001
  0
LINE
  5
6C
330
17
100
AcDbEntity
  8
foot #5
100
AcDbLine
 10
100.25
 20
328.68000000000006
 30
0.0
 11
100.25
 21
362.5200000000001
 31
0.0
  0
ARC
  5
6D
330
17
100
AcDbEntity
  8
foot #5
100
AcDbCircle
 10
101.85
 20
328.68000000000006
 30
0.0
 40
1.600000000000018
100
AcDbArc
 50
180.0
 51
269.999999999999
  0
LINE
  5
6E
330
17
100
AcDbEntity
  8
foot #5
100
AcDbLine
 10
101.85
 20
327.0800000000001
 30
0.0
 11
135.69
 21
327.0800000000001
 31
0.0
  0
ARC
  5
6F
330
17
100
AcDbEntity
  8
foot #5
100
AcDbCircle
 10
135.69
 20
328.68000000000006
 30
0.0
 40
1.600000000000032
100
AcDbArc
 50
270.000000000001
 51
0.0
  0
LINE
  5
70
330
17
100
AcDbEntity
  8
foot #5
100
AcDbLine
 10
137.29
 20
328.68000000000006
 30
0.0
 11
137.29
 21
362.5200000000001
 31
0.0
  0
ARC
  5
71
330
17
100
AcDbEntity
  8
foot #5
100
AcDbCircle
 10
135.69
 20
362.5200000000001
 30
0.0
 40
1.600000000000018
100
AcDbArc
 50
0.0
 51
90.0
  0
LINE
  5
72
330
17
100
AcDbEntity
  8
foot #5
100
AcDbLine
 10
101.85
 20
364.1200000000001
 30
0.0
 11
135.69
 21
364.1200000000001
 31
0.0
  0
ARC
  5
73
330
17
100
AcDbEntity
  8
foot #5
100
AcDbCircle
 10
101.85
 20
362.5200000000001
 30
0.0
 40
1.600000000000004
100
AcDbArc
 50
90.0
 51
180.0
  0
LWPOLYLINE
  5
74
330
17
100
AcDbEntity
  8
DEBUG_foot #5
100
AcDbPolyline
 90
5
 70
0
 10
0.0
 20
125.5
 10
37.04000000000005
 20
125.5
 10
37.04000000000005
 20
162.54000000000005
 10
0.0
 20
162.54000000000005
 10
0.0
 20
125.5
  0
CIRCLE
  5
76
330
17
100
AcDbEntity
  8
foot #6
100
AcDbCircle
 10
105.05
 20
392.0700000000001
 30
0.0
 40
1.500000000000001
  0
CIRCLE
  5
77
330
17
100
AcDbEntity
  8
foot #6
100
AcDbCircle
 10
132.49
 20
364.6300000000001
 30
0.0
 40
1.500000000000001
  0
CIRCLE
  5
78
330
17
100
AcDbEntity
  8
foot #6
100
AcDbCircle
 10
132.49
 20
392.0700000000001
 30
0.0
 40
1.500000000000001
  0
CIRCLE
  5
79
330
17
100
AcDbEntity
  8
foot #6
100
AcDbCircle
 10
105.05
 20
364.6300000000001
 30
0.0
 40
1.500000000000001
  0
LINE
  5
7A
330
17
100
AcDbEntity
  8
foot #6
100
AcDbLine
 10
100.25
 20
361.43000000000006
 30
0.0
 11
100.25
 21
395.2700000000001
 31
0.0
  0
ARC
  5
7B
330
17
100
AcDbEntity
  8
foot #6
100
AcDbCircle
 10
101.85
 20
361.43000000000006
 30
0.0
 40
1.600000000000018
100
AcDbArc
 50
180.0
 51
269.999999999999
  0
LINE
  5
7C
330
17
100
AcDbEntity
  8
foot #6
100
AcDbLine
 10
101.85
 20
359.8300000000001
 30
0.0
 11
135.69
 21
359.8300000000001
 31
0.0
  0
ARC
  5
7D
330
17
100
AcDbEntity
  8
foot #6
100
AcDbCircle
 10
135.69
 20
361.43000000000006
 30
0.0
 40
1.600000000000032
100
AcDbArc
 50
270.000000000001
 51
0.0
  0
LINE
  5
7E
330
17
100
AcDbEntity
  8
foot #6
100
AcDbLine
 10
137.29
 20
361.43000000000006
 30
0.0
 11
137.29
 21
395.2700000000001
 31
0.0
  0
ARC
  5
7F
330
17
100
AcDbEntity
  8
foot #6
100
AcDbCircle
 10
135.69
 20
395.2700000000001
 30
0.0
 40
1.600000000000018
100
AcDbArc
 50
0.0
 51
90.0
  0
LINE
  5
80
330
17
100
AcDbEntity
  8
foot #6
100
AcDbLine
 10
101.85
 20
396.8700000000001
 30
0.0
 11
135.69
 21
396.8700000000001
 31
0.0
  0
ARC
  5
81
330
17
100
AcDbEntity
  8
foot #6
100
AcDbCircle
 10
101.85
 20
395.2700000000001
 30
0.0
 40
1.600000000000004
100
AcDbArc
 50
90.0
 51
180.0
  0
LWPOLYLINE
  5
82
330
17
100
AcDbEntity
  8
DEBUG_foot #6
100
AcDbPolyline
 90
5
 70
0
 10
0.0
 20
158.25
 10
37.04000000000005
 20
158.25
 10
37.04000000000005
 20
195.29000000000005
 10
0.0
 20
195.29000000000005
 10
0.0
 20
158.25
  0
CIRCLE
  5
84
330
17
100
AcDbEntity
  8
foot #7
100
AcDbCircle
 10
142.09000000000003
 20
392.0700000000001
 30
0.0
 40
1.500000000000001
  0
CIRCLE
  5
85
330
17
100
AcDbEntity
  8
foot #7
100
AcDbCircle
 10
169.53000000000006
 20
364.6300000000001
 30
0.0
 40
1.500000000000001
  0
CIRCLE
  5
86
330
17
100
AcDbEntity
  8
foot #7
100
AcDbCircle
 10
169.53000000000006
 20
392.0700000000001
 30
0.0
 40
1.500000000000001
  0
CIRCLE
  5
87
330
17
100
AcDbEntity
  8
foot #7
100
AcDbCircle
 10
142.09000000000003
 20
364.6300000000001
 30
0.0
 40
1.500000000000001
  0
LINE
  5
88
330
17
100
AcDbEntity
  8
foot #7
100
AcDbLine
 10
137.29000000000005
 20
361.43000000000006
 30
0.0
 11
137.29000000000005
 21
395.2700000000001
 31
0.0
  0
ARC
  5
89
330
17
100
AcDbEntity
  8
foot #7
100
AcDbCircle
 10
138.89000000000004
 20
361.43000000000006
 30
0.0
 40
1.600000000000018
100
AcDbArc
 50
180.0
 51
269.999999999999
  0
LINE
  5
8A
330
17
100
AcDbEntity
  8
foot #7
100
AcDbLine
 10
138.89000000000004
 20
359.8300000000001
 30
0.0
 11
172.73000000000005
 21
359.8300000000001
 31
0.0
  0
ARC
  5
8B
330
17
100
AcDbEntity
  8
foot #7
100
AcDbCircle
 10
172.73000000000005
 20
361.43000000000006
 30
0.0
 40
1.600000000000032
100
AcDbArc
 50
270.000000000001
 51
0.0
  0
LINE
  5
8C
330
17
100
AcDbEntity
  8
foot #7
100
AcDbLine
 10
174.33000000000004
 20
361.43000000000006
 30
0.0
 11
174.33000000000004
 21
395.2700000000001
 31
0.0
  0
ARC
  5
8D
330
17
100
AcDbEntity
  8
foot #7
100
AcDbCircle
 10
172.73000000000005
 20
395.2700000000001
 30
0.0
 40
1.600000000000018
100
AcDbArc
 50
0.0
 51
90.0
  0
LINE
  5
8E
330
17
100
AcDbEntity
  8
foot #7
100
AcDbLine
 10
138.89000000000004
 20
396.8700000000001
 30
0.0
 11
172.73000000000005
 21
396.8700000000001
 31
0.0
  0
ARC
  5
8F
330
17
100
AcDbEntity
  8
foot #7
100
AcDbCircle
 10
138.89000000000004
 20
395.2700000000001
 30
0.0
 40
1.600000000000004
100
AcDbArc
 50
90.0
 51
180.0
  0
LWPOLYLINE
  5
90
330
17
100
AcDbEntity
  8
DEBUG_foot #7
100
AcDbPolyline
 90
5
 70
0
 10
37.04000000000005
 20
158.25
 10
74.0800000000001
 20
158.25
 10
74.0800000000001
 20
195.29000000000005
 10
37.04000000000005
 20
195.29000000000005
 10
37.04000000000005
 20
158.25
  0
CIRCLE
  5
92
330
17
100
AcDbEntity
  8
foot #8
100
AcDbCircle
 10
179.1300000000001
 20
392.0700000000001
 30
0.0
 40
1.500000000000001
  0
CIRCLE
  5
93
330
17
100
AcDbEntity
  8
foot #8
100
AcDbCircle
 10
206.5700000000001
 20
364.6300000000001
 30
0.0
 40
1.500000000000001
  0
CIRCLE
  5
94
330
17
100
AcDbEntity
  8
foot #8
100
AcDbCircle
 10
206.5700000000001
 20
392.0700000000001
 30
0.0
 40
1.500000000000001
  0
CIRCLE
  5
95
330
17
100
AcDbEntity
  8
foot #8
100
AcDbCircle
 10
179.1300000000001
 20
364.6300000000001
 30
0.0
 40
1.500000000000001
  0
LINE
  5
96
330
17
100
AcDbEntity
  8
foot #8
100
AcDbLine
 10
174.3300000000001
 20
361.43000000000006
 30
0.0
 11
174.3300000000001
 21
395.2700000000001
 31
0.0
  0
ARC
  5
97
330
17
100
AcDbEntity
  8
foot #8
100
AcDbCircle
 10
175.9300000000001
 20
361.43000000000006
 30
0.0
 40
1.600000000000018
100
AcDbArc
 50
180.0
 51
269.999999999999
  0
LINE
  5
98
330
17
100
AcDbEntity
  8
foot #8
100
AcDbLine
 10
175.9300000000001
 20
359.8300000000001
 30
0.0
 11
209.7700000000001
 21
359.8300000000001
 31
0.0
  0
ARC
  5
99
330
17
100
AcDbEntity
  8
foot #8
100
AcDbCircle
 10
209.7700000000001
 20
361.43000000000006
 30
0.0
 40
1.600000000000032
100
AcDbArc
 50
270.000000000001
 51
0.0
  0
LINE
  5
9A
330
17
100
AcDbEntity
  8
foot #8
100
AcDbLine
 10
211.3700000000001
 20
361.43000000000006
 30
0.0
 11
211.3700000000001
 21
395.2700000000001
 31
0.0
  0
ARC
  5
9B
330
17
100
AcDbEntity
  8
foot #8
100
AcDbCircle
 10
209.7700000000001
 20
395.2700000000001
 30
0.0
 40
1.600000000000018
100
AcDbArc
 50
0.0
 51
90.0
  0
LINE
  5
9C
330
17
100
AcDbEntity
  8
foot #8
100
AcDbLine
 10
175.9300000000001
 20
396.8700000000001
 30
0.0
 11
209.7700000000001
 21
396.8700000000001
 31
0.0
  0
ARC
  5
9D
330
17
100
AcDbEntity
  8
foot #8
100
AcDbCircle
 10
175.9300000000001
 20
395.2700000000001
 30
0.0
 40
1.600000000000004
100
AcDbArc
 50
90.0
 51
180.0
  0
LWPOLYLINE
  5
9E
330
17
100
AcDbEntity
  8
DEBUG_foot #8
100
AcDbPolyline
 90
5
 70
0
 10
74.0800000000001
 20
158.25
 10
111.12000000000015
 20
158.25
 10
111.12000000000015
 20
195.29000000000005
 10
74.0800000000001
 20
195.29000000000005
 10
74.0800000000001
 20
158.25
  0
CIRCLE
  5
A0
330
17
100
AcDbEntity
  8
foot #9
100
AcDbCircle
 10
105.05
 20
429.1100000000001
 30
0.0
 40
1.500000000000001
  0
CIRCLE
  5
A1
330
17
100
AcDbEntity
  8
foot #9
100
AcDbCircle
 10
132.49
 20
401.6700000000002
 30
0.0
 40
1.500000000000001
  0
CIRCLE
  5
A2
330
17
100
AcDbEntity
  8
foot #9
100
AcDbCircle
 10
132.49
 20
429.1100000000001
 30
0.0
 40
1.500000000000001
  0
CIRCLE
  5
A3
330
17
100
AcDbEntity
  8
foot #9
100
AcDbCircle
 10
105.05
 20
401.6700000000002
 30
0.0
 40
1.500000000000001
  0
LINE
  5
A4
330
17
100
AcDbEntity
  8
foot #9
100
AcDbLine
 10
100.25
 20
398.47000000000014
 30
0.0
 11
100.25
 21
432.3100000000002
 31
0.0
  0
ARC
  5
A5
330
17
100
AcDbEntity
  8
foot #9
100
AcDbCircle
 10
101.85
 20
398.47000000000014
 30
0.0
 40
1.600000000000018
100
AcDbArc
 50
180.0
 51
269.999999999999
  0
LINE
  5
A6
330
17
100
AcDbEntity
  8
foot #9
100
AcDbLine
 10
101.85
 20
396.8700000000001
 30
0.0
 11
135.69
 21
396.8700000000001
 31
0.0
  0
ARC
  5
A7
330
17
100
AcDbEntity
  8
foot #9
100
AcDbCircle
 10
135.69
 20
398.47000000000014
 30
0.0
 40
1.600000000000032
100
AcDbArc
 50
270.000000000001
 51
0.0
  0
LINE
  5
A8
330
17
100
AcDbEntity
  8
foot #9
100
AcDbLine
 10
137.29
 20
398.47000000000014
 30
0.0
 11
137.29
 21
432.3100000000002
 31
0.0
  0
ARC
  5
A9
330
17
100
AcDbEntity
  8
foot #9
100
AcDbCircle
 10
135.69
 20
432.3100000000002
 30
0.0
 40
1.600000000000018
100
AcDbArc
 50
0.0
 51
90.0
  0
LINE
  5
AA
330
17
100
AcDbEntity
  8
foot #9
100
AcDbLine
 10
101.85
 20
433.91000000000014
 30
0.0
 11
135.69
 21
433.91000000000014
 31
0.0
  0
ARC
  5
AB
330
17
100
AcDbEntity
  8
foot #9
100
AcDbCircle
 10
101.85
 20
432.3100000000002
 30
0.0
 40
1.600000000000004
100
AcDbArc
 50
90.0
 51
180.0
  0
LWPOLYLINE
  5
AC
330
17
100
AcDbEntity
  8
DEBUG_foot #9
100
AcDbPolyline
 90
5
 70
0
 10
0.0
 20
195.29000000000005
 10
37.04000000000005
 20
195.29000000000005
 10
37.04000000000005
 20
232.3300000000001
 10
0.0
 20
232.3300000000001
 10
0.0
 20
195.29000000000005
  0
LINE
  5
AE
330
17
100
AcDbEntity
  8
bottom #1
100
AcDbLine
 10
29.46153846153846
 20
235.58000000000013
 30
0.0
 11
29.46153846153846
 21
232.8300000000001
 31
0.0
  0
LINE
  5
AF
330
17
100
AcDbEntity
  8
bottom #1
100
AcDbLine
 10
29.46153846153846
 20
235.58000000000013
 30
0.0
 11
39.11538461538461
 21
235.58000000000013
 31
0.0
  0
LINE
  5
B0
330
17
100
AcDbEntity
  8
bottom #1
100
AcDbLine
 10
39.11538461538461
 20
235.58000000000013
 30
0.0
 11
39.11538461538461
 21
232.8300000000001
 31
0.0
  0
LINE
  5
B1
330
17
100
AcDbEntity
  8
bottom #1
100
AcDbLine
 10
39.11538461538461
 20
232.8300000000001
 30
0.0
 11
48.76923076923077
 21
232.8300000000001
 31
0.0
  0
LINE
  5
B2
330
17
100
AcDbEntity
  8
bottom #1
100
AcDbLine
 10
48.76923076923077
 20
235.58000000000013
 30
0.0
 11
48.76923076923077
 21
232.8300000000001
 31
0.0
  0
LINE
  5
B3
330
17
100
AcDbEntity
  8
bottom #1
100
AcDbLine
 10
48.76923076923077
 20
235.58000000000013
 30
0.0
 11
58.42307692307692
 21
235.58000000000013
 31
0.0
  0
LINE
  5
B4
330
17
100
AcDbEntity
  8
bottom #1
100
AcDbLine
 10
58.42307692307692
 20
235.58000000000013
 30
0.0
 11
58.42307692307692
 21
232.8300000000001
 31
0.0
  0
LINE
  5
B5
330
17
100
AcDbEntity
  8
bottom #1
100
AcDbLine
 10
58.42307692307692
 20
232.8300000000001
 30
0.0
 11
68.07692307692308
 21
232.8300000000001
 31
0.0
  0
LINE
  5
B6
330
17
100
AcDbEntity
  8
bottom #1
100
AcDbLine
 10
68.07692307692308
 20
235.58000000000013
 30
0.0
 11
68.07692307692308
 21
232.8300000000001
 31
0.0
  0
LINE
  5
B7
330
17
100
AcDbEntity
  8
bottom #1
100
AcDbLine
 10
68.07692307692308
 20
235.58000000000013
 30
0.0
 11
77.73076923076923
 21
235.58000000000013
 31
0.0
  0
LINE
  5
B8
330
17
100
AcDbEntity
  8
bottom #1
100
AcDbLine
 10
77.73076923076923
 20
235.58000000000013
 30
0.0
 11
77.73076923076923
 21
232.8300000000001
 31
0.0
  0
LINE
  5
B9
330
17
100
AcDbEntity
  8
bottom #1
100
AcDbLine
 10
77.73076923076923
 20
232.8300000000001
 30
0.0
 11
87.38461538461539
 21
232.8300000000001
 31
0.0
  0
LINE
  5
BA
330
17
100
AcDbEntity
  8
bottom #1
100
AcDbLine
 10
87.38461538461539
 20
235.58000000000013
 30
0.0
 11
87.38461538461539
 21
232.8300000000001
 31
0.0
  0
LINE
  5
BB
330
17
100
AcDbEntity
  8
bottom #1
100
AcDbLine
 10
87.38461538461539
 20
235.58000000000013
 30
0.0
 11
97.03846153846153
 21
235.58000000000013
 31
0.0
  0
LINE
  5
BC
330
17
100
AcDbEntity
  8
bottom #1
100
AcDbLine
 10
97.03846153846153
 20
235.58000000000013
 30
0.0
 11
97.03846153846153
 21
232.8300000000001
 31
0.0
  0
LINE
  5
BD
330
17
100
AcDbEntity
  8
bottom #1
100
AcDbLine
 10
97.03846153846153
 20
232.8300000000001
 30
0.0
 11
106.6923076923077
 21
232.8300000000001
 31
0.0
  0
LINE
  5
BE
330
17
100
AcDbEntity
  8
bottom #1
100
AcDbLine
 10
106.6923076923077
 20
235.58000000000013
 30
0.0
 11
106.6923076923077
 21
232.8300000000001
 31
0.0
  0
LINE
  5
BF
330
17
100
AcDbEntity
  8
bottom #1
100
AcDbLine
 10
106.6923076923077
 20
235.58000000000013
 30
0.0
 11
116.3461538461538
 21
235.58000000000013
 31
0.0
  0
LINE
  5
C0
330
17
100
AcDbEntity
  8
bottom #1
100
AcDbLine
 10
116.3461538461538
 20
235.58000000000013
 30
0.0
 11
116.3461538461538
 21
232.8300000000001
 31
0.0
  0
LINE
  5
C1
330
17
100
AcDbEntity
  8
bottom #1
100
AcDbLine
 10
116.3461538461538
 20
232.8300000000001
 30
0.0
 11
126.0
 21
232.83000000000013
 31
0.0
  0
LINE
  5
C2
330
17
100
AcDbEntity
  8
bottom #1
100
AcDbLine
 10
126.0
 20
242.48384615384626
 30
0.0
 11
126.0
 21
232.83000000000013
 31
0.0
  0
LINE
  5
C3
330
17
100
AcDbEntity
  8
bottom #1
100
AcDbLine
 10
123.25
 20
242.48384615384626
 30
0.0
 11
126.0
 21
242.48384615384626
 31
0.0
  0
LINE
  5
C4
330
17
100
AcDbEntity
  8
bottom #1
100
AcDbLine
 10
123.25
 20
242.48384615384626
 30
0.0
 11
123.25
 21
252.1376923076924
 31
0.0
  0
LINE
  5
C5
330
17
100
AcDbEntity
  8
bottom #1
100
AcDbLine
 10
123.25
 20
252.1376923076924
 30
0.0
 11
126.0
 21
252.1376923076924
 31
0.0
  0
LINE
  5
C6
330
17
100
AcDbEntity
  8
bottom #1
100
AcDbLine
 10
126.0
 20
261.79153846153855
 30
0.0
 11
126.0
 21
252.1376923076924
 31
0.0
  0
LINE
  5
C7
330
17
100
AcDbEntity
  8
bottom #1
100
AcDbLine
 10
123.25
 20
261.79153846153855
 30
0.0
 11
126.0
 21
261.79153846153855
 31
0.0
  0
LINE
  5
C8
330
17
100
AcDbEntity
  8
bottom #1
100
AcDbLine
 10
123.25
 20
261.79153846153855
 30
0.0
 11
123.25
 21
271.4453846153847
 31
0.0
  0
LINE
  5
C9
330
17
100
AcDbEntity
  8
bottom #1
100
AcDbLine
 10
123.25
 20
271.4453846153847
 30
0.0
 11
126.0
 21
271.4453846153847
 31
0.0
  0
LINE
  5
CA
330
17
100
AcDbEntity
  8
bottom #1
100
AcDbLine
 10
126.0
 20
281.09923076923087
 30
0.0
 11
126.0
 21
271.4453846153847
 31
0.0
  0
LINE
  5
CB
330
17
100
AcDbEntity
  8
bottom #1
100
AcDbLine
 10
123.25
 20
281.09923076923087
 30
0.0
 11
126.0
 21
281.09923076923087
 31
0.0
  0
LINE
  5
CC
330
17
100
AcDbEntity
  8
bottom #1
100
AcDbLine
 10
123.25
 20
281.09923076923087
 30
0.0
 11
123.25
 21
290.753076923077
 31
0.0
  0
LINE
  5
CD
330
17
100
AcDbEntity
  8
bottom #1
100
AcDbLine
 10
123.25
 20
290.753076923077
 30
0.0
 11
126.0
 21
290.753076923077
 31
0.0
  0
LINE
  5
CE
330
17
100
AcDbEntity
  8
bottom #1
100
AcDbLine
 10
126.0
 20
300.4069230769232
 30
0.0
 11
126.0
 21
290.753076923077
 31
0.0
  0
LINE
  5
CF
330
17
100
AcDbEntity
  8
bottom #1
100
AcDbLine
 10
123.25
 20
300.4069230769232
 30
0.0
 11
126.0
 21
300.4069230769232
 31
0.0
  0
LINE
  5
D0
330
17
100
AcDbEntity
  8
bottom #1
100
AcDbLine
 10
123.25
 20
300.4069230769232
 30
0.0
 11
123.25
 21
310.0607692307693
 31
0.0
  0
LINE
  5
D1
330
17
100
AcDbEntity
  8
bottom #1
100
AcDbLine
 10
123.25
 20
310.0607692307693
 30
0.0
 11
126.0
 21
310.0607692307693
 31
0.0
  0
LINE
  5
D2
330
17
100
AcDbEntity
  8
bottom #1
100
AcDbLine
 10
126.0
 20
319.7146153846155
 30
0.0
 11
126.0
 21
310.0607692307693
 31
0.0
  0
LINE
  5
D3
330
17
100
AcDbEntity
  8
bottom #1
100
AcDbLine
 10
123.25
 20
319.7146153846155
 30
0.0
 11
126.0
 21
319.7146153846155
 31
0.0
  0
LINE
  5
D4
330
17
100
AcDbEntity
  8
bottom #1
100
AcDbLine
 10
123.25
 20
319.7146153846155
 30
0.0
 11
123.25
 21
329.36846153846164
 31
0.0
  0
LINE
  5
D5
330
17
100
AcDbEntity
  8
bottom #1
100
AcDbLine
 10
123.25
 20
329.36846153846164
 30
0.0
 11
126.0
 21
329.36846153846164
 31
0.0
  0
LINE
  5
D6
330
17
100
AcDbEntity
  8
bottom #1
100
AcDbLine
 10
126.0
 20
339.0223076923078
 30
0.0
 11
126.0
 21
329.36846153846164
 31
0.0
  0
LINE
  5
D7
330
17
100
AcDbEntity
  8
bottom #1
100
AcDbLine
 10
123.25
 20
339.0223076923078
 30
0.0
 11
126.0
 21
339.0223076923078
 31
0.0
  0
LINE
  5
D8
330
17
100
AcDbEntity
  8
bottom #1
100
AcDbLine
 10
123.25
 20
339.0223076923078
 30
0.0
 11
123.25
 21
348.67615384615397
 31
0.0
  0
LINE
  5
D9
330
17
100
AcDbEntity
  8
bottom #1
100
AcDbLine
 10
123.25
 20
348.67615384615397
 30
0.0
 11
126.0
 21
348.67615384615397
 31
0.0
  0
LINE
  5
DA
330
17
100
AcDbEntity
  8
bottom #1
100
AcDbLine
 10
126.0
 20
358.3300000000001
 30
0.0
 11
126.0
 21
348.67615384615397
 31
0.0
  0
LINE
  5
DB
330
17
100
AcDbEntity
  8
bottom #1
100
AcDbLine
 10
116.3461538461539
 20
358.3300000000001
 30
0.0
 11
126.0
 21
358.3300000000001
 31
0.0
  0
LINE
  5
DC
330
17
100
AcDbEntity
  8
bottom #1
100
AcDbLine
 10
116.3461538461539
 20
355.5800000000001
 30
0.0
 11
116.3461538461539
 21
358.3300000000001
 31
0.0
  0
LINE
  5
DD
330
17
100
AcDbEntity
  8
bottom #1
100
AcDbLine
 10
116.3461538461539
 20
355.5800000000001
 30
0.0
 11
106.6923076923077
 21
355.5800000000001
 31
0.0
  0
LINE
  5
DE
330
17
100
AcDbEntity
  8
bottom #1
100
AcDbLine
 10
106.6923076923077
 20
355.5800000000001
 30
0.0
 11
106.6923076923077
 21
358.3300000000001
 31
0.0
  0
LINE
  5
DF
330
17
100
AcDbEntity
  8
bottom #1
100
AcDbLine
 10
97.03846153846155
 20
358.3300000000001
 30
0.0
 11
106.6923076923077
 21
358.3300000000001
 31
0.0
  0
LINE
  5
E0
330
17
100
AcDbEntity
  8
bottom #1
100
AcDbLine
 10
97.03846153846155
 20
355.5800000000001
 30
0.0
 11
97.03846153846155
 21
358.3300000000001
 31
0.0
  0
LINE
  5
E1
330
17
100
AcDbEntity
  8
bottom #1
100
AcDbLine
 10
97.03846153846155
 20
355.5800000000001
 30
0.0
 11
87.38461538461539
 21
355.5800000000001
 31
0.0
  0
LINE
  5
E2
330
17
100
AcDbEntity
  8
bottom #1
100
AcDbLine
 10
87.38461538461539
 20
355.5800000000001
 30
0.0
 11
87.38461538461539
 21
358.3300000000001
 31
0.0
  0
LINE
  5
E3
330
17
100
AcDbEntity
  8
bottom #1
100
AcDbLine
 10
77.73076923076924
 20
358.3300000000001
 30
0.0
 11
87.38461538461539
 21
358.3300000000001
 31
0.0
  0
LINE
  5
E4
330
17
100
AcDbEntity
  8
bottom #1
100
AcDbLine
 10
77.73076923076924
 20
355.5800000000001
 30
0.0
 11
77.73076923076924
 21
358.3300000000001
 31
0.0
  0
LINE
  5
E5
330
17
100
AcDbEntity
  8
bottom #1
100
AcDbLine
 10
77.73076923076924
 20
355.5800000000001
 30
0.0
 11
68.0769230769231
 21
355.5800000000001
 31
0.0
  0
LINE
  5
E6
330
17
100
AcDbEntity
  8
bottom #1
100
AcDbLine
 10
68.0769230769231
 20
355.5800000000001
 30
0.0
 11
68.0769230769231
 21
358.3300000000001
 31
0.0
  0
LINE
  5
E7
330
17
100
AcDbEntity
  8
bottom #1
100
AcDbLine
 10
58.42307692307693
 20
358.3300000000001
 30
0.0
 11
68.0769230769231
 21
358.3300000000001
 31
0.0
  0
LINE
  5
E8
330
17
100
AcDbEntity
  8
bottom #1
100
AcDbLine
 10
58.42307692307693
 20
355.5800000000001
 30
0.0
 11
58.42307692307693
 21
358.3300000000001
 31
0.0
  0
LINE
  5
E9
330
17
100
AcDbEntity
  8
bottom #1
100
AcDbLine
 10
58.42307692307693
 20
355.5800000000001
 30
0.0
 11
48.76923076923077
 21
355.5800000000001
 31
0.0
  0
LINE
  5
EA
330
17
100
AcDbEntity
  8
bottom #1
100
AcDbLine
 10
48.76923076923077
 20
355.5800000000001
 30
0.0
 11
48.76923076923077
 21
358.3300000000001
 31
0.0
  0
LINE
  5
EB
330
17
100
AcDbEntity
  8
bottom #1
100
AcDbLine
 10
39.11538461538462
 20
358.3300000000001
 30
0.0
 11
48.76923076923077
 21
358.3300000000001
 31
0.0
  0
LINE
  5
EC
330
17
100
AcDbEntity
  8
bottom #1
100
AcDbLine
 10
39.11538461538462
 20
355.5800000000001
 30
0.0
 11
39.11538461538462
 21
358.3300000000001
 31
0.0
  0
LINE
  5
ED
330
17
100
AcDbEntity
  8
bottom #1
100
AcDbLine
 10
39.11538461538462
 20
355.5800000000001
 30
0.0
 11
29.46153846153847
 21
355.5800000000001
 31
0.0
  0
LINE
  5
EE
330
17
100
AcDbEntity
  8
bottom #1
100
AcDbLine
 10
29.46153846153847
 20
355.5800000000001
 30
0.0
 11
29.46153846153847
 21
358.3300000000001
 31
0.0
  0
LINE
  5
EF
330
17
100
AcDbEntity
  8
bottom #1
100
AcDbLine
 10
19.80769230769232
 20
358.3300000000001
 30
0.0
 11
29.46153846153847
 21
358.3300000000001
 31
0.0
  0
LINE
  5
F0
330
17
100
AcDbEntity
  8
bottom #1
100
AcDbLine
 10
19.80769230769232
 20
355.5800000000001
 30
0.0
 11
19.80769230769232
 21
358.3300000000001
 31
0.0
  0
LINE
  5
F1
330
17
100
AcDbEntity
  8
bottom #1
100
AcDbLine
 10
19.80769230769232
 20
355.5800000000001
 30
0.0
 11
10.15384615384617
 21
355.5800000000001
 31
0.0
  0
LINE
  5
F2
330
17
100
AcDbEntity
  8
bottom #1
100
AcDbLine
 10
10.15384615384617
 20
355.5800000000001
 30
0.0
 11
10.15384615384617
 21
358.3300000000001
 31
0.0
  0
LINE
  5
F3
330
17
100
AcDbEntity
  8
bottom #1
100
AcDbLine
 10
0.5
 20
358.3300000000001
 30
0.0
 11
10.15384615384617
 21
358.3300000000001
 31
0.0
  0
LINE
  5
F4
330
17
100
AcDbEntity
  8
bottom #1
100
AcDbLine
 10
0.5
 20
358.3300000000001
 30
0.0
 11
0.5
 21
348.67615384615397
 31
0.0
  0
LINE
  5
F5
330
17
100
AcDbEntity
  8
bottom #1
100
AcDbLine
 10
3.250000000000003
 20
348.67615384615397
 30
0.0
 11
0.5
 21
348.67615384615397
 31
0.0
  0
LINE
  5
F6
330
17
100
AcDbEntity
  8
bottom #1
100
AcDbLine
 10
3.250000000000003
 20
348.67615384615397
 30
0.0
 11
3.250000000000003
 21
339.0223076923078
 31
0.0
  0
LINE
  5
F7
330
17
100
AcDbEntity
  8
bottom #1
100
AcDbLine
 10
3.250000000000003
 20
339.0223076923078
 30
0.0
 11
0.5
 21
339.0223076923078
 31
0.0
  0
LINE
  5
F8
330
17
100
AcDbEntity
  8
bottom #1
100
AcDbLine
 10
0.5
 20
339.0223076923078
 30
0.0
 11
0.5
 21
329.36846153846164
 31
0.0
  0
LINE
  5
F9
330
17
100
AcDbEntity
  8
bottom #1
100
AcDbLine
 10
3.250000000000003
 20
329.36846153846164
 30
0.0
 11
0.5
 21
329.36846153846164
 31
0.0
  0
LINE
  5
FA
330
17
100
AcDbEntity
  8
bottom #1
100
AcDbLine
 10
3.250000000000003
 20
329.36846153846164
 30
0.0
 11
3.250000000000003
 21
319.7146153846155
 31
0.0
  0
LINE
  5
FB
330
17
100
AcDbEntity
  8
bottom #1
100
AcDbLine
 10
3.250000000000003
 20
319.7146153846155
 30
0.0
 11
0.5
 21
319.7146153846155
 31
0.0
  0
LINE
  5
FC
330
17
100
AcDbEntity
  8
bottom #1
100
AcDbLine
 10
0.5
 20
319.7146153846155
 30
0.0
 11
0.5
 21
310.0607692307693
 31
0.0
  0
LINE
  5
FD
330
17
100
AcDbEntity
  8
bottom #1
100
AcDbLine
 10
3.250000000000003
 20
310.0607692307693
 30
0.0
 11
0.5
 21
310.0607692307693
 31
0.0
  0
LINE
  5
FE
330
17
100
AcDbEntity
  8
bottom #1
100
AcDbLine
 10
3.250000000000003
 20
310.0607692307693
 30
0.0
 11
3.250000000000003
 21
300.4069230769232
 31
0.0
  0
LINE
  5
FF
330
17
100
AcDbEntity
  8
bottom #1
100
AcDbLine
 10
3.250000000000003
 20
300.4069230769232
 30
0.0
 11
0.5
 21
300.4069230769232
 31
0.0
  0
LINE
  5
100
330
17
100
AcDbEntity
  8
bottom #1
100
AcDbLine
 10
0.5
 20
300.4069230769232
 30
0.0
 11
0.5
 21
290.753076923077
 31
0.0
  0
LINE
  5
101
330
17
100
AcDbEntity
  8
bottom #1
100
AcDbLine
 10
3.250000000000003
 20
290.753076923077
 30
0.0
 11
0.5
 21
290.753076923077
 31
0.0
  0
LINE
  5
102
330
17
100
AcDbEntity
  8
bottom #1
100
AcDbLine
 10
3.250000000000003
 20
290.753076923077
 30
0.0
 11
3.250000000000003
 21
281.09923076923087
 31
0.0
  0
LINE
  5
103
330
17
100
AcDbEntity
  8
bottom #1
100
AcDbLine
 10
3.250000000000003
 20
281.09923076923087
 30
0.0
 11
0.5
 21
281.09923076923087
 31
0.0
  0
LINE
  5
104
330
17
100
AcDbEntity
  8
bottom #1
100
AcDbLine
 10
0.5
 20
281.09923076923087
 30
0.0
 11
0.5
 21
271.4453846153847
 31
0.0
  0
LINE
  5
105
330
17
100
AcDbEntity
  8
bottom #1
100
AcDbLine
 10
3.250000000000003
 20
271.4453846153847
 30
0.0
 11
0.5
 21
271.4453846153847
 31
0.0
  0
LINE
  5
106
330
17
100
AcDbEntity
  8
bottom #1
100
AcDbLine
 10
3.250000000000003
 20
271.4453846153847
 30
0.0
 11
3.250000000000003
 21
261.79153846153855
 31
0.0
  0
LINE
  5
107
330
17
100
AcDbEntity
  8
bottom #1
100
AcDbLine
 10
3.250000000000003
 20
261.79153846153855
 30
0.0
 11
0.5
 21
261.79153846153855
 31
0.0
  0
LINE
  5
108
330
17
100
AcDbEntity
  8
bottom #1
100
AcDbLine
 10
0.5
 20
261.79153846153855
 30
0.0
 11
0.5
 21
252.1376923076924
 31
0.0
  0
LINE
  5
109
330
17
100
AcDbEntity
  8
bottom #1
100
AcDbLine
 10
3.250000000000003
 20
252.1376923076924
 30
0.0
 11
0.5
 21
252.1376923076924
 31
0.0
  0
LINE
  5
10A
330
17
100
AcDbEntity
  8
bottom #1
100
AcDbLine
 10
3.250000000000003
 20
252.1376923076924
 30
0.0
 11
3.250000000000003
 21
242.48384615384626
 31
0.0
  0
LINE
  5
10B
330
17
100
AcDbEntity
  8
bottom #1
100
AcDbLine
 10
3.250000000000003
 20
242.48384615384626
 30
0.0
 11
0.5
 21
242.48384615384626
 31
0.0
  0
LINE
  5
10C
330
17
100
AcDbEntity
  8
bottom #1
100
AcDbLine
 10
0.5
 20
242.48384615384626
 30
0.0
 11
0.5
 21
232.8300000000001
 31
0.0
  0
LINE
  5
10D
330
17
100
AcDbEntity
  8
bottom #1
100
AcDbLine
 10
0.5
 20
232.8300000000001
 30
0.0
 11
10.15384615384615
 21
232.8300000000001
 31
0.0
  0
LINE
  5
10E
330
17
100
AcDbEntity
  8
bottom #1
100
AcDbLine
 10
10.15384615384615
 20
235.58000000000013
 30
0.0
 11
10.15384615384615
 21
232.8300000000001
 31
0.0
  0
LINE
  5
10F
330
17
100
AcDbEntity
  8
bottom #1
100
AcDbLine
 10
10.15384615384615
 20
235.58000000000013
 30
0.0
 11
19.8076923076923
 21
235.58000000000013
 31
0.0
  0
LINE
  5
110
330
17
100
AcDbEntity
  8
bottom #1
100
AcDbLine
 10
19.8076923076923
 20
235.58000000000013
 30
0.0
 11
19.8076923076923
 21
232.8300000000001
 31
0.0
  0
LINE
  5
111
330
17
100
AcDbEntity
  8
bottom #1
100
AcDbLine
 10
19.8076923076923
 20
232.8300000000001
 30
0.0
 11
29.46153846153846
 21
232.8300000000001
 31
0.0
  0
LWPOLYLINE
  5
112
330
17
100
AcDbEntity
  8
DEBUG_bottom #1
100
AcDbPolyline
 90
5
 70
0
 10
0.0
 20
232.3300000000001
 10
125.5
 20
232.3300000000001
 10
125.5
 20
357.8300000000001
 10
0.0
 20
357.8300000000001
 10
0.0
 20
232.3300000000001
  0
LINE
  5
114
330
17
100
AcDbEntity
  8
side-a #1
100
AcDbLine
 10
21.25
 20
129.2500000000001
 30
0.0
 11
21.25
 21
126.5
 31
0.0
  0
LINE
  5
115
330
17
100
AcDbEntity
  8
side-a #1
100
AcDbLine
 10
21.25
 20
129.2500000000001
 30
0.0
 11
27.25
 21
129.2500000000001
 31
0.0
  0
LINE
  5
116
330
17
100
AcDbEntity
  8
side-a #1
100
AcDbLine
 10
27.25
 20
129.2500000000001
 30
0.0
 11
27.25
 21
126.5
 31
0.0
  0
LINE
  5
117
330
17
100
AcDbEntity
  8
side-a #1
100
AcDbLine
 10
33.25
 20
126.5
 30
0.0
 11
27.25
 21
126.5
 31
0.0
  0
LINE
  5
118
330
17
100
AcDbEntity
  8
side-a #1
100
AcDbLine
 10
33.25
 20
249.2500000000001
 30
0.0
 11
33.25
 21
126.5
 31
0.0
  0
LINE
  5
119
330
17
100
AcDbEntity
  8
side-a #1
100
AcDbLine
 10
33.25
 20
249.2500000000001
 30
0.0
 11
27.25
 21
249.2500000000001
 31
0.0
  0
LINE
  5
11A
330
17
100
AcDbEntity
  8
side-a #1
100
AcDbLine
 10
27.25
 20
249.2500000000001
 30
0.0
 11
27.25
 21
252.0000000000001
 31
0.0
  0
LINE
  5
11B
330
17
100
AcDbEntity
  8
side-a #1
100
AcDbLine
 10
27.25
 20
252.0000000000001
 30
0.0
 11
21.25
 21
252.0000000000001
 31
0.0
  0
LINE
  5
11C
330
17
100
AcDbEntity
  8
side-a #1
100
AcDbLine
 10
21.25
 20
249.2500000000001
 30
0.0
 11
21.25
 21
252.0000000000001
 31
0.0
  0
LINE
  5
11D
330
17
100
AcDbEntity
  8
side-a #1
100
AcDbLine
 10
21.25
 20
249.2500000000001
 30
0.0
 11
15.25
 21
249.2500000000001
 31
0.0
  0
LINE
  5
11E
330
17
100
AcDbEntity
  8
side-a #1
100
AcDbLine
 10
15.25
 20
249.2500000000001
 30
0.0
 11
15.25
 21
252.0000000000001
 31
0.0
  0
LINE
  5
11F
330
17
100
AcDbEntity
  8
side-a #1
100
AcDbLine
 10
15.25
 20
252.0000000000001
 30
0.0
 11
9.250000000000002
 21
252.0000000000001
 31
0.0
  0
LINE
  5
120
330
17
100
AcDbEntity
  8
side-a #1
100
AcDbLine
 10
9.250000000000002
 20
249.2500000000001
 30
0.0
 11
9.250000000000002
 21
252.0000000000001
 31
0.0
  0
LINE
  5
121
330
17
100
AcDbEntity
  8
side-a #1
100
AcDbLine
 10
9.250000000000002
 20
249.2500000000001
 30
0.0
 11
3.249999999999999
 21
249.2500000000001
 31
0.0
  0
LINE
  5
122
330
17
100
AcDbEntity
  8
side-a #1
100
AcDbLine
 10
3.249999999999999
 20
242.3461538461539
 30
0.0
 11
3.249999999999999
 21
249.2500000000001
 31
0.0
  0
LINE
  5
123
330
17
100
AcDbEntity
  8
side-a #1
100
AcDbLine
 10
0.5
 20
242.3461538461539
 30
0.0
 11
3.249999999999999
 21
242.3461538461539
 31
0.0
  0
LINE
  5
124
330
17
100
AcDbEntity
  8
side-a #1
100
AcDbLine
 10
0.5
 20
242.3461538461539
 30
0.0
 11
0.5
 21
232.6923076923078
 31
0.0
  0
LINE
  5
125
330
17
100
AcDbEntity
  8
side-a #1
100
AcDbLine
 10
0.5
 20
232.6923076923078
 30
0.0
 11
3.249999999999999
 21
232.6923076923078
 31
0.0
  0
LINE
  5
126
330
17
100
AcDbEntity
  8
side-a #1
100
AcDbLine
 10
3.249999999999999
 20
223.0384615384616
 30
0.0
 11
3.249999999999999
 21
232.6923076923078
 31
0.0
  0
LINE
  5
127
330
17
100
AcDbEntity
  8
side-a #1
100
AcDbLine
 10
0.5
 20
223.0384615384616
 30
0.0
 11
3.249999999999999
 21
223.0384615384616
 31
0.0
  0
LINE
  5
128
330
17
100
AcDbEntity
  8
side-a #1
100
AcDbLine
 10
0.5
 20
223.0384615384616
 30
0.0
 11
0.5
 21
213.3846153846154
 31
0.0
  0
LINE
  5
129
330
17
100
AcDbEntity
  8
side-a #1
100
AcDbLine
 10
0.5
 20
213.3846153846154
 30
0.0
 11
3.249999999999999
 21
213.3846153846154
 31
0.0
  0
LINE
  5
12A
330
17
100
AcDbEntity
  8
side-a #1
100
AcDbLine
 10
3.249999999999999
 20
203.7307692307693
 30
0.0
 11
3.249999999999999
 21
213.3846153846154
 31
0.0
  0
LINE
  5
12B
330
17
100
AcDbEntity
  8
side-a #1
100
AcDbLine
 10
0.5
 20
203.7307692307693
 30
0.0
 11
3.249999999999999
 21
203.7307692307693
 31
0.0
  0
LINE
  5
12C
330
17
100
AcDbEntity
  8
side-a #1
100
AcDbLine
 10
0.5
 20
203.7307692307693
 30
0.0
 11
0.5
 21
194.0769230769232
 31
0.0
  0
LINE
  5
12D
330
17
100
AcDbEntity
  8
side-a #1
100
AcDbLine
 10
0.5
 20
194.0769230769232
 30
0.0
 11
3.249999999999999
 21
194.0769230769232
 31
0.0
  0
LINE
  5
12E
330
17
100
AcDbEntity
  8
side-a #1
100
AcDbLine
 10
3.249999999999999
 20
184.423076923077
 30
0.0
 11
3.249999999999999
 21
194.0769230769232
 31
0.0
  0
LINE
  5
12F
330
17
100
AcDbEntity
  8
side-a #1
100
AcDbLine
 10
0.5
 20
184.423076923077
 30
0.0
 11
3.249999999999999
 21
184.423076923077
 31
0.0
  0
LINE
  5
130
330
17
100
AcDbEntity
  8
side-a #1
100
AcDbLine
 10
0.5
 20
184.423076923077
 30
0.0
 11
0.5
 21
174.7692307692308
 31
0.0
  0
LINE
  5
131
330
17
100
AcDbEntity
  8
side-a #1
100
AcDbLine
 10
0.5
 20
174.7692307692308
 30
0.0
 11
3.249999999999999
 21
174.7692307692308
 31
0.0
  0
LINE
  5
132
330
17
100
AcDbEntity
  8
side-a #1
100
AcDbLine
 10
3.249999999999999
 20
165.1153846153847
 30
0.0
 11
3.249999999999999
 21
174.7692307692308
 31
0.0
  0
LINE
  5
133
330
17
100
AcDbEntity
  8
side-a #1
100
AcDbLine
 10
0.5
 20
165.1153846153847
 30
0.0
 11
3.249999999999999
 21
165.1153846153847
 31
0.0
  0
LINE
  5
134
330
17
100
AcDbEntity
  8
side-a #1
100
AcDbLine
 10
0.5
 20
165.1153846153847
 30
0.0
 11
0.5
 21
155.4615384615385
 31
0.0
  0
LINE
  5
135
330
17
100
AcDbEntity
  8
side-a #1
100
AcDbLine
 10
0.5
 20
155.4615384615385
 30
0.0
 11
3.249999999999999
 21
155.4615384615385
 31
0.0
  0
LINE
  5
136
330
17
100
AcDbEntity
  8
side-a #1
100
AcDbLine
 10
3.249999999999999
 20
145.8076923076923
 30
0.0
 11
3.249999999999999
 21
155.4615384615385
 31
0.0
  0
LINE
  5
137
330
17
100
AcDbEntity
  8
side-a #1
100
AcDbLine
 10
0.5
 20
145.8076923076923
 30
0.0
 11
3.249999999999999
 21
145.8076923076923
 31
0.0
  0
LINE
  5
138
330
17
100
AcDbEntity
  8
side-a #1
100
AcDbLine
 10
0.5
 20
145.8076923076923
 30
0.0
 11
0.5
 21
136.1538461538462
 31
0.0
  0
LINE
  5
139
330
17
100
AcDbEntity
  8
side-a #1
100
AcDbLine
 10
0.5
 20
136.1538461538462
 30
0.0
 11
3.249999999999999
 21
136.1538461538462
 31
0.0
  0
LINE
  5
13A
330
17
100
AcDbEntity
  8
side-a #1
100
AcDbLine
 10
3.249999999999999
 20
126.5
 30
0.0
 11
3.249999999999999
 21
136.1538461538462
 31
0.0
  0
LINE
  5
13B
330
17
100
AcDbEntity
  8
side-a #1
100
AcDbLine
 10
9.25
 20
126.5
 30
0.0
 11
3.249999999999999
 21
126.5
 31
0.0
  0
LINE
  5
13C
330
17
100
AcDbEntity
  8
side-a #1
100
AcDbLine
 10
9.25
 20
129.2500000000001
 30
0.0
 11
9.25
 21
126.5
 31
0.0
  0
LINE
  5
13D
330
17
100
AcDbEntity
  8
side-a #1
100
AcDbLine
 10
9.25
 20
129.2500000000001
 30
0.0
 11
15.25
 21
129.2500000000001
 31
0.0
  0
LINE
  5
13E
330
17
100
AcDbEntity
  8
side-a #1
100
AcDbLine
 10
15.25
 20
129.2500000000001
 30
0.0
 11
15.25
 21
126.5
 31
0.0
  0
LINE
  5
13F
330
17
100
AcDbEntity
  8
side-a #1
100
AcDbLine
 10
21.25
 20
126.5
 30
0.0
 11
15.25
 21
126.5
 31
0.0
  0
LWPOLYLINE
  5
140
330
17
100
AcDbEntity
  8
DEBUG_side-a #1
100
AcDbPolyline
 90
5
 70
0
 10
0.0
 20
0.0
 10
32.75
 20
0.0
 10
32.75
 20
125.50000000000011
 10
0.0
 20
125.50000000000011
 10
0.0
 20
0.0
  0
LINE
  5
142
330
17
100
AcDbEntity
  8
side-a #2
100
AcDbLine
 10
58.29000000000005
 20
129.2500000000001
 30
0.0
 11
58.29000000000005
 21
126.5
 31
0.0
  0
LINE
  5
143
330
17
100
AcDbEntity
  8
side-a #2
100
AcDbLine
 10
58.29000000000005
 20
129.2500000000001
 30
0.0
 11
64.29000000000005
 21
129.2500000000001
 31
0.0
  0
LINE
  5
144
330
17
100
AcDbEntity
  8
side-a #2
100
AcDbLine
 10
64.29000000000005
 20
129.2500000000001
 30
0.0
 11
64.29000000000005
 21
126.5
 31
0.0
  0
LINE
  5
145
330
17
100
AcDbEntity
  8
side-a #2
100
AcDbLine
 10
70.29000000000005
 20
126.5
 30
0.0
 11
64.29000000000005
 21
126.5
 31
0.0
  0
LINE
  5
146
330
17
100
AcDbEntity
  8
side-a #2
100
AcDbLine
 10
70.29000000000005
 20
249.2500000000001
 30
0.0
 11
70.29000000000005
 21
126.5
 31
0.0
  0
LINE
  5
147
330
17
100
AcDbEntity
  8
side-a #2
100
AcDbLine
 10
70.29000000000005
 20
249.2500000000001
 30
0.0
 11
64.29000000000005
 21
249.2500000000001
 31
0.0
  0
LINE
  5
148
330
17
100
AcDbEntity
  8
side-a #2
100
AcDbLine
 10
64.29000000000005
 20
249.2500000000001
 30
0.0
 11
64.29000000000005
 21
252.0000000000001
 31
0.0
  0
LINE
  5
149
330
17
100
AcDbEntity
  8
side-a #2
100
AcDbLine
 10
64.29000000000005
 20
252.0000000000001
 30
0.0
 11
58.29000000000005
 21
252.0000000000001
 31
0.0
  0
LINE
  5
14A
330
17
100
AcDbEntity
  8
side-a #2
100
AcDbLine
 10
58.29000000000005
 20
249.2500000000001
 30
0.0
 11
58.29000000000005
 21
252.0000000000001
 31
0.0
  0
LINE
  5
14B
330
17
100
AcDbEntity
  8
side-a #2
100
AcDbLine
 10
58.29000000000005
 20
249.2500000000001
 30
0.0
 11
52.29000000000005
 21
249.2500000000001
 31
0.0
  0
LINE
  5
14C
330
17
100
AcDbEntity
  8
side-a #2
100
AcDbLine
 10
52.29000000000005
 20
249.2500000000001
 30
0.0
 11
52.29000000000005
 21
252.0000000000001
 31
0.0
  0
LINE
  5
14D
330
17
100
AcDbEntity
  8
side-a #2
100
AcDbLine
 10
52.29000000000005
 20
252.0000000000001
 30
0.0
 11
46.29000000000005
 21
252.0000000000001
 31
0.0
  0
LINE
  5
14E
330
17
100
AcDbEntity
  8
side-a #2
100
AcDbLine
 10
46.29000000000005
 20
249.2500000000001
 30
0.0
 11
46.29000000000005
 21
252.0000000000001
 31
0.0
  0
LINE
  5
14F
330
17
100
AcDbEntity
  8
side-a #2
100
AcDbLine
 10
46.29000000000005
 20
249.2500000000001
 30
0.0
 11
40.29000000000005
 21
249.2500000000001
 31
0.0
  0
LINE
  5
150
330
17
100
AcDbEntity
  8
side-a #2
100
AcDbLine
 10
40.29000000000005
 20
242.3461538461539
 30
0.0
 11
40.29000000000005
 21
249.2500000000001
 31
0.0
  0
LINE
  5
151
330
17
100
AcDbEntity
  8
side-a #2
100
AcDbLine
 10
37.54000000000005
 20
242.3461538461539
 30
0.0
 11
40.29000000000005
 21
242.3461538461539
 31
0.0
  0
LINE
  5
152
330
17
100
AcDbEntity
  8
side-a #2
100
AcDbLine
 10
37.54000000000005
 20
242.3461538461539
 30
0.0
 11
37.54000000000005
 21
232.6923076923078
 31
0.0
  0
LINE
  5
153
330
17
100
AcDbEntity
  8
side-a #2
100
AcDbLine
 10
37.54000000000005
 20
232.6923076923078
 30
0.0
 11
40.29000000000005
 21
232.6923076923078
 31
0.0
  0
LINE
  5
154
330
17
100
AcDbEntity
  8
side-a #2
100
AcDbLine
 10
40.29000000000005
 20
223.0384615384616
 30
0.0
 11
40.29000000000005
 21
232.6923076923078
 31
0.0
  0
LINE
  5
155
330
17
100
AcDbEntity
  8
side-a #2
100
AcDbLine
 10
37.54000000000005
 20
223.0384615384616
 30
0.0
 11
40.29000000000005
 21
223.0384615384616
 31
0.0
  0
LINE
  5
156
330
17
100
AcDbEntity
  8
side-a #2
100
AcDbLine
 10
37.54000000000005
 20
223.0384615384616
 30
0.0
 11
37.54000000000005
 21
213.3846153846154
 31
0.0
  0
LINE
  5
157
330
17
100
AcDbEntity
  8
side-a #2
100
AcDbLine
 10
37.54000000000005
 20
213.3846153846154
 30
0.0
 11
40.29000000000005
 21
213.3846153846154
 31
0.0
  0
LINE
  5
158
330
17
100
AcDbEntity
  8
side-a #2
100
AcDbLine
 10
40.29000000000005
 20
203.7307692307693
 30
0.0
 11
40.29000000000005
 21
213.3846153846154
 31
0.0
  0
LINE
  5
159
330
17
100
AcDbEntity
  8
side-a #2
100
AcDbLine
 10
37.54000000000005
 20
203.7307692307693
 30
0.0
 11
40.29000000000005
 21
203.7307692307693
 31
0.0
  0
LINE
  5
15A
330
17
100
AcDbEntity
  8
side-a #2
100
AcDbLine
 10
37.54000000000005
 20
203.7307692307693
 30
0.0
 11
37.54000000000005
 21
194.0769230769232
 31
0.0
  0
LINE
  5
15B
330
17
100
AcDbEntity
  8
side-a #2
100
AcDbLine
 10
37.54000000000005
 20
194.0769230769232
 30
0.0
 11
40.29000000000005
 21
194.0769230769232
 31
0.0
  0
LINE
  5
15C
330
17
100
AcDbEntity
  8
side-a #2
100
AcDbLine
 10
40.29000000000005
 20
184.423076923077
 30
0.0
 11
40.29000000000005
 21
194.0769230769232
 31
0.0
  0
LINE
  5
15D
330
17
100
AcDbEntity
  8
side-a #2
100
AcDbLine
 10
37.54000000000005
 20
184.423076923077
 30
0.0
 11
40.29000000000005
 21
184.423076923077
 31
0.0
  0
LINE
  5
15E
330
17
100
AcDbEntity
  8
side-a #2
100
AcDbLine
 10
37.54000000000005
 20
184.423076923077
 30
0.0
 11
37.54000000000005
 21
174.7692307692308
 31
0.0
  0
LINE
  5
15F
330
17
100
AcDbEntity
  8
side-a #2
100
AcDbLine
 10
37.54000000000005
 20
174.7692307692308
 30
0.0
 11
40.29000000000005
 21
174.7692307692308
 31
0.0
  0
LINE
  5
160
330
17
100
AcDbEntity
  8
side-a #2
100
AcDbLine
 10
40.29000000000005
 20
165.1153846153847
 30
0.0
 11
40.29000000000005
 21
174.7692307692308
 31
0.0
  0
LINE
  5
161
330
17
100
AcDbEntity
  8
side-a #2
100
AcDbLine
 10
37.54000000000005
 20
165.1153846153847
 30
0.0
 11
40.29000000000005
 21
165.1153846153847
 31
0.0
  0
LINE
  5
162
330
17
100
AcDbEntity
  8
side-a #2
100
AcDbLine
 10
37.54000000000005
 20
165.1153846153847
 30
0.0
 11
37.54000000000005
 21
155.4615384615385
 31
0.0
  0
LINE
  5
163
330
17
100
AcDbEntity
  8
side-a #2
100
AcDbLine
 10
37.54000000000005
 20
155.4615384615385
 30
0.0
 11
40.29000000000005
 21
155.4615384615385
 31
0.0
  0
LINE
  5
164
330
17
100
AcDbEntity
  8
side-a #2
100
AcDbLine
 10
40.29000000000005
 20
145.8076923076923
 30
0.0
 11
40.29000000000005
 21
155.4615384615385
 31
0.0
  0
LINE
  5
165
330
17
100
AcDbEntity
  8
side-a #2
100
AcDbLine
 10
37.54000000000005
 20
145.8076923076923
 30
0.0
 11
40.29000000000005
 21
145.8076923076923
 31
0.0
  0
LINE
  5
166
330
17
100
AcDbEntity
  8
side-a #2
100
AcDbLine
 10
37.54000000000005
 20
145.8076923076923
 30
0.0
 11
37.54000000000005
 21
136.1538461538462
 31
0.0
  0
LINE
  5
167
330
17
100
AcDbEntity
  8
side-a #2
100
AcDbLine
 10
37.54000000000005
 20
136.1538461538462
 30
0.0
 11
40.29000000000005
 21
136.1538461538462
 31
0.0
  0
LINE
  5
168
330
17
100
AcDbEntity
  8
side-a #2
100
AcDbLine
 10
40.29000000000005
 20
126.5
 30
0.0
 11
40.29000000000005
 21
136.1538461538462
 31
0.0
  0
LINE
  5
169
330
17
100
AcDbEntity
  8
side-a #2
100
AcDbLine
 10
46.29000000000005
 20
126.5
 30
0.0
 11
40.29000000000005
 21
126.5
 31
0.0
  0
LINE
  5
16A
330
17
100
AcDbEntity
  8
side-a #2
100
AcDbLine
 10
46.29000000000005
 20
129.2500000000001
 30
0.0
 11
46.29000000000005
 21
126.5
 31
0.0
  0
LINE
  5
16B
330
17
100
AcDbEntity
  8
side-a #2
100
AcDbLine
 10
46.29000000000005
 20
129.2500000000001
 30
0.0
 11
52.29000000000005
 21
129.2500000000001
 31
0.0
  0
LINE
  5
16C
330
17
100
AcDbEntity
  8
side-a #2
100
AcDbLine
 10
52.29000000000005
 20
129.2500000000001
 30
0.0
 11
52.29000000000005
 21
126.5
 31
0.0
  0
LINE
  5
16D
330
17
100
AcDbEntity
  8
side-a #2
100
AcDbLine
 10
58.29000000000005
 20
126.5
 30
0.0
 11
52.29000000000005
 21
126.5
 31
0.0
  0
LWPOLYLINE
  5
16E
330
17
100
AcDbEntity
  8
DEBUG_side-a #2
100
AcDbPolyline
 90
5
 70
0
 10
37.04000000000005
 20
0.0
 10
69.79000000000005
 20
0.0
 10
69.79000000000005
 20
125.50000000000011
 10
37.04000000000005
 20
125.50000000000011
 10
37.04000000000005
 20
0.0
  0
LINE
  5
170
330
17
100
AcDbEntity
  8
side-b #1
100
AcDbLine
 10
77.3300000000001
 20
261.2500000000001
 30
0.0
 11
74.5800000000001
 21
261.2500000000001
 31
0.0
  0
LINE
  5
171
330
17
100
AcDbEntity
  8
side-b #1
100
AcDbLine
 10
77.3300000000001
 20
261.2500000000001
 30
0.0
 11
77.3300000000001
 21
255.25
 31
0.0
  0
LINE
  5
172
330
17
100
AcDbEntity
  8
side-b #1
100
AcDbLine
 10
84.23384615384624
 20
255.25
 30
0.0
 11
77.3300000000001
 21
255.25
 31
0.0
  0
LINE
  5
173
330
17
100
AcDbEntity
  8
side-b #1
100
AcDbLine
 10
84.23384615384624
 20
252.5000000000001
 30
0.0
 11
84.23384615384624
 21
255.25
 31
0.0
  0
LINE
  5
174
330
17
100
AcDbEntity
  8
side-b #1
100
AcDbLine
 10
84.23384615384624
 20
252.5000000000001
 30
0.0
 11
93.88769230769239
 21
252.5000000000001
 31
0.0
  0
LINE
  5
175
330
17
100
AcDbEntity
  8
side-b #1
100
AcDbLine
 10
93.88769230769239
 20
252.5000000000001
 30
0.0
 11
93.88769230769239
 21
255.25
 31
0.0
  0
LINE
  5
176
330
17
100
AcDbEntity
  8
side-b #1
100
AcDbLine
 10
103.54153846153855
 20
255.25
 30
0.0
 11
93.88769230769239
 21
255.25
 31
0.0
  0
LINE
  5
177
330
17
100
AcDbEntity
  8
side-b #1
100
AcDbLine
 10
103.54153846153855
 20
252.5000000000001
 30
0.0
 11
103.54153846153855
 21
255.25
 31
0.0
  0
LINE
  5
178
330
17
100
AcDbEntity
  8
side-b #1
100
AcDbLine
 10
103.54153846153855
 20
252.5000000000001
 30
0.0
 11
113.19538461538471
 21
252.5000000000001
 31
0.0
  0
LINE
  5
179
330
17
100
AcDbEntity
  8
side-b #1
100
AcDbLine
 10
113.19538461538471
 20
252.5000000000001
 30
0.0
 11
113.19538461538471
 21
255.25
 31
0.0
  0
LINE
  5
17A
330
17
100
AcDbEntity
  8
side-b #1
100
AcDbLine
 10
122.84923076923087
 20
255.25
 30
0.0
 11
113.19538461538471
 21
255.25
 31
0.0
  0
LINE
  5
17B
330
17
100
AcDbEntity
  8
side-b #1
100
AcDbLine
 10
122.84923076923087
 20
252.5000000000001
 30
0.0
 11
122.84923076923087
 21
255.25
 31
0.0
  0
LINE
  5
17C
330
17
100
AcDbEntity
  8
side-b #1
100
AcDbLine
 10
122.84923076923087
 20
252.5000000000001
 30
0.0
 11
132.503076923077
 21
252.5000000000001
 31
0.0
  0
LINE
  5
17D
330
17
100
AcDbEntity
  8
side-b #1
100
AcDbLine
 10
132.503076923077
 20
252.5000000000001
 30
0.0
 11
132.503076923077
 21
255.25
 31
0.0
  0
LINE
  5
17E
330
17
100
AcDbEntity
  8
side-b #1
100
AcDbLine
 10
142.1569230769232
 20
255.25
 30
0.0
 11
132.503076923077
 21
255.25
 31
0.0
  0
LINE
  5
17F
330
17
100
AcDbEntity
  8
side-b #1
100
AcDbLine
 10
142.1569230769232
 20
252.5000000000001
 30
0.0
 11
142.1569230769232
 21
255.25
 31
0.0
  0
LINE
  5
180
330
17
100
AcDbEntity
  8
side-b #1
100
AcDbLine
 10
142.1569230769232
 20
252.5000000000001
 30
0.0
 11
151.81076923076932
 21
252.5000000000001
 31
0.0
  0
LINE
  5
181
330
17
100
AcDbEntity
  8
side-b #1
100
AcDbLine
 10
151.81076923076932
 20
252.5000000000001
 30
0.0
 11
151.81076923076932
 21
255.25
 31
0.0
  0
LINE
  5
182
330
17
100
AcDbEntity
  8
side-b #1
100
AcDbLine
 10
161.46461538461548
 20
255.25
 30
0.0
 11
151.81076923076932
 21
255.25
 31
0.0
  0
LINE
  5
183
330
17
100
AcDbEntity
  8
side-b #1
100
AcDbLine
 10
161.46461538461548
 20
252.5000000000001
 30
0.0
 11
161.46461538461548
 21
255.25
 31
0.0
  0
LINE
  5
184
330
17
100
AcDbEntity
  8
side-b #1
100
AcDbLine
 10
161.46461538461548
 20
252.5000000000001
 30
0.0
 11
171.11846153846164
 21
252.5000000000001
 31
0.0
  0
LINE
  5
185
330
17
100
AcDbEntity
  8
side-b #1
100
AcDbLine
 10
171.11846153846164
 20
252.5000000000001
 30
0.0
 11
171.11846153846164
 21
255.25
 31
0.0
  0
LINE
  5
186
330
17
100
AcDbEntity
  8
side-b #1
100
AcDbLine
 10
180.77230769230778
 20
255.25
 30
0.0
 11
171.11846153846164
 21
255.25
 31
0.0
  0
LINE
  5
187
330
17
100
AcDbEntity
  8
side-b #1
100
AcDbLine
 10
180.77230769230778
 20
252.5000000000001
 30
0.0
 11
180.77230769230778
 21
255.25
 31
0.0
  0
LINE
  5
188
330
17
100
AcDbEntity
  8
side-b #1
100
AcDbLine
 10
180.77230769230778
 20
252.5000000000001
 30
0.0
 11
190.4261538461539
 21
252.5000000000001
 31
0.0
  0
LINE
  5
189
330
17
100
AcDbEntity
  8
side-b #1
100
AcDbLine
 10
190.4261538461539
 20
252.5000000000001
 30
0.0
 11
190.4261538461539
 21
255.25
 31
0.0
  0
LINE
  5
18A
330
17
100
AcDbEntity
  8
side-b #1
100
AcDbLine
 10
197.3300000000001
 20
255.25
 30
0.0
 11
190.4261538461539
 21
255.25
 31
0.0
  0
LINE
  5
18B
330
17
100
AcDbEntity
  8
side-b #1
100
AcDbLine
 10
197.3300000000001
 20
255.25
 30
0.0
 11
197.3300000000001
 21
261.2500000000001
 31
0.0
  0
LINE
  5
18C
330
17
100
AcDbEntity
  8
side-b #1
100
AcDbLine
 10
197.3300000000001
 20
261.2500000000001
 30
0.0
 11
200.0800000000001
 21
261.2500000000001
 31
0.0
  0
LINE
  5
18D
330
17
100
AcDbEntity
  8
side-b #1
100
AcDbLine
 10
200.0800000000001
 20
267.2500000000001
 30
0.0
 11
200.0800000000001
 21
261.2500000000001
 31
0.0
  0
LINE
  5
18E
330
17
100
AcDbEntity
  8
side-b #1
100
AcDbLine
 10
197.3300000000001
 20
267.2500000000001
 30
0.0
 11
200.0800000000001
 21
267.2500000000001
 31
0.0
  0
LINE
  5
18F
330
17
100
AcDbEntity
  8
side-b #1
100
AcDbLine
 10
197.3300000000001
 20
267.2500000000001
 30
0.0
 11
197.3300000000001
 21
273.2500000000001
 31
0.0
  0
LINE
  5
190
330
17
100
AcDbEntity
  8
side-b #1
100
AcDbLine
 10
197.3300000000001
 20
273.2500000000001
 30
0.0
 11
200.0800000000001
 21
273.2500000000001
 31
0.0
  0
LINE
  5
191
330
17
100
AcDbEntity
  8
side-b #1
100
AcDbLine
 10
200.0800000000001
 20
279.2500000000001
 30
0.0
 11
200.0800000000001
 21
273.2500000000001
 31
0.0
  0
LINE
  5
192
330
17
100
AcDbEntity
  8
side-b #1
100
AcDbLine
 10
197.3300000000001
 20
279.2500000000001
 30
0.0
 11
200.0800000000001
 21
279.2500000000001
 31
0.0
  0
LINE
  5
193
330
17
100
AcDbEntity
  8
side-b #1
100
AcDbLine
 10
197.3300000000001
 20
279.2500000000001
 30
0.0
 11
197.3300000000001
 21
285.2500000000001
 31
0.0
  0
LINE
  5
194
330
17
100
AcDbEntity
  8
side-b #1
100
AcDbLine
 10
77.3300000000001
 20
285.2500000000001
 30
0.0
 11
197.3300000000001
 21
285.2500000000001
 31
0.0
  0
LINE
  5
195
330
17
100
AcDbEntity
  8
side-b #1
100
AcDbLine
 10
77.3300000000001
 20
285.2500000000001
 30
0.0
 11
77.3300000000001
 21
279.2500000000001
 31
0.0
  0
LINE
  5
196
330
17
100
AcDbEntity
  8
side-b #1
100
AcDbLine
 10
77.3300000000001
 20
279.2500000000001
 30
0.0
 11
74.5800000000001
 21
279.2500000000001
 31
0.0
  0
LINE
  5
197
330
17
100
AcDbEntity
  8
side-b #1
100
AcDbLine
 10
74.5800000000001
 20
279.2500000000001
 30
0.0
 11
74.5800000000001
 21
273.2500000000001
 31
0.0
  0
LINE
  5
198
330
17
100
AcDbEntity
  8
side-b #1
100
AcDbLine
 10
77.3300000000001
 20
273.2500000000001
 30
0.0
 11
74.5800000000001
 21
273.2500000000001
 31
0.0
  0
LINE
  5
199
330
17
100
AcDbEntity
  8
side-b #1
100
AcDbLine
 10
77.3300000000001
 20
273.2500000000001
 30
0.0
 11
77.3300000000001
 21
267.2500000000001
 31
0.0
  0
LINE
  5
19A
330
17
100
AcDbEntity
  8
side-b #1
100
AcDbLine
 10
77.3300000000001
 20
267.2500000000001
 30
0.0
 11
74.5800000000001
 21
267.2500000000001
 31
0.0
  0
LINE
  5
19B
330
17
100
AcDbEntity
  8
side-b #1
100
AcDbLine
 10
74.5800000000001
 20
267.2500000000001
 30
0.0
 11
74.5800000000001
 21
261.2500000000001
 31
0.0
  0
LWPOLYLINE
  5
19C
330
17
100
AcDbEntity
  8
DEBUG_side-b #1
100
AcDbPolyline
 90
5
 70
0
 10
74.0800000000001
 20
0.0
 10
199.5800000000001
 20
0.0
 10
199.5800000000001
 20
32.75
 10
74.0800000000001
 20
32.75
 10
74.0800000000001
 20
0.0
  0
LINE
  5
19E
330
17
100
AcDbEntity
  8
side-b #2
100
AcDbLine
 10
114.37000000000015
 20
261.2500000000001
 30
0.0
 11
111.62000000000015
 21
261.2500000000001
 31
0.0
  0
LINE
  5
19F
330
17
100
AcDbEntity
  8
side-b #2
100
AcDbLine
 10
114.37000000000015
 20
261.2500000000001
 30
0.0
 11
114.37000000000015
 21
255.25
 31
0.0
  0
LINE
  5
1A0
330
17
100
AcDbEntity
  8
side-b #2
100
AcDbLine
 10
121.27384615384629
 20
255.25
 30
0.0
 11
114.37000000000015
 21
255.25
 31
0.0
  0
LINE
  5
1A1
330
17
100
AcDbEntity
  8
side-b #2
100
AcDbLine
 10
121.27384615384629
 20
252.5000000000001
 30
0.0
 11
121.27384615384629
 21
255.25
 31
0.0
  0
LINE
  5
1A2
330
17
100
AcDbEntity
  8
side-b #2
100
AcDbLine
 10
121.27384615384629
 20
252.5000000000001
 30
0.0
 11
130.92769230769244
 21
252.5000000000001
 31
0.0
  0
LINE
  5
1A3
330
17
100
AcDbEntity
  8
side-b #2
100
AcDbLine
 10
130.92769230769244
 20
252.5000000000001
 30
0.0
 11
130.92769230769244
 21
255.25
 31
0.0
  0
LINE
  5
1A4
330
17
100
AcDbEntity
  8
side-b #2
100
AcDbLine
 10
140.5815384615386
 20
255.25
 30
0.0
 11
130.92769230769244
 21
255.25
 31
0.0
  0
LINE
  5
1A5
330
17
100
AcDbEntity
  8
side-b #2
100
AcDbLine
 10
140.5815384615386
 20
252.5000000000001
 30
0.0
 11
140.5815384615386
 21
255.25
 31
0.0
  0
LINE
  5
1A6
330
17
100
AcDbEntity
  8
side-b #2
100
AcDbLine
 10
140.5815384615386
 20
252.5000000000001
 30
0.0
 11
150.23538461538476
 21
252.5000000000001
 31
0.0
  0
LINE
  5
1A7
330
17
100
AcDbEntity
  8
side-b #2
100
AcDbLine
 10
150.23538461538476
 20
252.5000000000001
 30
0.0
 11
150.23538461538476
 21
255.25
 31
0.0
  0
LINE
  5
1A8
330
17
100
AcDbEntity
  8
side-b #2
100
AcDbLine
 10
159.88923076923092
 20
255.25
 30
0.0
 11
150.23538461538476
 21
255.25
 31
0.0
  0
LINE
  5
1A9
330
17
100
AcDbEntity
  8
side-b #2
100
AcDbLine
 10
159.88923076923092
 20
252.5000000000001
 30
0.0
 11
159.88923076923092
 21
255.25
 31
0.0
  0
LINE
  5
1AA
330
17
100
AcDbEntity
  8
side-b #2
100
AcDbLine
 10
159.88923076923092
 20
252.5000000000001
 30
0.0
 11
169.54307692307708
 21
252.5000000000001
 31
0.0
  0
LINE
  5
1AB
330
17
100
AcDbEntity
  8
side-b #2
100
AcDbLine
 10
169.54307692307708
 20
252.5000000000001
 30
0.0
 11
169.54307692307708
 21
255.25
 31
0.0
  0
LINE
  5
1AC
330
17
100
AcDbEntity
  8
side-b #2
100
AcDbLine
 10
179.1969230769232
 20
255.25
 30
0.0
 11
169.54307692307708
 21
255.25
 31
0.0
  0
LINE
  5
1AD
330
17
100
AcDbEntity
  8
side-b #2
100
AcDbLine
 10
179.1969230769232
 20
252.5000000000001
 30
0.0
 11
179.1969230769232
 21
255.25
 31
0.0
  0
LINE
  5
1AE
330
17
100
AcDbEntity
  8
side-b #2
100
AcDbLine
 10
179.1969230769232
 20
252.5000000000001
 30
0.0
 11
188.85076923076937
 21
252.5000000000001
 31
0.0
  0
LINE
  5
1AF
330
17
100
AcDbEntity
  8
side-b #2
100
AcDbLine
 10
188.85076923076937
 20
252.5000000000001
 30
0.0
 11
188.85076923076937
 21
255.25
 31
0.0
  0
LINE
  5
1B0
330
17
100
AcDbEntity
  8
side-b #2
100
AcDbLine
 10
198.50461538461553
 20
255.25
 30
0.0
 11
188.85076923076937
 21
255.25
 31
0.0
  0
LINE
  5
1B1
330
17
100
AcDbEntity
  8
side-b #2
100
AcDbLine
 10
198.50461538461553
 20
252.5000000000001
 30
0.0
 11
198.50461538461553
 21
255.25
 31
0.0
  0
LINE
  5
1B2
330
17
100
AcDbEntity
  8
side-b #2
100
AcDbLine
 10
198.50461538461553
 20
252.5000000000001
 30
0.0
 11
208.15846153846167
 21
252.5000000000001
 31
0.0
  0
LINE
  5
1B3
330
17
100
AcDbEntity
  8
side-b #2
100
AcDbLine
 10
208.15846153846167
 20
252.5000000000001
 30
0.0
 11
208.15846153846167
 21
255.25
 31
0.0
  0
LINE
  5
1B4
330
17
100
AcDbEntity
  8
side-b #2
100
AcDbLine
 10
217.81230769230785
 20
255.25
 30
0.0
 11
208.15846153846167
 21
255.25
 31
0.0
  0
LINE
  5
1B5
330
17
100
AcDbEntity
  8
side-b #2
100
AcDbLine
 10
217.81230769230785
 20
252.5000000000001
 30
0.0
 11
217.81230769230785
 21
255.25
 31
0.0
  0
LINE
  5
1B6
330
17
100
AcDbEntity
  8
side-b #2
100
AcDbLine
 10
217.81230769230785
 20
252.5000000000001
 30
0.0
 11
227.46615384615393
 21
252.5000000000001
 31
0.0
  0
LINE
  5
1B7
330
17
100
AcDbEntity
  8
side-b #2
100
AcDbLine
 10
227.46615384615393
 20
252.5000000000001
 30
0.0
 11
227.46615384615393
 21
255.25
 31
0.0
  0
LINE
  5
1B8
330
17
100
AcDbEntity
  8
side-b #2
100
AcDbLine
 10
234.37000000000015
 20
255.25
 30
0.0
 11
227.46615384615393
 21
255.25
 31
0.0
  0
LINE
  5
1B9
330
17
100
AcDbEntity
  8
side-b #2
100
AcDbLine
 10
234.37000000000015
 20
255.25
 30
0.0
 11
234.37000000000015
 21
261.2500000000001
 31
0.0
  0
LINE
  5
1BA
330
17
100
AcDbEntity
  8
side-b #2
100
AcDbLine
 10
234.37000000000015
 20
261.2500000000001
 30
0.0
 11
237.12000000000015
 21
261.2500000000001
 31
0.0
  0
LINE
  5
1BB
330
17
100
AcDbEntity
  8
side-b #2
100
AcDbLine
 10
237.12000000000015
 20
267.2500000000001
 30
0.0
 11
237.12000000000015
 21
261.2500000000001
 31
0.0
  0
LINE
  5
1BC
330
17
100
AcDbEntity
  8
side-b #2
100
AcDbLine
 10
234.37000000000015
 20
267.2500000000001
 30
0.0
 11
237.12000000000015
 21
267.2500000000001
 31
0.0
  0
LINE
  5
1BD
330
17
100
AcDbEntity
  8
side-b #2
100
AcDbLine
 10
234.37000000000015
 20
267.2500000000001
 30
0.0
 11
234.37000000000015
 21
273.2500000000001
 31
0.0
  0
LINE
  5
1BE
330
17
100
AcDbEntity
  8
side-b #2
100
AcDbLine
 10
234.37000000000015
 20
273.2500000000001
 30
0.0
 11
237.12000000000015
 21
273.2500000000001
 31
0.0
  0
LINE
  5
1BF
330
17
100
AcDbEntity
  8
side-b #2
100
AcDbLine
 10
237.12000000000015
 20
279.2500000000001
 30
0.0
 11
237.12000000000015
 21
273.2500000000001
 31
0.0
  0
LINE
  5
1C0
330
17
100
AcDbEntity
  8
side-b #2
100
AcDbLine
 10
234.37000000000015
 20
279.2500000000001
 30
0.0
 11
237.12000000000015
 21
279.2500000000001
 31
0.0
  0
LINE
  5
1C1
330
17
100
AcDbEntity
  8
side-b #2
100
AcDbLine
 10
234.37000000000015
 20
279.2500000000001
 30
0.0
 11
234.37000000000015
 21
285.2500000000001
 31
0.0
  0
LINE
  5
1C2
330
17
100
AcDbEntity
  8
side-b #2
100
AcDbLine
 10
114.37000000000015
 20
285.2500000000001
 30
0.0
 11
234.37000000000015
 21
285.2500000000001
 31
0.0
  0
LINE
  5
1C3
330
17
100
AcDbEntity
  8
side-b #2
100
AcDbLine
 10
114.37000000000015
 20
285.2500000000001
 30
0.0
 11
114.37000000000015
 21
279.2500000000001
 31
0.0
  0
LINE
  5
1C4
330
17
100
AcDbEntity
  8
side-b #2
100
AcDbLine
 10
114.37000000000015
 20
279.2500000000001
 30
0.0
 11
111.62000000000015
 21
279.2500000000001
 31
0.0
  0
LINE
  5
1C5
330
17
100
AcDbEntity
  8
side-b #2
100
AcDbLine
 10
111.62000000000015
 20
279.2500000000001
 30
0.0
 11
111.62000000000015
 21
273.2500000000001
 31
0.0
  0
LINE
  5
1C6
330
17
100
AcDbEntity
  8
side-b #2
100
AcDbLine
 10
114.37000000000015
 20
273.2500000000001
 30
0.0
 11
111.62000000000015
 21
273.2500000000001
 31
0.0
  0
LINE
  5
1C7
330
17
100
AcDbEntity
  8
side-b #2
100
AcDbLine
 10
114.37000000000015
 20
273.2500000000001
 30
0.0
 11
114.37000000000015
 21
267.2500000000001
 31
0.0
  0
LINE
  5
1C8
330
17
100
AcDbEntity
  8
side-b #2
100
AcDbLine
 10
114.37000000000015
 20
267.2500000000001
 30
0.0
 11
111.62000000000015
 21
267.2500000000001
 31
0.0
  0
LINE
  5
1C9
330
17
100
AcDbEntity
  8
side-b #2
100
AcDbLine
 10
111.62000000000015
 20
267.2500000000001
 30
0.0
 11
111.62000000000015
 21
261.2500000000001
 31
0.0
  0
LWPOLYLINE
  5
1CA
330
17
100
AcDbEntity
  8
DEBUG_side-b #2
100
AcDbPolyline
 90
5
 70
0
 10
111.12000000000015
 20
0.0
 10
236.62000000000015
 20
0.0
 10
236.62000000000015
 20
32.75
 10
111.12000000000015
 20
32.75
 10
111.12000000000015
 20
0.0
  0
ENDSEC
  0
SECTION
  2
OBJECTS
  0
DICTIONARY
  5
A
330
0
100
AcDbDictionary
280
0
281
1
  3
ACAD_COLOR
350
B
  3
ACAD_GROUP
350
C
  3
ACAD_LAYOUT
350
D
  3
ACAD_MATERIAL
350
E
  3
ACAD_MLEADERSTYLE
350
F
  3
ACAD_MLINESTYLE
350
10
  3
ACAD_PLOTSETTINGS
350
11
  3
ACAD_PLOTSTYLENAME
350
12
  3
ACAD_SCALELIST
350
14
  3
ACAD_TABLESTYLE
350
15
  3
ACAD_VISUALSTYLE
350
16
  3
EZDXF_META
350
2D
  0
DICTIONARY
  5
B
330
A
100
AcDbDictionary
280
0
281
1
  0
DICTIONARY
  5
C
330
A
100
AcDbDictionary
280
0
281
1
  0
DICTIONARY
  5
D
330
A
100
AcDbDictionary
280
0
281
1
  3
Model
350
1A
  3
Layout1
350
1E
  0
DICTIONARY
  5
E
330
A
100
AcDbDictionary
280
0
281
1
  3
ByBlock
350
1F
  3
ByLayer
350
20
  3
Global
350
21
  0
DICTIONARY
  5
F
330
A
100
AcDbDictionary
280
0
281
1
  3
Standard
350
2C
  0
DICTIONARY
  5
10
330
A
100
AcDbDictionary
280
0
281
1
  3
Standard
350
22
  0
DICTIONARY
  5
11
330
A
100
AcDbDictionary
280
0
281
1
  0
ACDBDICTIONARYWDFLT
  5
12
330
A
100
AcDbDictionary
280
0
281
1
  3
Normal
350
13
100
AcDbDictionaryWithDefault
340
13
  0
ACDBPLACEHOLDER
  5
13
330
12
  0
DICTIONARY
  5
14
330
A
100
AcDbDictionary
280
0
281
1
  0
DICTIONARY
  5
15
330
A
100
AcDbDictionary
280
0
281
1
  0
DICTIONARY
  5
16
330
A
100
AcDbDictionary
280
0
281
1
  0
LAYOUT
  5
1A
330
D
100
AcDbPlotSettings
  1

  4
A3
  6

 40
7.5
 41
20.0
 42
7.5
 43
20.0
 44
420.0
 45
297.0
 46
0.0
 47
0.0
 48
0.0
 49
0.0
140
0.0
141
0.0
142
1.0
143
1.0
 70
1024
 72
1
 73
0
 74
5
  7

 75
16
 76
0
 77
2
 78
300
147
1.0
148
0.0
149
0.0
100
AcDbLayout
  1
Model
 70
1
 71
0
 10
0.0
 20
0.0
 11
420.0
 21
297.0
 12
0.0
 22
0.0
 32
0.0
 14
1e+20
 24
1e+20
 34
1e+20
 15
-1e+20
 25
-1e+20
 35
-1e+20
146
0.0
 13
0.0
 23
0.0
 33
0.0
 16
1.0
 26
0.0
 36
0.0
 17
0.0
 27
1.0
 37
0.0
 76
1
330
17
  0
LAYOUT
  5
1E
330
D
100
AcDbPlotSettings
  1

  4
A3
  6

 40
7.5
 41
20.0
 42
7.5
 43
20.0
 44
420.0
 45
297.0
 46
0.0
 47
0.0
 48
0.0
 49
0.0
140
0.0
141
0.0
142
1.0
143
1.0
 70
0
 72
1
 73
0
 74
5
  7

 75
16
 76
0
 77
2
 78
300
147
1.0
148
0.0
149
0.0
100
AcDbLayout
  1
Layout1
 70
1
 71
1
 10
0.0
 20
0.0
 11
420.0
 21
297.0
 12
0.0
 22
0.0
 32
0.0
 14
1e+20
 24
1e+20
 34
1e+20
 15
-1e+20
 25
-1e+20
 35
-1e+20
146
0.0
 13
0.0
 23
0.0
 33
0.0
 16
1.0
 26
0.0
 36
0.0
 17
0.0
 27
1.0
 37
0.0
 76
1
330
1B
  0
MATERIAL
  5
1F
102
{ACAD_REACTORS
330
E
102
}
330
E
100
AcDbMaterial
  1
ByBlock
  2

 70
0
 40
1.0
 71
1
 41
1.0
 91
-1023410177
 42
1.0
 72
1
  3

 73
1
 74
1
 75
1
 44
0.5
 73
0
 45
1.0
 46
1.0
 77
1
  4

 78
1
 79
1
170
1
 48
1.0
171
1
  6

172
1
173
1
174
1
140
1.0
141
1.0
175
1
  7

176
1
177
1
178
1
143
1.0
179
1
  8

270
1
271
1
272
1
145
1.0
146
1.0
273
1
  9

274
1
275
1
276
1
 42
1.0
 72
1
  3

 73
1
 74
1
 75
1
 94
63
  0
MATERIAL
  5
20
102
{ACAD_REACTORS
330
E
102
}
330
E
100
AcDbMaterial
  1
ByLayer
  2

 70
0
 40
1.0
 71
1
 41
1.0
 91
-1023410177
 42
1.0
 72
1
  3

 73
1
 74
1
 75
1
 44
0.5
 73
0
 45
1.0
 46
1.0
 77
1
  4

 78
1
 79
1
170
1
 48
1.0
171
1
  6

172
1
173
1
174
1
140
1.0
141
1.0
175
1
  7

176
1
177
1
178
1
143
1.0
179
1
  8

270
1
271
1
272
1
145
1.0
146
1.0
273
1
  9

274
1
275
1
276
1
 42
1.0
 72
1
  3

 73
1
 74
1
 75
1
 94
63
  0
MATERIAL
  5
21
102
{ACAD_REACTORS
330
E
102
}
330
E
100
AcDbMaterial
  1
Global
  2

 70
0
 40
1.0
 71
1
 41
1.0
 91
-1023410177
 42
1.0
 72
1
  3

 73
1
 74
1
 75
1
 44
0.5
 73
0
 45
1.0
 46
1.0
 77
1
  4

 78
1
 79
1
170
1
 48
1.0
171
1
  6

172
1
173
1
174
1
140
1.0
141
1.0
175
1
  7

176
1
177
1
178
1
143
1.0
179
1
  8

270
1
271
1
272
1
145
1.0
146
1.0
273
1
  9

274
1
275
1
276
1
 42
1.0
 72
1
  3

 73
1
 74
1
 75
1
 94
63
  0
MLINESTYLE
  5
22
102
{ACAD_REACTORS
330
10
102
}
330
10
100
AcDbMlineStyle
  2
Standard
 70
0
  3

 62
256
 51
90.0
 52
90.0
 71
2
 49
0.5
 62
256
  6
BYLAYER
 49
-0.5
 62
256
  6
BYLAYER
  0
MLEADERSTYLE
  5
2C
102
{ACAD_REACTORS
330
F
102
}
330
F
100
AcDbMLeaderStyle
179
2
170
2
171
1
172
0
 90
2
 40
0.0
 41
0.0
173
1
 91
-1056964608
 92
-2
290
1
 42
2.0
291
1
 43
8.0
  3
Standard
 44
4.0
300

342
29
174
1
175
1
176
0
178
1
 93
-1056964608
 45
4.0
292
0
297
0
 46
4.0
 94
-1056964608
 47
1.0
 49
1.0
140
1.0
294
1
141
0.0
177
0
142
1.0
295
0
296
0
143
3.75
271
0
272
9
273
9
  0
DICTIONARY
  5
2D
330
A
100
AcDbDictionary
281
1
  3
CREATED_BY_EZDXF
350
2E
  3
WRITTEN_BY_EZDXF
350
1CD
  0
DICTIONARYVAR
  5
2E
330
2D
100
DictionaryVariables
280
0
  1
1.3.3 @ 2024-09-07T19:25:17.601040+00:00
  0
DICTIONARYVAR
  5
1CD
330
2D
100
DictionaryVariables
280
0
  1
1.3.3 @ 2024-09-07T19:25:17.606225+00:00
  0
ENDSEC
  0
EOF
